<?xml version="1.0" encoding="UTF-8" standalone="no"?>
<!-- Created with Inkscape (http://www.inkscape.org/) -->

<svg
   xmlns:dc="http://purl.org/dc/elements/1.1/"
   xmlns:cc="http://creativecommons.org/ns#"
   xmlns:rdf="http://www.w3.org/1999/02/22-rdf-syntax-ns#"
   xmlns:svg="http://www.w3.org/2000/svg"
   xmlns="http://www.w3.org/2000/svg"
   xmlns:sodipodi="http://sodipodi.sourceforge.net/DTD/sodipodi-0.dtd"
   xmlns:inkscape="http://www.inkscape.org/namespaces/inkscape"
   width="39.78027mm"
   height="48.811691mm"
   viewBox="0 0 39.78027 48.811691"
   version="1.1"
   id="svg8"
   inkscape:version="0.92.3 (2405546, 2018-03-11)"
   sodipodi:docname="bbq-marker-watermelon.svg">
  <defs
     id="defs2" />
  <sodipodi:namedview
     id="base"
     pagecolor="#ffffff"
     bordercolor="#666666"
     borderopacity="1.0"
     inkscape:pageopacity="0.0"
     inkscape:pageshadow="2"
     inkscape:zoom="0.12374369"
     inkscape:cx="-1478.7968"
     inkscape:cy="507.68639"
     inkscape:document-units="mm"
     inkscape:current-layer="layer1-1"
     showgrid="false"
     inkscape:window-width="1920"
     inkscape:window-height="1178"
     inkscape:window-x="1912"
     inkscape:window-y="-8"
     inkscape:window-maximized="1"
     fit-margin-top="0"
     fit-margin-left="0"
     fit-margin-right="0"
     fit-margin-bottom="0" />
  <metadata
     id="metadata5">
    <rdf:RDF>
      <cc:Work
         rdf:about="">
        <dc:format>image/svg+xml</dc:format>
        <dc:type
           rdf:resource="http://purl.org/dc/dcmitype/StillImage" />
        <dc:title />
      </cc:Work>
    </rdf:RDF>
  </metadata>
  <g
     inkscape:label="Layer 1"
     inkscape:groupmode="layer"
     id="layer1"
     transform="translate(-10.58501,-120.28951)">
    <g
       id="layer1-1"
       inkscape:label="Layer 1"
       transform="translate(-0.64244,-11.613421)">
      <path
         inkscape:connector-curvature="0"
         id="rect4541"
         d="m 18.972456,134.16436 c -3.037814,0 -5.483579,2.44577 -5.483579,5.48358 v 24.29025 c 0,3.03781 2.445765,5.48358 5.483579,5.48358 h 2.761067 l 9.031529,9.03152 9.031521,-9.03152 h 3.466142 c 3.037805,0 5.483576,-2.44577 5.483576,-5.48358 v -24.29025 c 0,-3.03781 -2.445771,-5.48358 -5.483576,-5.48358 z"
         style="fill:#b5b0a9;fill-opacity:1;stroke:none;stroke-width:2.26142693;stroke-linecap:butt;stroke-linejoin:round;stroke-miterlimit:4;stroke-dasharray:none;stroke-opacity:1" />
      <path
         inkscape:connector-curvature="0"
         style="fill:none;stroke:#000000;stroke-width:4.52285385;stroke-linecap:butt;stroke-linejoin:round;stroke-miterlimit:4;stroke-dasharray:none;stroke-opacity:0.30150757"
         d="m 18.972456,134.16436 c -3.037814,0 -5.483579,2.44577 -5.483579,5.48358 v 24.29025 c 0,3.03781 2.445765,5.48358 5.483579,5.48358 h 2.761067 l 9.031529,9.03152 9.031521,-9.03152 h 3.466142 c 3.037805,0 5.483576,-2.44577 5.483576,-5.48358 v -24.29025 c 0,-3.03781 -2.445771,-5.48358 -5.483576,-5.48358 z"
         id="path5023" />
      <flowRoot
         transform="scale(0.26458333)"
         style="font-style:normal;font-weight:normal;font-size:40px;line-height:1.25;font-family:sans-serif;letter-spacing:0px;word-spacing:0px;fill:#000000;fill-opacity:1;stroke:none"
         id="flowRoot5155"
         xml:space="preserve"><flowRegion
           style="fill:#000000"
           id="flowRegion5157"><rect
             style="fill:#000000"
             y="151.76309"
             x="135.36044"
             height="41.416256"
             width="220.21326"
             id="rect5159" /></flowRegion><flowPara
           id="flowPara5161">Rastessssdare</flowPara></flowRoot>      <flowRoot
         transform="matrix(0.37266857,0,0,0.37266857,26.586875,8.0121712)"
         style="font-style:normal;font-weight:normal;font-size:40px;line-height:1.25;font-family:sans-serif;letter-spacing:0px;word-spacing:0px;fill:#000000;fill-opacity:1;stroke:#000000;stroke-opacity:1"
         id="flowRoot5185"
         xml:space="preserve"><flowRegion
           style="fill:#000000;stroke:#000000;stroke-opacity:1"
           id="flowRegion5187"><rect
             style="fill:#000000;stroke:#000000;stroke-opacity:1"
             y="16.402647"
             x="17.172594"
             height="48.368317"
             width="376.16443"
             id="rect5189" /></flowRegion><flowPara
           id="flowPara5191" /></flowRoot>      <g
         id="text5195"
         style="font-style:normal;font-weight:normal;font-size:3.52777767px;line-height:1.25;font-family:sans-serif;letter-spacing:0px;word-spacing:0px;fill:#000000;fill-opacity:1;stroke:none;stroke-width:0.26458332"
         aria-label="For use" />
      <path
         style="fill:#ffffff;fill-opacity:1;fill-rule:nonzero;stroke:none;stroke-width:0.72898662"
         d="M 39.740149,159.39972 H 17.713934 v 3.12953 H 39.740149 Z M 21.729054,147.61063 c 0.458468,-0.90269 0.822959,-1.61742 0.822959,-2.73085 0,-0.75461 -0.182237,-1.364 -0.444222,-2.00471 -0.57522,0.33887 -1.124803,0.70906 -1.643069,1.12766 0.03702,0.27907 0.06262,0.56668 0.06262,0.87705 0,1.71143 -0.583758,2.85331 -1.096331,3.86137 -0.492634,0.96533 -0.916925,1.79969 -0.916925,3.20355 0,1.39248 0.313238,1.99616 0.711899,2.76216 0.435686,0.83721 0.92832,1.78545 0.931164,3.53959 h 2.02465 c -0.0029,-1.14473 -0.273369,-1.6687 -0.649256,-2.392 -0.444222,-0.85143 -0.993813,-1.91074 -0.993813,-3.90975 0,-2.00188 0.632169,-3.24058 1.190296,-4.33407 m 4.630211,0 c 0.461308,-0.90269 0.822952,-1.61742 0.822952,-2.73085 0,-1.07923 -0.358794,-1.86517 -0.81441,-2.85614 -0.09966,-0.21927 -0.202178,-0.44992 -0.304694,-0.69196 -0.575223,0.12254 -1.133348,0.29046 -1.677238,0.4841 0.367335,0.8799 0.672031,1.83954 0.672031,3.064 0,1.71143 -0.580907,2.85331 -1.09633,3.86137 -0.492634,0.96533 -0.916926,1.79969 -0.916926,3.20355 0,1.39248 0.313238,1.99616 0.711897,2.76216 0.435686,0.83721 0.92832,1.78545 0.931173,3.53959 h 2.12716 c -0.0029,-1.14473 -0.27337,-1.6687 -0.649256,-2.392 -0.444224,-0.85143 -0.993813,-1.91074 -0.993813,-3.90975 0,-2.00188 0.632169,-3.24058 1.187454,-4.33407 m 4.533385,0 c 0.45846,-0.90269 0.822954,-1.61742 0.822954,-2.73085 0,-1.07923 -0.358801,-1.86517 -0.817261,-2.85614 -0.122456,-0.27336 -0.25344,-0.56667 -0.381581,-0.87422 -0.54389,-0.0682 -1.09633,-0.11386 -1.66015,-0.11386 -0.06262,0 -0.119605,0.008 -0.182237,0.008 0.50402,1.09917 1.013741,2.24108 1.013741,3.83573 0,1.71141 -0.580908,2.85329 -1.093479,3.86135 -0.492634,0.96533 -0.916927,1.79969 -0.916927,3.20355 0,1.39248 0.313238,1.99618 0.711899,2.76218 0.435686,0.83719 0.92832,1.78545 0.931172,3.53957 h 2.024642 c 0,-1.14473 -0.273369,-1.66869 -0.649257,-2.39198 -0.441372,-0.85145 -0.993812,-1.91076 -0.993812,-3.90977 0,-2.00186 0.632168,-3.24057 1.190304,-4.33407 m 10.288394,7.23863 c 0.558125,-0.68058 0.529652,-1.71141 0.03988,-2.31227 l -5.205417,-6.37579 c -0.458465,-0.56097 -1.215925,0.0882 -0.791634,0.60939 l 3.821486,4.68148 -0.67488,0.54673 -3.804401,-4.66153 c -0.461309,-0.56668 -1.187453,0.0541 -0.75746,0.58091 l 3.82148,4.68147 -0.700506,0.56668 -3.790163,-4.6473 c -0.481246,-0.58946 -1.258646,0.074 -0.811565,0.62077 l 5.12853,6.28467 c 0.63502,0.78308 1.600353,0.91978 2.357819,0.52681 l 3.952472,4.84662 c 0.276221,-0.61792 0.515415,-1.25295 0.711899,-1.9079 z m 0,0"
         id="path10535"
         inkscape:connector-curvature="0" />
    </g>
  </g>
</svg>
