<?xml version="1.0" encoding="UTF-8" standalone="no"?>
<!-- Created with Inkscape (http://www.inkscape.org/) -->

<svg
   xmlns:dc="http://purl.org/dc/elements/1.1/"
   xmlns:cc="http://creativecommons.org/ns#"
   xmlns:rdf="http://www.w3.org/1999/02/22-rdf-syntax-ns#"
   xmlns:svg="http://www.w3.org/2000/svg"
   xmlns="http://www.w3.org/2000/svg"
   xmlns:sodipodi="http://sodipodi.sourceforge.net/DTD/sodipodi-0.dtd"
   xmlns:inkscape="http://www.inkscape.org/namespaces/inkscape"
   width="39.78027mm"
   height="48.811691mm"
   viewBox="0 0 39.78027 48.811691"
   version="1.1"
   id="svg8"
   inkscape:version="0.92.3 (2405546, 2018-03-11)"
   sodipodi:docname="boatramp-marker-charcoal.svg">
  <defs
     id="defs2" />
  <sodipodi:namedview
     id="base"
     pagecolor="#ffffff"
     bordercolor="#666666"
     borderopacity="1.0"
     inkscape:pageopacity="0.0"
     inkscape:pageshadow="2"
     inkscape:zoom="1.4"
     inkscape:cx="-134.57245"
     inkscape:cy="156.69151"
     inkscape:document-units="mm"
     inkscape:current-layer="layer1-1"
     showgrid="false"
     inkscape:window-width="1920"
     inkscape:window-height="1178"
     inkscape:window-x="1912"
     inkscape:window-y="-8"
     inkscape:window-maximized="1"
     fit-margin-top="0"
     fit-margin-left="0"
     fit-margin-right="0"
     fit-margin-bottom="0" />
  <metadata
     id="metadata5">
    <rdf:RDF>
      <cc:Work
         rdf:about="">
        <dc:format>image/svg+xml</dc:format>
        <dc:type
           rdf:resource="http://purl.org/dc/dcmitype/StillImage" />
        <dc:title />
      </cc:Work>
    </rdf:RDF>
  </metadata>
  <g
     inkscape:label="Layer 1"
     inkscape:groupmode="layer"
     id="layer1"
     transform="translate(-10.58501,-120.28951)">
    <g
       id="layer1-1"
       inkscape:label="Layer 1"
       transform="translate(-0.64244,-11.613421)">
      <path
         inkscape:connector-curvature="0"
         id="rect4541"
         d="m 18.972456,134.16436 c -3.037814,0 -5.483579,2.44577 -5.483579,5.48358 v 24.29025 c 0,3.03781 2.445765,5.48358 5.483579,5.48358 h 2.761067 l 9.031529,9.03152 9.031521,-9.03152 h 3.466142 c 3.037805,0 5.483576,-2.44577 5.483576,-5.48358 v -24.29025 c 0,-3.03781 -2.445771,-5.48358 -5.483576,-5.48358 z"
         style="fill:#218fa3;fill-opacity:1;stroke:none;stroke-width:2.26142693;stroke-linecap:butt;stroke-linejoin:round;stroke-miterlimit:4;stroke-dasharray:none;stroke-opacity:1" />
      <path
         inkscape:connector-curvature="0"
         style="fill:none;stroke:#000000;stroke-width:4.52285385;stroke-linecap:butt;stroke-linejoin:round;stroke-miterlimit:4;stroke-dasharray:none;stroke-opacity:0.30150757"
         d="m 18.972456,134.16436 c -3.037814,0 -5.483579,2.44577 -5.483579,5.48358 v 24.29025 c 0,3.03781 2.445765,5.48358 5.483579,5.48358 h 2.761067 l 9.031529,9.03152 9.031521,-9.03152 h 3.466142 c 3.037805,0 5.483576,-2.44577 5.483576,-5.48358 v -24.29025 c 0,-3.03781 -2.445771,-5.48358 -5.483576,-5.48358 z"
         id="path5023" />
      <flowRoot
         transform="scale(0.26458333)"
         style="font-style:normal;font-weight:normal;font-size:40px;line-height:1.25;font-family:sans-serif;letter-spacing:0px;word-spacing:0px;fill:#000000;fill-opacity:1;stroke:none"
         id="flowRoot5155"
         xml:space="preserve"><flowRegion
           style="fill:#000000"
           id="flowRegion5157"><rect
             style="fill:#000000"
             y="151.76309"
             x="135.36044"
             height="41.416256"
             width="220.21326"
             id="rect5159" /></flowRegion><flowPara
           id="flowPara5161">Rastessssdare</flowPara></flowRoot>      <flowRoot
         transform="matrix(0.37266857,0,0,0.37266857,26.586875,8.0121712)"
         style="font-style:normal;font-weight:normal;font-size:40px;line-height:1.25;font-family:sans-serif;letter-spacing:0px;word-spacing:0px;fill:#000000;fill-opacity:1;stroke:#000000;stroke-opacity:1"
         id="flowRoot5185"
         xml:space="preserve"><flowRegion
           style="fill:#000000;stroke:#000000;stroke-opacity:1"
           id="flowRegion5187"><rect
             style="fill:#000000;stroke:#000000;stroke-opacity:1"
             y="16.402647"
             x="17.172594"
             height="48.368317"
             width="376.16443"
             id="rect5189" /></flowRegion><flowPara
           id="flowPara5191" /></flowRoot>      <g
         id="text5195"
         style="font-style:normal;font-weight:normal;font-size:3.52777767px;line-height:1.25;font-family:sans-serif;letter-spacing:0px;word-spacing:0px;fill:#000000;fill-opacity:1;stroke:none;stroke-width:0.26458332"
         aria-label="For use" />
      <path
         style="fill:#ffffff;fill-opacity:1;fill-rule:nonzero;stroke:none;stroke-width:0.6791808"
         d="m 17.875711,159.49438 c -0.360814,0.16192 -0.782647,0.26796 -1.20979,0.26796 0.22286,0.58634 0.482857,1.1594 0.774694,1.70857 0.148571,-0.0426 0.297141,-0.0876 0.435096,-0.15652 0.392656,-0.15652 0.819792,-0.27061 1.262855,-0.27061 0.448363,0 0.883466,0.11397 1.26285,0.27061 0.379391,0.18829 0.795917,0.28122 1.236325,0.28122 0.435098,0 0.848977,-0.0928 1.228361,-0.28122 0.374079,-0.15652 0.801222,-0.27061 1.262848,-0.27061 0.435103,0 0.870201,0.11397 1.25755,0.27061 0.37408,0.18829 0.795913,0.28122 1.215096,0.28122 0.352854,0 0.700406,-0.077 1.013467,-0.19899 0.0054,0.006 0.0054,0.008 0.0054,0.0134 0.08225,-0.045 0.183052,-0.0478 0.259998,-0.0955 0.366118,-0.15383 0.806528,-0.26265 1.241631,-0.26796 0.4404,0.006 0.856935,0.11417 1.244279,0.26796 0.08754,0.0477 0.183052,0.0822 0.275917,0.11415 0.0079,-0.008 0.0079,-0.0154 0.01597,-0.0266 0.310406,0.11936 0.644685,0.19366 0.976322,0.19366 0.435098,0 0.85693,-0.0928 1.215096,-0.28121 0.395304,-0.15653 0.822449,-0.27062 1.265505,-0.27062 0.453672,0 0.888768,0.11417 1.262848,0.27062 0.38735,0.18828 0.801223,0.28121 1.236327,0.28121 0.4404,0 0.848976,-0.0928 1.236319,-0.28121 0.366119,-0.15653 0.793261,-0.27062 1.254895,-0.27062 0.443056,0 0.875505,0.11417 1.257544,0.27062 0.379383,0.18828 0.793263,0.28121 1.223054,0.28121 0.432449,0 0.875505,-0.0928 1.241626,-0.28121 0.374085,-0.15653 0.801222,-0.27062 1.257549,-0.27062 0.196324,0 0.392649,0.0292 0.583669,0.0689 0.265309,-0.52 0.496122,-1.05857 0.700405,-1.61306 -0.0079,-0.002 -0.01598,-0.002 -0.0292,-0.006 -0.387345,-0.1752 -0.814489,-0.27856 -1.254889,-0.27856 -0.456327,0 -0.883464,0.10338 -1.257551,0.27856 -0.366119,0.16442 -0.809177,0.26796 -1.241623,0.26796 -0.429792,0 -0.843672,-0.10339 -1.223056,-0.26796 -0.382039,-0.1752 -0.814488,-0.27856 -1.257543,-0.27856 -0.461634,0 -0.888778,0.10338 -1.254896,0.27856 -0.387345,0.16442 -0.795919,0.26796 -1.23632,0.26796 -0.435104,0 -0.848976,-0.10339 -1.236325,-0.26796 -0.37408,-0.1752 -0.809178,-0.27856 -1.26285,-0.27856 -0.443057,0 -0.870199,0.10338 -1.265504,0.27856 -0.358165,0.16442 -0.779998,0.26796 -1.215094,0.26796 -0.03979,0 -0.08756,-0.0134 -0.135306,-0.0154 0,0 0.0079,0 0.0079,0 -0.185708,-0.002 -0.360814,-0.0292 -0.538569,-0.0664 -0.196332,-0.0451 -0.387352,-0.10878 -0.56245,-0.18579 -0.379384,-0.1752 -0.814488,-0.27859 -1.26285,-0.27859 -0.0079,0 -0.01329,0 -0.0212,0 -0.0079,0 -0.01329,0 -0.0212,0 -0.448368,0 -0.875511,0.10339 -1.24959,0.27859 -0.175101,0.077 -0.371425,0.14054 -0.570404,0.18579 -0.169786,0.0372 -0.33959,0.0637 -0.52265,0.0664 -0.05304,0 -0.100821,0.0154 -0.156541,0.0154 -0.419183,0 -0.841016,-0.10339 -1.215094,-0.26796 -0.387351,-0.1752 -0.822447,-0.27856 -1.257552,-0.27856 -0.461626,0 -0.888769,0.10338 -1.262848,0.27856 -0.379384,0.16442 -0.793264,0.26796 -1.228359,0.26796 -0.440407,0 -0.856936,-0.10339 -1.236328,-0.26796 -0.379383,-0.1752 -0.814486,-0.27856 -1.262847,-0.27856 -0.443064,0 -0.870202,0.10338 -1.262855,0.27856 m 11.599134,-5.79427 12.042195,-4.40405 -0.265308,-0.73225 -4.388146,1.58653 c 2.480605,-2.01366 3.390598,-6.5716 3.390598,-6.5716 l -4.963853,1.96326 c -0.95245,-1.61838 -1.896932,-2.01898 -1.896932,-2.01898 l -2.573456,3.78856 -13.413822,5.30345 2.607947,4.10958 c 0,0 0.469592,-0.17251 1.249582,-0.46164 l 0.14857,0.4006 2.921015,-1.07713 c -0.183071,-0.36878 -0.297143,-0.77999 -0.297143,-1.2204 0,-1.52285 1.241625,-2.75653 2.769782,-2.75653 1.289383,0 2.371828,0.89143 2.668969,2.0906 m 16.279115,5.08855 -2.947543,-7.65933 -13.567697,4.51812 -1.018769,0.3396 c 0.310405,-0.28388 0.527959,-0.66062 0.618163,-1.06919 0.04509,-0.1777 0.07959,-0.3608 0.07959,-0.55182 0,-0.15383 -0.01329,-0.30244 -0.04774,-0.44572 -0.201629,-0.95244 -1.050604,-1.6661 -2.06407,-1.6661 -1.175303,0 -2.119786,0.94448 -2.119786,2.11182 0,0.36082 0.103463,0.69775 0.259998,0.99754 0.1751,0.32102 0.427144,0.5943 0.7402,0.78796 0.0054,0.002 0.01329,0.006 0.01867,0.0115 0.103463,0.0664 0.217548,0.11417 0.326326,0.16442 0.204285,0.0876 0.421833,0.15383 0.644685,0.1752 l -1.050604,0.34754 -5.319364,1.77224 c 0.382039,0.16441 0.787952,0.26529 1.223055,0.26529 0.440408,0 0.848976,-0.10337 1.23632,-0.26794 0.366119,-0.17501 0.793263,-0.28123 1.254894,-0.28123 0.443057,0 0.87816,0.10609 1.257544,0.28123 0.379385,0.1644 0.795919,0.26794 1.223055,0.26794 0.05304,0 0.100821,-0.0154 0.156541,-0.0192 0.1751,0 0.344894,-0.0266 0.514691,-0.061 0.204283,-0.0478 0.395303,-0.11147 0.570409,-0.18829 0.374079,-0.17501 0.801216,-0.28122 1.257543,-0.28122 0.0079,0 0.01329,0.002 0.0212,0.002 0.0054,0 0.0054,-0.002 0.01329,-0.002 0.453671,0 0.883465,0.10608 1.262855,0.28122 0.175099,0.077 0.374079,0.14054 0.570403,0.18829 0.169787,0.0344 0.347552,0.061 0.530611,0.061 v 0.002 c 0.04774,0.002 0.08756,0.0154 0.135305,0.0154 0.427138,0 0.848976,-0.10339 1.209792,-0.26795 0.392647,-0.175 0.827752,-0.28122 1.262847,-0.28122 0.453673,0 0.888777,0.10608 1.26816,0.28122 0.38204,0.16441 0.795918,0.26795 1.231016,0.26795 0.440408,0 0.854279,-0.10339 1.236319,-0.26795 0.37143,-0.175 0.801222,-0.28122 1.262855,-0.28122 0.435098,0 0.8702,0.10608 1.254889,0.28122 0.374085,0.16441 0.795918,0.26795 1.217751,0.26795 0.440407,0 0.875511,-0.10339 1.249591,-0.26795 0.374079,-0.175 0.793262,-0.28122 1.249584,-0.28122 0.448368,0 0.867544,0.10608 1.262855,0.28122 0.169787,0.0716 0.339591,0.12475 0.514689,0.16981"
         id="path10857"
         inkscape:connector-curvature="0" />
    </g>
  </g>
</svg>
