<?xml version="1.0" encoding="UTF-8" standalone="no"?>
<!-- Created with Inkscape (http://www.inkscape.org/) -->

<svg
   xmlns:dc="http://purl.org/dc/elements/1.1/"
   xmlns:cc="http://creativecommons.org/ns#"
   xmlns:rdf="http://www.w3.org/1999/02/22-rdf-syntax-ns#"
   xmlns:svg="http://www.w3.org/2000/svg"
   xmlns="http://www.w3.org/2000/svg"
   xmlns:sodipodi="http://sodipodi.sourceforge.net/DTD/sodipodi-0.dtd"
   xmlns:inkscape="http://www.inkscape.org/namespaces/inkscape"
   width="44.981762mm"
   height="44.981762mm"
   viewBox="0 0 44.981762 44.981762"
   version="1.1"
   id="svg8"
   inkscape:version="0.92.3 (2405546, 2018-03-11)"
   sodipodi:docname="boatramp-circle-charcoal.svg">
  <defs
     id="defs2">
    <filter
       id="filter4961"
       inkscape:label="Drop Shadow"
       style="color-interpolation-filters:sRGB">
      <feFlood
         id="feFlood4951"
         result="flood"
         flood-color="rgb(29,15,0)"
         flood-opacity="0.854902" />
      <feComposite
         id="feComposite4953"
         result="composite1"
         operator="in"
         in2="SourceGraphic"
         in="flood" />
      <feGaussianBlur
         id="feGaussianBlur4955"
         result="blur"
         stdDeviation="2"
         in="composite1" />
      <feOffset
         id="feOffset4957"
         result="offset"
         dy="0"
         dx="0" />
      <feComposite
         id="feComposite4959"
         result="fbSourceGraphic"
         operator="over"
         in2="offset"
         in="SourceGraphic" />
      <feColorMatrix
         id="feColorMatrix4963"
         values="0 0 0 -1 0 0 0 0 -1 0 0 0 0 -1 0 0 0 0 1 0"
         in="fbSourceGraphic"
         result="fbSourceGraphicAlpha" />
      <feFlood
         in="fbSourceGraphic"
         result="flood"
         flood-color="rgb(29,15,0)"
         flood-opacity="0.854902"
         id="feFlood4965" />
      <feComposite
         result="composite1"
         operator="in"
         in="flood"
         id="feComposite4967"
         in2="fbSourceGraphic" />
      <feGaussianBlur
         result="blur"
         stdDeviation="2"
         in="composite1"
         id="feGaussianBlur4969" />
      <feOffset
         result="offset"
         dy="0"
         dx="0"
         id="feOffset4971" />
      <feComposite
         result="composite2"
         operator="over"
         in="fbSourceGraphic"
         id="feComposite4973"
         in2="offset" />
    </filter>
  </defs>
  <sodipodi:namedview
     id="base"
     pagecolor="#ffffff"
     bordercolor="#666666"
     borderopacity="1.0"
     inkscape:pageopacity="0.0"
     inkscape:pageshadow="2"
     inkscape:zoom="2.8"
     inkscape:cx="-8.4857294"
     inkscape:cy="69.310573"
     inkscape:document-units="mm"
     inkscape:current-layer="layer1"
     showgrid="false"
     fit-margin-top="0"
     fit-margin-left="0"
     fit-margin-right="0"
     fit-margin-bottom="0"
     inkscape:window-width="1920"
     inkscape:window-height="1178"
     inkscape:window-x="1912"
     inkscape:window-y="-8"
     inkscape:window-maximized="1" />
  <metadata
     id="metadata5">
    <rdf:RDF>
      <cc:Work
         rdf:about="">
        <dc:format>image/svg+xml</dc:format>
        <dc:type
           rdf:resource="http://purl.org/dc/dcmitype/StillImage" />
        <dc:title />
      </cc:Work>
    </rdf:RDF>
  </metadata>
  <g
     inkscape:label="Layer 1"
     inkscape:groupmode="layer"
     id="layer1"
     transform="translate(-115.8484,-142.21745)">
    <flowRoot
       xml:space="preserve"
       id="flowRoot5155"
       style="font-style:normal;font-weight:normal;font-size:40px;line-height:1.25;font-family:sans-serif;letter-spacing:0px;word-spacing:0px;fill:#000000;fill-opacity:1;stroke:none"
       transform="matrix(0.26458333,0,0,0.26458333,-42.219817,-44.875326)"><flowRegion
         id="flowRegion5157"
         style="fill:#000000"><rect
           id="rect5159"
           width="220.21326"
           height="41.416256"
           x="135.36044"
           y="151.76309"
           style="fill:#000000" /></flowRegion><flowPara
         id="flowPara5161">Rastessssdare</flowPara></flowRoot>    <flowRoot
       xml:space="preserve"
       id="flowRoot5185"
       style="font-style:normal;font-weight:normal;font-size:40px;line-height:1.25;font-family:sans-serif;letter-spacing:0px;word-spacing:0px;fill:#000000;fill-opacity:1;stroke:#000000;stroke-opacity:1"
       transform="matrix(0.37266857,0,0,0.37266857,-15.632942,-36.863155)"><flowRegion
         id="flowRegion5187"
         style="fill:#000000;stroke:#000000;stroke-opacity:1"><rect
           id="rect5189"
           width="376.16443"
           height="48.368317"
           x="17.172594"
           y="16.402647"
           style="fill:#000000;stroke:#000000;stroke-opacity:1" /></flowRegion><flowPara
         id="flowPara5191" /></flowRoot>    <g
       aria-label="For use"
       style="font-style:normal;font-weight:normal;font-size:3.52777767px;line-height:1.25;font-family:sans-serif;letter-spacing:0px;word-spacing:0px;fill:#000000;fill-opacity:1;stroke:none;stroke-width:0.26458332"
       id="text5195"
       transform="translate(-42.219817,-44.875326)" />
    <circle
       r="19.783596"
       cy="164.70833"
       cx="138.33928"
       id="circle5143"
       style="fill:#b5b0a9;fill-opacity:1;stroke:none;stroke-width:4.39223909;stroke-linecap:butt;stroke-linejoin:round;stroke-miterlimit:4;stroke-dasharray:none;stroke-opacity:0.30150757" />
    <circle
       r="19.783596"
       style="fill:none;fill-opacity:1;stroke:#000000;stroke-width:5.41456985;stroke-linecap:butt;stroke-linejoin:round;stroke-miterlimit:4;stroke-dasharray:none;stroke-opacity:0.30150757"
       id="circle5145"
       cx="138.33928"
       cy="164.70833" />
    <path
       style="fill:#ffffff;fill-opacity:1;fill-rule:nonzero;stroke:none;stroke-width:0.68317902"
       d="m 125.29129,171.25826 c -0.36295,0.16286 -0.78725,0.26953 -1.21692,0.26953 0.22417,0.58978 0.48569,1.16622 0.77926,1.71862 0.14951,-0.0427 0.29889,-0.0881 0.43766,-0.15744 0.39497,-0.15745 0.8246,-0.27222 1.27028,-0.27222 0.45101,0 0.88868,0.11484 1.27029,0.27222 0.38162,0.1894 0.8006,0.28287 1.24361,0.28287 0.43764,0 0.85396,-0.0934 1.23559,-0.28287 0.37627,-0.15745 0.80594,-0.27222 1.27027,-0.27222 0.43766,0 0.87533,0.11484 1.26494,0.27222 0.37631,0.1894 0.80061,0.28287 1.22226,0.28287 0.35493,0 0.70454,-0.0774 1.01944,-0.20016 0.005,0.005 0.005,0.008 0.005,0.0135 0.0827,-0.0453 0.18417,-0.048 0.26153,-0.0961 0.36826,-0.15474 0.81127,-0.26422 1.24893,-0.26953 0.443,0.005 0.862,0.11483 1.25162,0.26953 0.0881,0.048 0.18416,0.0827 0.27754,0.11484 0.008,-0.008 0.008,-0.0155 0.0155,-0.0268 0.31223,0.12008 0.64847,0.19483 0.98206,0.19483 0.43765,0 0.86197,-0.0934 1.22226,-0.28288 0.39762,-0.15744 0.82728,-0.27219 1.27294,-0.27219 0.45636,0 0.894,0.11464 1.27029,0.27219 0.38962,0.18941 0.80595,0.28288 1.24361,0.28288 0.44299,0 0.85397,-0.0934 1.2436,-0.28288 0.36826,-0.15744 0.79791,-0.27219 1.26227,-0.27219 0.44566,0 0.88066,0.11464 1.26495,0.27219 0.38162,0.18941 0.79794,0.28288 1.23026,0.28288 0.43499,0 0.88065,-0.0934 1.24893,-0.28288 0.3763,-0.15744 0.80594,-0.27219 1.26494,-0.27219 0.19751,0 0.39498,0.0294 0.58712,0.0693 0.26686,-0.52307 0.49903,-1.0648 0.70452,-1.62255 -0.008,-0.002 -0.0155,-0.002 -0.0295,-0.005 -0.38962,-0.17603 -0.81928,-0.2802 -1.26227,-0.2802 -0.45901,0 -0.88866,0.10405 -1.26494,0.2802 -0.36828,0.16539 -0.81395,0.26954 -1.24894,0.26954 -0.43232,0 -0.84865,-0.10406 -1.23026,-0.26954 -0.38428,-0.17603 -0.81927,-0.2802 -1.26495,-0.2802 -0.46435,0 -0.89401,0.10405 -1.26229,0.2802 -0.38961,0.16539 -0.80059,0.26954 -1.24358,0.26954 -0.43766,0 -0.85398,-0.10406 -1.24361,-0.26954 -0.3763,-0.17603 -0.81394,-0.2802 -1.27029,-0.2802 -0.44566,0 -0.87531,0.10405 -1.27294,0.2802 -0.36029,0.16539 -0.78459,0.26954 -1.22226,0.26954 -0.0401,0 -0.0881,-0.0135 -0.13614,-0.0155 0,0 0.008,0 0.008,0 -0.18688,-0.002 -0.36295,-0.0294 -0.54175,-0.0669 -0.19748,-0.0454 -0.38962,-0.10942 -0.56575,-0.18689 -0.38162,-0.17603 -0.81929,-0.2802 -1.2703,-0.2802 -0.008,0 -0.0135,0 -0.0213,0 -0.008,0 -0.0135,0 -0.0213,0 -0.45101,0 -0.88068,0.10416 -1.25695,0.2802 -0.17622,0.0774 -0.37361,0.14137 -0.57377,0.18689 -0.1708,0.0374 -0.34157,0.0642 -0.52572,0.0669 -0.0535,0 -0.10144,0.0155 -0.15745,0.0155 -0.42164,0 -0.84596,-0.10406 -1.22224,-0.26954 -0.38965,-0.17603 -0.82731,-0.2802 -1.26498,-0.2802 -0.46431,0 -0.89398,0.10405 -1.27025,0.2802 -0.38164,0.16539 -0.79794,0.26954 -1.2356,0.26954 -0.44301,0 -0.86199,-0.10406 -1.24361,-0.26954 -0.38162,-0.17603 -0.81928,-0.2802 -1.27027,-0.2802 -0.44569,0 -0.87533,0.10405 -1.2703,0.2802 m 11.66741,-5.82838 12.1131,-4.42998 -0.26688,-0.73655 -4.41397,1.59587 c 2.49519,-2.02552 3.41055,-6.6103 3.41055,-6.6103 l -4.99307,1.9748 c -0.95806,-1.62788 -1.9081,-2.03084 -1.9081,-2.03084 l -2.5886,3.81086 -13.49278,5.33468 2.62329,4.13377 c 0,0 0.47235,-0.17353 1.25694,-0.46437 l 0.1495,0.40297 2.9382,-1.08348 c -0.18416,-0.37094 -0.2989,-0.78457 -0.2989,-1.22759 0,-1.5318 1.24895,-2.77275 2.7861,-2.77275 1.29697,0 2.38579,0.89668 2.68469,2.10291 m 16.37493,5.11851 -2.96488,-7.70444 -13.64758,4.54474 -1.02475,0.34159 c 0.31223,-0.28555 0.53107,-0.6645 0.62179,-1.07548 0.0454,-0.17875 0.0799,-0.36293 0.0799,-0.55508 0,-0.15473 -0.0135,-0.30421 -0.048,-0.44833 -0.20279,-0.95805 -1.05678,-1.67593 -2.07622,-1.67593 -1.18221,0 -2.13225,0.95004 -2.13225,2.12426 0,0.36293 0.10394,0.70187 0.26153,1.00342 0.17622,0.32292 0.42966,0.59778 0.74455,0.7926 0.005,0.002 0.0135,0.005 0.0194,0.0115 0.10395,0.0669 0.21884,0.11464 0.32825,0.16538 0.2055,0.0881 0.42432,0.15473 0.64847,0.17603 l -1.05677,0.34963 -5.35068,1.78266 c 0.38429,0.16539 0.79259,0.26685 1.23025,0.26685 0.44302,0 0.85397,-0.10394 1.24361,-0.26952 0.36826,-0.17604 0.79792,-0.28288 1.26228,-0.28288 0.44566,0 0.88333,0.10668 1.26494,0.28288 0.38162,0.16538 0.80061,0.26952 1.23025,0.26952 0.0535,0 0.10144,-0.0155 0.15744,-0.0194 0.17623,0 0.34693,-0.0267 0.51773,-0.0614 0.20548,-0.048 0.39761,-0.11212 0.57376,-0.18939 0.37628,-0.17603 0.80593,-0.28288 1.26495,-0.28288 0.008,0 0.0135,0.002 0.0213,0.002 0.005,0 0.005,-0.002 0.0135,-0.002 0.45636,0 0.88867,0.10668 1.27029,0.28288 0.17604,0.0774 0.37628,0.14137 0.57376,0.18939 0.17081,0.0347 0.3496,0.0614 0.53372,0.0614 v 0.002 c 0.048,0.002 0.0881,0.0155 0.13615,0.0155 0.42964,0 0.85396,-0.10395 1.2169,-0.26954 0.39495,-0.17622 0.83262,-0.2829 1.27028,-0.2829 0.45635,0 0.89401,0.10668 1.27562,0.2829 0.38431,0.16539 0.80061,0.26954 1.23827,0.26954 0.44299,0 0.85932,-0.10395 1.24359,-0.26954 0.37362,-0.17622 0.80594,-0.2829 1.27029,-0.2829 0.43767,0 0.87533,0.10668 1.26229,0.2829 0.37629,0.16539 0.80059,0.26954 1.22491,0.26954 0.44302,0 0.88066,-0.10395 1.25696,-0.26954 0.37627,-0.17622 0.79791,-0.2829 1.25692,-0.2829 0.45101,0 0.87266,0.10668 1.2703,0.2829 0.17081,0.072 0.34158,0.12549 0.51771,0.17081"
       id="path10857"
       inkscape:connector-curvature="0" />
  </g>
</svg>
