<?xml version="1.0" encoding="UTF-8" standalone="no"?>
<!-- Created with Inkscape (http://www.inkscape.org/) -->

<svg
   xmlns:dc="http://purl.org/dc/elements/1.1/"
   xmlns:cc="http://creativecommons.org/ns#"
   xmlns:rdf="http://www.w3.org/1999/02/22-rdf-syntax-ns#"
   xmlns:svg="http://www.w3.org/2000/svg"
   xmlns="http://www.w3.org/2000/svg"
   xmlns:sodipodi="http://sodipodi.sourceforge.net/DTD/sodipodi-0.dtd"
   xmlns:inkscape="http://www.inkscape.org/namespaces/inkscape"
   width="39.78027mm"
   height="48.811691mm"
   viewBox="0 0 39.78027 48.811691"
   version="1.1"
   id="svg8"
   inkscape:version="0.92.3 (2405546, 2018-03-11)"
   sodipodi:docname="dogprohibited-marker-charcoal.svg">
  <defs
     id="defs2" />
  <sodipodi:namedview
     id="base"
     pagecolor="#ffffff"
     bordercolor="#666666"
     borderopacity="1.0"
     inkscape:pageopacity="0.0"
     inkscape:pageshadow="2"
     inkscape:zoom="3.959798"
     inkscape:cx="32.235085"
     inkscape:cy="114.29706"
     inkscape:document-units="mm"
     inkscape:current-layer="layer1-1"
     showgrid="false"
     inkscape:window-width="1920"
     inkscape:window-height="1138"
     inkscape:window-x="-8"
     inkscape:window-y="-8"
     inkscape:window-maximized="1"
     fit-margin-top="0"
     fit-margin-left="0"
     fit-margin-right="0"
     fit-margin-bottom="0" />
  <metadata
     id="metadata5">
    <rdf:RDF>
      <cc:Work
         rdf:about="">
        <dc:format>image/svg+xml</dc:format>
        <dc:type
           rdf:resource="http://purl.org/dc/dcmitype/StillImage" />
        <dc:title />
      </cc:Work>
    </rdf:RDF>
  </metadata>
  <g
     inkscape:label="Layer 1"
     inkscape:groupmode="layer"
     id="layer1"
     transform="translate(-10.58501,-120.28951)">
    <g
       id="layer1-1"
       inkscape:label="Layer 1"
       transform="translate(-0.64244,-11.613421)">
      <path
         inkscape:connector-curvature="0"
         id="rect4541"
         d="m 18.972456,134.16436 c -3.037814,0 -5.483579,2.44577 -5.483579,5.48358 v 24.29025 c 0,3.03781 2.445765,5.48358 5.483579,5.48358 h 2.761067 l 9.031529,9.03152 9.031521,-9.03152 h 3.466142 c 3.037805,0 5.483576,-2.44577 5.483576,-5.48358 v -24.29025 c 0,-3.03781 -2.445771,-5.48358 -5.483576,-5.48358 z"
         style="fill:#c4004b;fill-opacity:1;stroke:none;stroke-width:2.26142693;stroke-linecap:butt;stroke-linejoin:round;stroke-miterlimit:4;stroke-dasharray:none;stroke-opacity:1" />
      <path
         inkscape:connector-curvature="0"
         style="fill:#ffffff;stroke-width:4.04801083"
         d="m 33.659929,138.65667 v 7.49248 1.62333 l -0.595676,-0.29127 H 20.069982 l -1.675884,-0.94716 c -0.53855,-0.30752 -1.222518,-0.12213 -1.526967,0.42102 -0.302945,0.53853 -0.122112,1.2179 0.421025,1.52696 l 2.647142,1.51766 v 12.69863 c 0,1.06944 0.866437,1.93101 1.935399,1.93101 1.069449,0 1.934851,-0.86294 1.934851,-1.93101 l -0.0043,-4.9751 3.501784,5.91405 c 0.546221,0.91952 1.732613,1.21797 2.651523,0.67178 0.914894,-0.54621 1.214713,-1.74044 0.668492,-2.65536 l -3.265813,-5.49357 h 7.314546 v 6.52944 c 0,1.06942 0.866437,1.93102 1.9354,1.93102 1.069449,0 1.934849,-0.86298 1.934849,-1.93102 v -6.52944 c 0.582891,0 0.634547,-0.38118 0.634547,-0.8218 v -4.86942 l -0.01752,-0.008 v -1.69285 l 0.0022,0.001 v -1.0282 l 4.485088,-0.008 1.643583,-3.53353 z"
         id="path6063" />
      <path
         style="color:#000000;font-style:normal;font-variant:normal;font-weight:normal;font-stretch:normal;font-size:medium;line-height:normal;font-family:sans-serif;font-variant-ligatures:normal;font-variant-position:normal;font-variant-caps:normal;font-variant-numeric:normal;font-variant-alternates:normal;font-feature-settings:normal;text-indent:0;text-align:start;text-decoration:none;text-decoration-line:none;text-decoration-style:solid;text-decoration-color:#000000;letter-spacing:normal;word-spacing:normal;text-transform:none;writing-mode:lr-tb;direction:ltr;text-orientation:mixed;dominant-baseline:auto;baseline-shift:baseline;text-anchor:start;white-space:normal;shape-padding:0;clip-rule:nonzero;display:inline;overflow:visible;visibility:visible;opacity:1;isolation:auto;mix-blend-mode:normal;color-interpolation:sRGB;color-interpolation-filters:linearRGB;solid-color:#000000;solid-opacity:1;vector-effect:none;fill:#000000;fill-opacity:0.30150757;fill-rule:nonzero;stroke:none;stroke-width:17.09480286;stroke-linecap:butt;stroke-linejoin:round;stroke-miterlimit:4;stroke-dasharray:none;stroke-dashoffset:0;stroke-opacity:1;color-rendering:auto;image-rendering:auto;shape-rendering:auto;text-rendering:auto;enable-background:accumulate"
         d="M 29.273438 -0.001953125 C 13.204213 -0.001953125 -0.0039024705 13.204209 -0.00390625 29.273438 L -0.00390625 121.07617 C -0.00390625 137.14536 13.204213 150.35156 29.273438 150.35156 L 36.167969 150.35156 L 67.798828 181.98438 A 8.5482557 8.5482557 0 0 0 79.882812 181.98438 L 111.51562 150.35156 L 121.08203 150.35156 C 137.15124 150.35156 150.35156 137.1454 150.35156 121.07617 L 150.35156 29.273438 C 150.35156 13.204209 137.15124 -0.001953125 121.08203 -0.001953125 L 29.273438 -0.001953125 z M 29.273438 17.09375 L 120.46484 17.09375 L 74.667969 62.693359 L 28.890625 17.113281 C 29.019001 17.109573 29.143903 17.09375 29.273438 17.09375 z M 133.21875 28.519531 C 133.23306 28.77039 133.25391 29.017977 133.25391 29.273438 L 133.25391 121.02539 L 86.785156 74.755859 L 133.21875 28.519531 z M 17.09375 29.490234 L 62.552734 74.755859 L 17.09375 120.01953 L 17.09375 29.490234 z M 74.667969 86.820312 L 121.29102 133.24609 C 121.22065 133.2472 121.15274 133.25586 121.08203 133.25586 L 107.97852 133.25586 A 8.5482557 8.5482557 0 0 0 101.93359 135.75781 L 73.845703 163.85352 L 45.75 135.75781 A 8.5482557 8.5482557 0 0 0 39.710938 133.25586 L 29.273438 133.25586 C 28.874287 133.25586 28.481408 133.23395 28.09375 133.19922 L 74.667969 86.820312 z "
         transform="matrix(0.26458333,0,0,0.26458333,11.22745,131.90293)"
         id="path5023" />
      <flowRoot
         transform="scale(0.26458333)"
         style="font-style:normal;font-weight:normal;font-size:40px;line-height:1.25;font-family:sans-serif;letter-spacing:0px;word-spacing:0px;fill:#000000;fill-opacity:1;stroke:none"
         id="flowRoot5155"
         xml:space="preserve"><flowRegion
           style="fill:#000000"
           id="flowRegion5157"><rect
             style="fill:#000000"
             y="151.76309"
             x="135.36044"
             height="41.416256"
             width="220.21326"
             id="rect5159" /></flowRegion><flowPara
           id="flowPara5161">Rastessssdare</flowPara></flowRoot>      <flowRoot
         transform="matrix(0.37266857,0,0,0.37266857,26.586875,8.0121712)"
         style="font-style:normal;font-weight:normal;font-size:40px;line-height:1.25;font-family:sans-serif;letter-spacing:0px;word-spacing:0px;fill:#000000;fill-opacity:1;stroke:#000000;stroke-opacity:1"
         id="flowRoot5185"
         xml:space="preserve"><flowRegion
           style="fill:#000000;stroke:#000000;stroke-opacity:1"
           id="flowRegion5187"><rect
             style="fill:#000000;stroke:#000000;stroke-opacity:1"
             y="16.402647"
             x="17.172594"
             height="48.368317"
             width="376.16443"
             id="rect5189" /></flowRegion><flowPara
           id="flowPara5191" /></flowRoot>      <g
         id="text5195"
         style="font-style:normal;font-weight:normal;font-size:3.52777767px;line-height:1.25;font-family:sans-serif;letter-spacing:0px;word-spacing:0px;fill:#000000;fill-opacity:1;stroke:none;stroke-width:0.26458332"
         aria-label="For use" />
    </g>
  </g>
</svg>
