<?xml version="1.0" encoding="UTF-8" standalone="no"?>
<!-- Created with Inkscape (http://www.inkscape.org/) -->

<svg
   xmlns:dc="http://purl.org/dc/elements/1.1/"
   xmlns:cc="http://creativecommons.org/ns#"
   xmlns:rdf="http://www.w3.org/1999/02/22-rdf-syntax-ns#"
   xmlns:svg="http://www.w3.org/2000/svg"
   xmlns="http://www.w3.org/2000/svg"
   xmlns:sodipodi="http://sodipodi.sourceforge.net/DTD/sodipodi-0.dtd"
   xmlns:inkscape="http://www.inkscape.org/namespaces/inkscape"
   width="39.78027mm"
   height="48.811691mm"
   viewBox="0 0 39.78027 48.811691"
   version="1.1"
   id="svg8"
   inkscape:version="0.92.3 (2405546, 2018-03-11)"
   sodipodi:docname="fishing-marker-charcoal.svg">
  <defs
     id="defs2" />
  <sodipodi:namedview
     id="base"
     pagecolor="#ffffff"
     bordercolor="#666666"
     borderopacity="1.0"
     inkscape:pageopacity="0.0"
     inkscape:pageshadow="2"
     inkscape:zoom="1.979899"
     inkscape:cx="-101.91356"
     inkscape:cy="128.18734"
     inkscape:document-units="mm"
     inkscape:current-layer="layer1-1"
     showgrid="false"
     inkscape:window-width="1920"
     inkscape:window-height="1178"
     inkscape:window-x="1912"
     inkscape:window-y="-8"
     inkscape:window-maximized="1"
     fit-margin-top="0"
     fit-margin-left="0"
     fit-margin-right="0"
     fit-margin-bottom="0" />
  <metadata
     id="metadata5">
    <rdf:RDF>
      <cc:Work
         rdf:about="">
        <dc:format>image/svg+xml</dc:format>
        <dc:type
           rdf:resource="http://purl.org/dc/dcmitype/StillImage" />
        <dc:title />
      </cc:Work>
    </rdf:RDF>
  </metadata>
  <g
     inkscape:label="Layer 1"
     inkscape:groupmode="layer"
     id="layer1"
     transform="translate(-10.58501,-120.28951)">
    <g
       id="layer1-1"
       inkscape:label="Layer 1"
       transform="translate(-0.64244,-11.613421)">
      <path
         inkscape:connector-curvature="0"
         id="rect4541"
         d="m 18.972456,134.16436 c -3.037814,0 -5.483579,2.44577 -5.483579,5.48358 v 24.29025 c 0,3.03781 2.445765,5.48358 5.483579,5.48358 h 2.761067 l 9.031529,9.03152 9.031521,-9.03152 h 3.466142 c 3.037805,0 5.483576,-2.44577 5.483576,-5.48358 v -24.29025 c 0,-3.03781 -2.445771,-5.48358 -5.483576,-5.48358 z"
         style="fill:#484545;fill-opacity:1;stroke:none;stroke-width:2.26142693;stroke-linecap:butt;stroke-linejoin:round;stroke-miterlimit:4;stroke-dasharray:none;stroke-opacity:1" />
      <path
         inkscape:connector-curvature="0"
         style="fill:none;stroke:#000000;stroke-width:4.52285385;stroke-linecap:butt;stroke-linejoin:round;stroke-miterlimit:4;stroke-dasharray:none;stroke-opacity:0.30150757"
         d="m 18.972456,134.16436 c -3.037814,0 -5.483579,2.44577 -5.483579,5.48358 v 24.29025 c 0,3.03781 2.445765,5.48358 5.483579,5.48358 h 2.761067 l 9.031529,9.03152 9.031521,-9.03152 h 3.466142 c 3.037805,0 5.483576,-2.44577 5.483576,-5.48358 v -24.29025 c 0,-3.03781 -2.445771,-5.48358 -5.483576,-5.48358 z"
         id="path5023" />
      <flowRoot
         transform="scale(0.26458333)"
         style="font-style:normal;font-weight:normal;font-size:40px;line-height:1.25;font-family:sans-serif;letter-spacing:0px;word-spacing:0px;fill:#000000;fill-opacity:1;stroke:none"
         id="flowRoot5155"
         xml:space="preserve"><flowRegion
           style="fill:#000000"
           id="flowRegion5157"><rect
             style="fill:#000000"
             y="151.76309"
             x="135.36044"
             height="41.416256"
             width="220.21326"
             id="rect5159" /></flowRegion><flowPara
           id="flowPara5161">Rastessssdare</flowPara></flowRoot>      <flowRoot
         transform="matrix(0.37266857,0,0,0.37266857,26.586875,8.0121712)"
         style="font-style:normal;font-weight:normal;font-size:40px;line-height:1.25;font-family:sans-serif;letter-spacing:0px;word-spacing:0px;fill:#000000;fill-opacity:1;stroke:#000000;stroke-opacity:1"
         id="flowRoot5185"
         xml:space="preserve"><flowRegion
           style="fill:#000000;stroke:#000000;stroke-opacity:1"
           id="flowRegion5187"><rect
             style="fill:#000000;stroke:#000000;stroke-opacity:1"
             y="16.402647"
             x="17.172594"
             height="48.368317"
             width="376.16443"
             id="rect5189" /></flowRegion><flowPara
           id="flowPara5191" /></flowRoot>      <g
         id="text5195"
         style="font-style:normal;font-weight:normal;font-size:3.52777767px;line-height:1.25;font-family:sans-serif;letter-spacing:0px;word-spacing:0px;fill:#000000;fill-opacity:1;stroke:none;stroke-width:0.26458332"
         aria-label="For use" />
      <g
         id="g2029"
         transform="matrix(0.72960706,0,0,-0.72960706,30.000236,143.05216)">
        <path
           d="M 0,0 C 2.73,2.598 5.67,4.961 8.86,6.701 8.471,6.9 8.08,7.098 7.681,7.271 4.641,5.548 1.851,3.288 -0.77,0.805 -1.04,0.939 -1.35,1.01 -1.67,0.987 -2.62,0.92 -3.33,0.1 -3.26,-0.846 c 0.01,-0.243 0.08,-0.479 0.191,-0.682 -3.471,-3.558 -6.66,-7.337 -9.71,-10.506 -0.961,-1.004 -2.561,-1.04 -3.561,-0.081 -1,0.957 -1.03,2.546 -0.08,3.549 0.24,0.251 0.521,0.44 0.82,0.569 l 0.09,-1.336 3.01,3.943 -3.33,-1.402 c -1.029,-0.437 -1.409,-0.991 -1.409,-0.991 -1.391,-1.454 -1.341,-3.761 0.119,-5.152 1.45,-1.391 3.761,-1.342 5.15,0.112 v 0.003 l 0.04,0.056 c 2.901,3.014 6.08,6.855 9.611,10.485 0.269,-0.129 0.569,-0.181 0.889,-0.159 0.941,0.065 1.66,0.887 1.59,1.832 C 0.15,-0.381 0.091,-0.19 0,0 m -0.97,-17.52 c -0.11,-0.814 -0.849,-1.389 -1.67,-1.282 -0.809,0.107 -1.38,0.853 -1.28,1.667 0.11,0.815 0.86,1.388 1.67,1.281 0.811,-0.105 1.391,-0.852 1.28,-1.666 m 21.72,3.407 c -2.41,0.713 -4.989,1.292 -7.71,1.649 -16.28,2.134 -24.72,-3.43 -24.72,-3.43 -0.09,-0.064 -0.15,-0.159 -0.16,-0.271 -0.019,-0.15 0.04,-0.289 0.151,-0.375 l 5.839,-3.788 c 0.241,-0.169 0.34,-0.356 0.3,-0.614 -0.04,-0.332 -0.349,-0.571 -0.679,-0.527 l -6.88,0.914 c -0.141,0.017 -0.25,-0.077 -0.271,-0.206 -0.01,-0.065 0,-0.117 0.04,-0.167 5.84,-6.102 14,-8.985 22.191,-10.166 6.629,2.956 11.359,9.384 11.899,16.981"
           style="fill:#ffffff;fill-opacity:1;fill-rule:nonzero;stroke:none"
           id="path2031"
           inkscape:connector-curvature="0" />
      </g>
    </g>
  </g>
</svg>
