<?xml version="1.0" encoding="UTF-8" standalone="no"?>
<!-- Created with Inkscape (http://www.inkscape.org/) -->

<svg
   xmlns:dc="http://purl.org/dc/elements/1.1/"
   xmlns:cc="http://creativecommons.org/ns#"
   xmlns:rdf="http://www.w3.org/1999/02/22-rdf-syntax-ns#"
   xmlns:svg="http://www.w3.org/2000/svg"
   xmlns="http://www.w3.org/2000/svg"
   xmlns:sodipodi="http://sodipodi.sourceforge.net/DTD/sodipodi-0.dtd"
   xmlns:inkscape="http://www.inkscape.org/namespaces/inkscape"
   width="39.78027mm"
   height="48.811691mm"
   viewBox="0 0 39.78027 48.811691"
   version="1.1"
   id="svg8"
   inkscape:version="0.92.3 (2405546, 2018-03-11)"
   sodipodi:docname="flag-marker-charcoal.svg">
  <defs
     id="defs2">
    <inkscape:path-effect
       effect="bspline"
       id="path-effect865"
       is_visible="true"
       weight="33.333333"
       steps="2"
       helper_size="0"
       apply_no_weight="true"
       apply_with_weight="true"
       only_selected="false" />
    <clipPath
       id="clip3">
      <path
         inkscape:connector-curvature="0"
         d="m 116,58 h 27 v 15 h -27 z m 0,0"
         id="path9067" />
    </clipPath>
    <clipPath
       id="clip4">
      <path
         inkscape:connector-curvature="0"
         d="m 116.81641,59.121094 v 21.085937 c 7.04687,-2.417968 11.67578,-0.359375 17.00781,2.507813 2.35937,1.222656 5.6875,1.222656 9.01953,0.265625 V 61.894531 c -3.33203,0.960938 -6.66016,0.960938 -9.01953,-0.25 -3.6875,-1.988281 -7.03516,-3.582031 -11.08203,-3.582031 -1.80469,0 -3.75,0.316406 -5.92578,1.058594"
         id="path9070" />
    </clipPath>
  </defs>
  <sodipodi:namedview
     id="base"
     pagecolor="#ffffff"
     bordercolor="#666666"
     borderopacity="1.0"
     inkscape:pageopacity="0.0"
     inkscape:pageshadow="2"
     inkscape:zoom="3.959798"
     inkscape:cx="17.277848"
     inkscape:cy="132.5093"
     inkscape:document-units="mm"
     inkscape:current-layer="layer1-1"
     showgrid="false"
     inkscape:window-width="1920"
     inkscape:window-height="1138"
     inkscape:window-x="-8"
     inkscape:window-y="-8"
     inkscape:window-maximized="1"
     fit-margin-top="0"
     fit-margin-left="0"
     fit-margin-right="0"
     fit-margin-bottom="0"
     inkscape:snap-others="true"
     inkscape:snap-nodes="true" />
  <metadata
     id="metadata5">
    <rdf:RDF>
      <cc:Work
         rdf:about="">
        <dc:format>image/svg+xml</dc:format>
        <dc:type
           rdf:resource="http://purl.org/dc/dcmitype/StillImage" />
        <dc:title />
      </cc:Work>
    </rdf:RDF>
  </metadata>
  <g
     inkscape:label="Layer 1"
     inkscape:groupmode="layer"
     id="layer1"
     transform="translate(-10.58501,-120.28951)">
    <g
       id="layer1-1"
       inkscape:label="Layer 1"
       transform="translate(-0.64244,-11.613421)">
      <path
         inkscape:connector-curvature="0"
         id="rect4541"
         d="m 18.972456,134.16436 c -3.037814,0 -5.483579,2.44577 -5.483579,5.48358 v 24.29025 c 0,3.03781 2.445765,5.48358 5.483579,5.48358 h 2.761067 l 9.031529,9.03152 9.031521,-9.03152 h 3.466142 c 3.037805,0 5.483576,-2.44577 5.483576,-5.48358 v -24.29025 c 0,-3.03781 -2.445771,-5.48358 -5.483576,-5.48358 z"
         style="fill:#218fa3;fill-opacity:1;stroke:none;stroke-width:2.26142693;stroke-linecap:butt;stroke-linejoin:round;stroke-miterlimit:4;stroke-dasharray:none;stroke-opacity:1" />
      <path
         inkscape:connector-curvature="0"
         style="fill:none;stroke:#000000;stroke-width:4.52285385;stroke-linecap:butt;stroke-linejoin:round;stroke-miterlimit:4;stroke-dasharray:none;stroke-opacity:0.30150757"
         d="m 18.972456,134.16436 c -3.037814,0 -5.483579,2.44577 -5.483579,5.48358 v 24.29025 c 0,3.03781 2.445765,5.48358 5.483579,5.48358 h 2.761067 l 9.031529,9.03152 9.031521,-9.03152 h 3.466142 c 3.037805,0 5.483576,-2.44577 5.483576,-5.48358 v -24.29025 c 0,-3.03781 -2.445771,-5.48358 -5.483576,-5.48358 z"
         id="path5023" />
      <flowRoot
         transform="scale(0.26458333)"
         style="font-style:normal;font-weight:normal;font-size:40px;line-height:1.25;font-family:sans-serif;letter-spacing:0px;word-spacing:0px;fill:#000000;fill-opacity:1;stroke:none"
         id="flowRoot5155"
         xml:space="preserve"><flowRegion
           style="fill:#000000"
           id="flowRegion5157"><rect
             style="fill:#000000"
             y="151.76309"
             x="135.36044"
             height="41.416256"
             width="220.21326"
             id="rect5159" /></flowRegion><flowPara
           id="flowPara5161">Rastessssdare</flowPara></flowRoot>      <flowRoot
         transform="matrix(0.37266857,0,0,0.37266857,26.586875,8.0121712)"
         style="font-style:normal;font-weight:normal;font-size:40px;line-height:1.25;font-family:sans-serif;letter-spacing:0px;word-spacing:0px;fill:#000000;fill-opacity:1;stroke:#000000;stroke-opacity:1"
         id="flowRoot5185"
         xml:space="preserve"><flowRegion
           style="fill:#000000;stroke:#000000;stroke-opacity:1"
           id="flowRegion5187"><rect
             style="fill:#000000;stroke:#000000;stroke-opacity:1"
             y="16.402647"
             x="17.172594"
             height="48.368317"
             width="376.16443"
             id="rect5189" /></flowRegion><flowPara
           id="flowPara5191" /></flowRoot>      <g
         id="text5195"
         style="font-style:normal;font-weight:normal;font-size:3.52777767px;line-height:1.25;font-family:sans-serif;letter-spacing:0px;word-spacing:0px;fill:#000000;fill-opacity:1;stroke:none;stroke-width:0.26458332"
         aria-label="For use" />
      <g
         transform="matrix(0.88900944,0,0,0.88459701,-84.020703,86.821106)"
         clip-path="url(#clip3)"
         id="g11959"
         style="clip-rule:nonzero">
        <g
           clip-path="url(#clip4)"
           id="g11957"
           style="clip-rule:nonzero">
          <path
             style="fill:#ffffff;fill-opacity:1;fill-rule:nonzero;stroke:none"
             d="m 128.17969,59.007813 c 5.85937,2.808593 7.19531,4.675781 14.1289,2.28125 v 10.695312 c -3.27734,0.945313 -6.55078,0.945313 -8.875,-0.25 -5.24609,-2.839844 -9.79687,-4.863281 -16.72656,-2.488281 V 58.5625 c 3.28906,-0.941406 9.13281,-0.757812 11.47266,0.445313"
             id="path11955"
             inkscape:connector-curvature="0" />
        </g>
      </g>
      <path
         style="fill:none;stroke:#ffffff;stroke-width:0.87575102;stroke-linecap:butt;stroke-linejoin:miter;stroke-miterlimit:10;stroke-opacity:1"
         d="m 34.87476,141.35167 c 2.087107,1.07118 5.031171,1.07118 7.978649,0.22117 v 18.65256 c -2.947478,0.84658 -5.891542,0.84658 -7.978649,-0.23495 -4.716687,-2.5363 -8.811408,-4.35733 -15.045048,-2.21839 V 139.1195 c 6.23364,-2.12512 10.328361,-0.31444 15.045048,2.23223 z m 0,0"
         id="path11961"
         inkscape:connector-curvature="0" />
      <path
         style="fill:#ffffff;fill-opacity:1;fill-rule:nonzero;stroke:none;stroke-width:0.884597"
         d="m 18.927841,165.61245 h 1.855567 v -27.80262 h -1.855567 z m 0,0"
         id="path11963"
         inkscape:connector-curvature="0" />
    </g>
  </g>
</svg>
