<?xml version="1.0" encoding="UTF-8" standalone="no"?>
<!-- Created with Inkscape (http://www.inkscape.org/) -->

<svg
   xmlns:dc="http://purl.org/dc/elements/1.1/"
   xmlns:cc="http://creativecommons.org/ns#"
   xmlns:rdf="http://www.w3.org/1999/02/22-rdf-syntax-ns#"
   xmlns:svg="http://www.w3.org/2000/svg"
   xmlns="http://www.w3.org/2000/svg"
   xmlns:sodipodi="http://sodipodi.sourceforge.net/DTD/sodipodi-0.dtd"
   xmlns:inkscape="http://www.inkscape.org/namespaces/inkscape"
   width="39.78027mm"
   height="48.811691mm"
   viewBox="0 0 39.78027 48.811691"
   version="1.1"
   id="svg8"
   inkscape:version="0.92.3 (2405546, 2018-03-11)"
   sodipodi:docname="library-marker-charcoal.svg">
  <defs
     id="defs2" />
  <sodipodi:namedview
     id="base"
     pagecolor="#ffffff"
     bordercolor="#666666"
     borderopacity="1.0"
     inkscape:pageopacity="0.0"
     inkscape:pageshadow="2"
     inkscape:zoom="1.979899"
     inkscape:cx="-101.91356"
     inkscape:cy="128.18734"
     inkscape:document-units="mm"
     inkscape:current-layer="layer1-1"
     showgrid="false"
     inkscape:window-width="1920"
     inkscape:window-height="1138"
     inkscape:window-x="-8"
     inkscape:window-y="-8"
     inkscape:window-maximized="1"
     fit-margin-top="0"
     fit-margin-left="0"
     fit-margin-right="0"
     fit-margin-bottom="0" />
  <metadata
     id="metadata5">
    <rdf:RDF>
      <cc:Work
         rdf:about="">
        <dc:format>image/svg+xml</dc:format>
        <dc:type
           rdf:resource="http://purl.org/dc/dcmitype/StillImage" />
        <dc:title />
      </cc:Work>
    </rdf:RDF>
  </metadata>
  <g
     inkscape:label="Layer 1"
     inkscape:groupmode="layer"
     id="layer1"
     transform="translate(-10.58501,-120.28951)">
    <g
       id="layer1-1"
       inkscape:label="Layer 1"
       transform="translate(-0.64244,-11.613421)">
      <path
         inkscape:connector-curvature="0"
         id="rect4541"
         d="m 18.972456,134.16436 c -3.037814,0 -5.483579,2.44577 -5.483579,5.48358 v 24.29025 c 0,3.03781 2.445765,5.48358 5.483579,5.48358 h 2.761067 l 9.031529,9.03152 9.031521,-9.03152 h 3.466142 c 3.037805,0 5.483576,-2.44577 5.483576,-5.48358 v -24.29025 c 0,-3.03781 -2.445771,-5.48358 -5.483576,-5.48358 z"
         style="fill:#484545;fill-opacity:1;stroke:none;stroke-width:2.26142693;stroke-linecap:butt;stroke-linejoin:round;stroke-miterlimit:4;stroke-dasharray:none;stroke-opacity:1" />
      <path
         inkscape:connector-curvature="0"
         style="fill:none;stroke:#000000;stroke-width:4.52285385;stroke-linecap:butt;stroke-linejoin:round;stroke-miterlimit:4;stroke-dasharray:none;stroke-opacity:0.30150757"
         d="m 18.972456,134.16436 c -3.037814,0 -5.483579,2.44577 -5.483579,5.48358 v 24.29025 c 0,3.03781 2.445765,5.48358 5.483579,5.48358 h 2.761067 l 9.031529,9.03152 9.031521,-9.03152 h 3.466142 c 3.037805,0 5.483576,-2.44577 5.483576,-5.48358 v -24.29025 c 0,-3.03781 -2.445771,-5.48358 -5.483576,-5.48358 z"
         id="path5023" />
      <flowRoot
         transform="scale(0.26458333)"
         style="font-style:normal;font-weight:normal;font-size:40px;line-height:1.25;font-family:sans-serif;letter-spacing:0px;word-spacing:0px;fill:#000000;fill-opacity:1;stroke:none"
         id="flowRoot5155"
         xml:space="preserve"><flowRegion
           style="fill:#000000"
           id="flowRegion5157"><rect
             style="fill:#000000"
             y="151.76309"
             x="135.36044"
             height="41.416256"
             width="220.21326"
             id="rect5159" /></flowRegion><flowPara
           id="flowPara5161">Rastessssdare</flowPara></flowRoot>      <flowRoot
         transform="matrix(0.37266857,0,0,0.37266857,26.586875,8.0121712)"
         style="font-style:normal;font-weight:normal;font-size:40px;line-height:1.25;font-family:sans-serif;letter-spacing:0px;word-spacing:0px;fill:#000000;fill-opacity:1;stroke:#000000;stroke-opacity:1"
         id="flowRoot5185"
         xml:space="preserve"><flowRegion
           style="fill:#000000;stroke:#000000;stroke-opacity:1"
           id="flowRegion5187"><rect
             style="fill:#000000;stroke:#000000;stroke-opacity:1"
             y="16.402647"
             x="17.172594"
             height="48.368317"
             width="376.16443"
             id="rect5189" /></flowRegion><flowPara
           id="flowPara5191" /></flowRoot>      <g
         id="text5195"
         style="font-style:normal;font-weight:normal;font-size:3.52777767px;line-height:1.25;font-family:sans-serif;letter-spacing:0px;word-spacing:0px;fill:#000000;fill-opacity:1;stroke:none;stroke-width:0.26458332"
         aria-label="For use" />
      <g
         transform="matrix(0.77302335,0,0,-0.77302335,30.391603,158.27772)"
         id="g2381">
        <path
           inkscape:connector-curvature="0"
           id="path2383"
           style="fill:#ffffff;fill-opacity:1;fill-rule:nonzero;stroke:none"
           d="m 0,0 v 9.998 11.035 c -0.538,0.688 -1.395,0.94 -2.341,0.94 -1.643,0 -3.473,-0.731 -4.405,-1.22 -1.012,-0.547 -3.052,-1.346 -4.88,-1.346 -0.862,0 -1.676,0.167 -2.34,0.587 V 9.998 -1.038 c 0.535,-0.685 1.391,-0.938 2.34,-0.938 1.629,0 3.474,0.73 4.405,1.219 1.016,0.547 3.054,1.347 4.88,1.347 C -1.476,0.59 -0.676,0.421 0,0 M 18.742,17.975 V 7.655 -2.86 -3.169 L 18.558,-3.405 C 17.612,-4.61 16.079,-5.145 14.472,-5.272 12.35,-5.439 10.01,-4.896 8.813,-4.345 7.762,-3.854 5.676,-3.139 3.801,-3.139 2.73,-3.139 1.764,-3.392 1.208,-4.08 l -0.7,-0.896 -0.703,0.896 c -0.535,0.688 -1.508,0.941 -2.576,0.941 -1.875,0 -3.958,-0.715 -5.014,-1.206 -1.196,-0.551 -3.534,-1.094 -5.662,-0.927 -1.619,0.127 -3.137,0.662 -4.08,1.867 l -0.2,0.236 v 0.309 10.515 10.32 h 1.789 V 7.655 -2.523 c 0.623,-0.616 1.593,-0.899 2.636,-0.982 1.815,-0.14 3.771,0.306 4.771,0.771 1.197,0.548 3.591,1.362 5.76,1.362 1.221,0 2.377,-0.253 3.279,-0.926 0.902,0.673 2.073,0.926 3.293,0.926 2.17,0 4.562,-0.814 5.761,-1.362 0.985,-0.465 2.953,-0.911 4.774,-0.771 1.043,0.083 2.011,0.366 2.63,0.982 V 7.655 17.975 Z M 14.998,-1.038 v 11.036 9.996 c -0.677,-0.42 -1.479,-0.587 -2.342,-0.587 -1.826,0 -3.87,0.799 -4.883,1.346 -0.927,0.489 -2.776,1.22 -4.41,1.22 -0.941,0 -1.798,-0.252 -2.335,-0.94 V 9.998 0 c 0.663,0.421 1.482,0.59 2.335,0.59 1.833,0 3.876,-0.8 4.889,-1.347 0.928,-0.489 2.764,-1.219 4.404,-1.219 0.947,0 1.807,0.253 2.342,0.938" />
      </g>
    </g>
  </g>
</svg>
