<?xml version="1.0" encoding="UTF-8" standalone="no"?>
<!-- Created with Inkscape (http://www.inkscape.org/) -->

<svg
   xmlns:dc="http://purl.org/dc/elements/1.1/"
   xmlns:cc="http://creativecommons.org/ns#"
   xmlns:rdf="http://www.w3.org/1999/02/22-rdf-syntax-ns#"
   xmlns:svg="http://www.w3.org/2000/svg"
   xmlns="http://www.w3.org/2000/svg"
   xmlns:sodipodi="http://sodipodi.sourceforge.net/DTD/sodipodi-0.dtd"
   xmlns:inkscape="http://www.inkscape.org/namespaces/inkscape"
   width="39.78027mm"
   height="48.811691mm"
   viewBox="0 0 39.78027 48.811691"
   version="1.1"
   id="svg8"
   inkscape:version="0.92.3 (2405546, 2018-03-11)"
   sodipodi:docname="playground-marker-watermelon.svg">
  <defs
     id="defs2" />
  <sodipodi:namedview
     id="base"
     pagecolor="#ffffff"
     bordercolor="#666666"
     borderopacity="1.0"
     inkscape:pageopacity="0.0"
     inkscape:pageshadow="2"
     inkscape:zoom="1.979899"
     inkscape:cx="-101.91356"
     inkscape:cy="128.18734"
     inkscape:document-units="mm"
     inkscape:current-layer="layer1-1"
     showgrid="false"
     inkscape:window-width="1920"
     inkscape:window-height="1178"
     inkscape:window-x="1912"
     inkscape:window-y="-8"
     inkscape:window-maximized="1"
     fit-margin-top="0"
     fit-margin-left="0"
     fit-margin-right="0"
     fit-margin-bottom="0" />
  <metadata
     id="metadata5">
    <rdf:RDF>
      <cc:Work
         rdf:about="">
        <dc:format>image/svg+xml</dc:format>
        <dc:type
           rdf:resource="http://purl.org/dc/dcmitype/StillImage" />
        <dc:title />
      </cc:Work>
    </rdf:RDF>
  </metadata>
  <g
     inkscape:label="Layer 1"
     inkscape:groupmode="layer"
     id="layer1"
     transform="translate(-10.58501,-120.28951)">
    <g
       id="layer1-1"
       inkscape:label="Layer 1"
       transform="translate(-0.64244,-11.613421)">
      <path
         inkscape:connector-curvature="0"
         id="rect4541"
         d="m 18.972456,134.16436 c -3.037814,0 -5.483579,2.44577 -5.483579,5.48358 v 24.29025 c 0,3.03781 2.445765,5.48358 5.483579,5.48358 h 2.761067 l 9.031529,9.03152 9.031521,-9.03152 h 3.466142 c 3.037805,0 5.483576,-2.44577 5.483576,-5.48358 v -24.29025 c 0,-3.03781 -2.445771,-5.48358 -5.483576,-5.48358 z"
         style="fill:#c4004b;fill-opacity:1;stroke:none;stroke-width:2.26142693;stroke-linecap:butt;stroke-linejoin:round;stroke-miterlimit:4;stroke-dasharray:none;stroke-opacity:1" />
      <path
         inkscape:connector-curvature="0"
         style="fill:none;stroke:#000000;stroke-width:4.52285385;stroke-linecap:butt;stroke-linejoin:round;stroke-miterlimit:4;stroke-dasharray:none;stroke-opacity:0.30150757"
         d="m 18.972456,134.16436 c -3.037814,0 -5.483579,2.44577 -5.483579,5.48358 v 24.29025 c 0,3.03781 2.445765,5.48358 5.483579,5.48358 h 2.761067 l 9.031529,9.03152 9.031521,-9.03152 h 3.466142 c 3.037805,0 5.483576,-2.44577 5.483576,-5.48358 v -24.29025 c 0,-3.03781 -2.445771,-5.48358 -5.483576,-5.48358 z"
         id="path5023" />
      <flowRoot
         transform="scale(0.26458333)"
         style="font-style:normal;font-weight:normal;font-size:40px;line-height:1.25;font-family:sans-serif;letter-spacing:0px;word-spacing:0px;fill:#000000;fill-opacity:1;stroke:none"
         id="flowRoot5155"
         xml:space="preserve"><flowRegion
           style="fill:#000000"
           id="flowRegion5157"><rect
             style="fill:#000000"
             y="151.76309"
             x="135.36044"
             height="41.416256"
             width="220.21326"
             id="rect5159" /></flowRegion><flowPara
           id="flowPara5161">Rastessssdare</flowPara></flowRoot>      <flowRoot
         transform="matrix(0.37266857,0,0,0.37266857,26.586875,8.0121712)"
         style="font-style:normal;font-weight:normal;font-size:40px;line-height:1.25;font-family:sans-serif;letter-spacing:0px;word-spacing:0px;fill:#000000;fill-opacity:1;stroke:#000000;stroke-opacity:1"
         id="flowRoot5185"
         xml:space="preserve"><flowRegion
           style="fill:#000000;stroke:#000000;stroke-opacity:1"
           id="flowRegion5187"><rect
             style="fill:#000000;stroke:#000000;stroke-opacity:1"
             y="16.402647"
             x="17.172594"
             height="48.368317"
             width="376.16443"
             id="rect5189" /></flowRegion><flowPara
           id="flowPara5191" /></flowRoot>      <g
         id="text5195"
         style="font-style:normal;font-weight:normal;font-size:3.52777767px;line-height:1.25;font-family:sans-serif;letter-spacing:0px;word-spacing:0px;fill:#000000;fill-opacity:1;stroke:none;stroke-width:0.26458332"
         aria-label="For use" />
      <path
         style="fill:#ffffff;fill-opacity:1;fill-rule:nonzero;stroke:none;stroke-width:0.72035915"
         d="m 33.760987,164.60052 c -0.135075,0.10126 -0.166011,0.28981 -0.06749,0.42488 l 0.551528,0.75412 c 0.09567,0.13783 0.287014,0.16601 0.42208,0.0676 l 4.026699,-2.92928 c 0.135076,-0.10127 0.163214,-0.28983 0.06469,-0.42489 l -0.548712,-0.75694 c -0.09567,-0.13231 -0.28702,-0.16315 -0.422087,-0.0647 z M 21.140634,150.62666 c -1.637693,0 -2.965855,1.32816 -2.965855,2.96867 0,1.63768 1.328162,2.96867 2.965855,2.96867 1.640503,0 2.968665,-1.33099 2.968665,-2.96867 0,-1.64051 -1.328162,-2.96867 -2.968665,-2.96867 m 7.515932,1.33661 0.844174,-0.61906 -7.499053,-13.37167 -0.953913,0.65002 z m 15.721275,6.74491 c 0,-1.12273 -0.908889,-2.03162 -2.031634,-2.03162 l -5.776941,-0.008 c -0.461486,0 -0.858246,0.19705 -1.209982,0.45024 l -4.471289,3.1403 -3.078412,-3.03618 4.282757,-3.12907 c 0.664085,-0.55717 0.751314,-1.54764 0.194171,-2.21173 -0.557154,-0.66688 -1.547649,-0.75132 -2.211734,-0.19419 l -6.691459,4.7611 c -0.967983,0.81605 -1.148072,2.66478 -0.334852,3.63557 l 4.837098,4.8371 c 0,0 1.314093,1.71366 3.483613,0.14907 l 6.156815,-4.33903 4.820219,0.008 c 1.122745,0 2.031635,-0.91169 2.031635,-2.03163 m -13.588336,-3.00244 1.601113,2.81672 0.841359,-0.62749 -1.595488,-2.80548 z m 0,0"
         id="path11523"
         inkscape:connector-curvature="0" />
    </g>
  </g>
</svg>
