<?xml version="1.0" encoding="UTF-8" standalone="no"?>
<!-- Created with Inkscape (http://www.inkscape.org/) -->

<svg
   xmlns:dc="http://purl.org/dc/elements/1.1/"
   xmlns:cc="http://creativecommons.org/ns#"
   xmlns:rdf="http://www.w3.org/1999/02/22-rdf-syntax-ns#"
   xmlns:svg="http://www.w3.org/2000/svg"
   xmlns="http://www.w3.org/2000/svg"
   xmlns:sodipodi="http://sodipodi.sourceforge.net/DTD/sodipodi-0.dtd"
   xmlns:inkscape="http://www.inkscape.org/namespaces/inkscape"
   width="39.78027mm"
   height="48.811691mm"
   viewBox="0 0 39.78027 48.811691"
   version="1.1"
   id="svg8"
   inkscape:version="0.92.3 (2405546, 2018-03-11)"
   sodipodi:docname="restroomambulantfemale-marker-charcoal.svg">
  <defs
     id="defs2" />
  <sodipodi:namedview
     id="base"
     pagecolor="#ffffff"
     bordercolor="#666666"
     borderopacity="1.0"
     inkscape:pageopacity="0.0"
     inkscape:pageshadow="2"
     inkscape:zoom="1.979899"
     inkscape:cx="-101.91356"
     inkscape:cy="135.76348"
     inkscape:document-units="mm"
     inkscape:current-layer="layer1-1"
     showgrid="false"
     inkscape:window-width="1920"
     inkscape:window-height="1178"
     inkscape:window-x="1912"
     inkscape:window-y="-8"
     inkscape:window-maximized="1"
     fit-margin-top="0"
     fit-margin-left="0"
     fit-margin-right="0"
     fit-margin-bottom="0" />
  <metadata
     id="metadata5">
    <rdf:RDF>
      <cc:Work
         rdf:about="">
        <dc:format>image/svg+xml</dc:format>
        <dc:type
           rdf:resource="http://purl.org/dc/dcmitype/StillImage" />
        <dc:title />
      </cc:Work>
    </rdf:RDF>
  </metadata>
  <g
     inkscape:label="Layer 1"
     inkscape:groupmode="layer"
     id="layer1"
     transform="translate(-10.58501,-120.28951)">
    <g
       id="layer1-1"
       inkscape:label="Layer 1"
       transform="translate(-0.64244,-11.613421)">
      <path
         inkscape:connector-curvature="0"
         id="rect4541"
         d="m 18.972456,134.16436 c -3.037814,0 -5.483579,2.44577 -5.483579,5.48358 v 24.29025 c 0,3.03781 2.445765,5.48358 5.483579,5.48358 h 2.761067 l 9.031529,9.03152 9.031521,-9.03152 h 3.466142 c 3.037805,0 5.483576,-2.44577 5.483576,-5.48358 v -24.29025 c 0,-3.03781 -2.445771,-5.48358 -5.483576,-5.48358 z"
         style="fill:#484545;fill-opacity:1;stroke:none;stroke-width:2.26142693;stroke-linecap:butt;stroke-linejoin:round;stroke-miterlimit:4;stroke-dasharray:none;stroke-opacity:1" />
      <path
         inkscape:connector-curvature="0"
         style="fill:none;stroke:#000000;stroke-width:4.52285385;stroke-linecap:butt;stroke-linejoin:round;stroke-miterlimit:4;stroke-dasharray:none;stroke-opacity:0.30150757"
         d="m 18.972456,134.16436 c -3.037814,0 -5.483579,2.44577 -5.483579,5.48358 v 24.29025 c 0,3.03781 2.445765,5.48358 5.483579,5.48358 h 2.761067 l 9.031529,9.03152 9.031521,-9.03152 h 3.466142 c 3.037805,0 5.483576,-2.44577 5.483576,-5.48358 v -24.29025 c 0,-3.03781 -2.445771,-5.48358 -5.483576,-5.48358 z"
         id="path5023" />
      <flowRoot
         transform="scale(0.26458333)"
         style="font-style:normal;font-weight:normal;font-size:40px;line-height:1.25;font-family:sans-serif;letter-spacing:0px;word-spacing:0px;fill:#000000;fill-opacity:1;stroke:none"
         id="flowRoot5155"
         xml:space="preserve"><flowRegion
           style="fill:#000000"
           id="flowRegion5157"><rect
             style="fill:#000000"
             y="151.76309"
             x="135.36044"
             height="41.416256"
             width="220.21326"
             id="rect5159" /></flowRegion><flowPara
           id="flowPara5161">Rastessssdare</flowPara></flowRoot>      <flowRoot
         transform="matrix(0.37266857,0,0,0.37266857,26.586875,8.0121712)"
         style="font-style:normal;font-weight:normal;font-size:40px;line-height:1.25;font-family:sans-serif;letter-spacing:0px;word-spacing:0px;fill:#000000;fill-opacity:1;stroke:#000000;stroke-opacity:1"
         id="flowRoot5185"
         xml:space="preserve"><flowRegion
           style="fill:#000000;stroke:#000000;stroke-opacity:1"
           id="flowRegion5187"><rect
             style="fill:#000000;stroke:#000000;stroke-opacity:1"
             y="16.402647"
             x="17.172594"
             height="48.368317"
             width="376.16443"
             id="rect5189" /></flowRegion><flowPara
           id="flowPara5191" /></flowRoot>      <g
         id="text5195"
         style="font-style:normal;font-weight:normal;font-size:3.52777767px;line-height:1.25;font-family:sans-serif;letter-spacing:0px;word-spacing:0px;fill:#000000;fill-opacity:1;stroke:none;stroke-width:0.26458332"
         aria-label="For use" />
      <g
         id="g1685"
         transform="matrix(0.75011194,0,0,-0.75011194,31.071926,141.78563)">
        <path
           d="M 0,0 C 1.778,0 3.216,1.44 3.216,3.212 3.216,4.994 1.778,6.434 0,6.434 -1.771,6.434 -3.219,4.994 -3.219,3.212 -3.219,1.44 -1.771,0 0,0 m 6.048,-11.855 -0.8,6.049 2.352,-2.448 z m -12.3,0.254 -1.446,3.347 2.188,2.276 z m 14.716,-2.866 2.559,5.94 c 0.245,0.564 0.123,1.218 -0.297,1.664 l -5.22,5.42 c -0.319,0.336 -0.751,0.481 -1.178,0.464 -0.056,0 -0.335,0.01 -0.396,0.01 v -0.02 c -0.248,0.046 -0.531,0.072 -0.878,0.072 l -6.134,0.011 c -0.46,0 -0.741,-0.027 -0.96,-0.083 -0.395,0 -1.037,-0.146 -1.34,-0.454 l -5.219,-5.42 c -0.427,-0.446 -0.547,-1.1 -0.302,-1.664 l 2.559,-5.94 c 0.246,-0.567 0.811,-0.916 1.402,-0.916 0.063,0 0.127,0.011 0.19,0.015 l -3.058,-16.437 c -0.052,-0.421 0.235,-0.794 0.647,-0.847 0.035,-0.008 0.31,-0.008 0.342,-0.008 0.373,0 0.454,0.271 0.505,0.652 l 4.328,26.086 0.778,10e-4 -2.311,-14.579 h 2.033 l 0.008,-11.236 c 0,-2.02 3.027,-2.02 3.027,0 L -0.46,-20.5 h 0.899 v -11.252 c 0,-1.998 3.02,-2.004 3.02,0 V -20.5 H 5.516 L 3.15,-5.912 3.972,-5.911 8.297,-32.008 c 0.05,-0.381 0.369,-0.652 0.743,-0.652 0.032,0 0.064,0 0.099,0.008 0.413,0.053 0.704,0.426 0.647,0.847 l -3.06,16.46 c 0.113,-0.024 0.229,-0.038 0.338,-0.038 0.589,0 1.157,0.349 1.4,0.916"
           style="fill:#ffffff;fill-opacity:1;fill-rule:nonzero;stroke:none"
           id="path1687"
           inkscape:connector-curvature="0" />
      </g>
    </g>
  </g>
</svg>
