<?xml version="1.0" encoding="UTF-8" standalone="no"?>
<!-- Created with Inkscape (http://www.inkscape.org/) -->

<svg
   xmlns:dc="http://purl.org/dc/elements/1.1/"
   xmlns:cc="http://creativecommons.org/ns#"
   xmlns:rdf="http://www.w3.org/1999/02/22-rdf-syntax-ns#"
   xmlns:svg="http://www.w3.org/2000/svg"
   xmlns="http://www.w3.org/2000/svg"
   xmlns:sodipodi="http://sodipodi.sourceforge.net/DTD/sodipodi-0.dtd"
   xmlns:inkscape="http://www.inkscape.org/namespaces/inkscape"
   width="39.78027mm"
   height="48.811691mm"
   viewBox="0 0 39.78027 48.811691"
   version="1.1"
   id="svg8"
   inkscape:version="0.92.3 (2405546, 2018-03-11)"
   sodipodi:docname="restroom-circle-watermelon.svg">
  <defs
     id="defs2" />
  <sodipodi:namedview
     id="base"
     pagecolor="#ffffff"
     bordercolor="#666666"
     borderopacity="1.0"
     inkscape:pageopacity="0.0"
     inkscape:pageshadow="2"
     inkscape:zoom="1.979899"
     inkscape:cx="68.549677"
     inkscape:cy="128.18734"
     inkscape:document-units="mm"
     inkscape:current-layer="layer1-1"
     showgrid="false"
     inkscape:window-width="1077"
     inkscape:window-height="951"
     inkscape:window-x="808"
     inkscape:window-y="69"
     inkscape:window-maximized="0"
     fit-margin-top="0"
     fit-margin-left="0"
     fit-margin-right="0"
     fit-margin-bottom="0" />
  <metadata
     id="metadata5">
    <rdf:RDF>
      <cc:Work
         rdf:about="">
        <dc:format>image/svg+xml</dc:format>
        <dc:type
           rdf:resource="http://purl.org/dc/dcmitype/StillImage" />
        <dc:title />
      </cc:Work>
    </rdf:RDF>
  </metadata>
  <g
     inkscape:label="Layer 1"
     inkscape:groupmode="layer"
     id="layer1"
     transform="translate(-10.58501,-120.28951)">
    <g
       id="layer1-1"
       inkscape:label="Layer 1"
       transform="translate(-0.64244,-11.613421)">
      <path
         inkscape:connector-curvature="0"
         id="rect4541"
         d="m 18.972456,134.16436 c -3.037814,0 -5.483579,2.44577 -5.483579,5.48358 v 24.29025 c 0,3.03781 2.445765,5.48358 5.483579,5.48358 h 2.761067 l 9.031529,9.03152 9.031521,-9.03152 h 3.466142 c 3.037805,0 5.483576,-2.44577 5.483576,-5.48358 v -24.29025 c 0,-3.03781 -2.445771,-5.48358 -5.483576,-5.48358 z"
         style="fill:#b5b0a9;fill-opacity:1;stroke:none;stroke-width:2.26142693;stroke-linecap:butt;stroke-linejoin:round;stroke-miterlimit:4;stroke-dasharray:none;stroke-opacity:1" />
      <path
         inkscape:connector-curvature="0"
         style="fill:none;stroke:#000000;stroke-width:4.52285385;stroke-linecap:butt;stroke-linejoin:round;stroke-miterlimit:4;stroke-dasharray:none;stroke-opacity:0.30150757"
         d="m 18.972456,134.16436 c -3.037814,0 -5.483579,2.44577 -5.483579,5.48358 v 24.29025 c 0,3.03781 2.445765,5.48358 5.483579,5.48358 h 2.761067 l 9.031529,9.03152 9.031521,-9.03152 h 3.466142 c 3.037805,0 5.483576,-2.44577 5.483576,-5.48358 v -24.29025 c 0,-3.03781 -2.445771,-5.48358 -5.483576,-5.48358 z"
         id="path5023" />
      <flowRoot
         transform="scale(0.26458333)"
         style="font-style:normal;font-weight:normal;font-size:40px;line-height:1.25;font-family:sans-serif;letter-spacing:0px;word-spacing:0px;fill:#000000;fill-opacity:1;stroke:none"
         id="flowRoot5155"
         xml:space="preserve"><flowRegion
           style="fill:#000000"
           id="flowRegion5157"><rect
             style="fill:#000000"
             y="151.76309"
             x="135.36044"
             height="41.416256"
             width="220.21326"
             id="rect5159" /></flowRegion><flowPara
           id="flowPara5161">Rastessssdare</flowPara></flowRoot>      <flowRoot
         transform="matrix(0.37266857,0,0,0.37266857,26.586875,8.0121712)"
         style="font-style:normal;font-weight:normal;font-size:40px;line-height:1.25;font-family:sans-serif;letter-spacing:0px;word-spacing:0px;fill:#000000;fill-opacity:1;stroke:#000000;stroke-opacity:1"
         id="flowRoot5185"
         xml:space="preserve"><flowRegion
           style="fill:#000000;stroke:#000000;stroke-opacity:1"
           id="flowRegion5187"><rect
             style="fill:#000000;stroke:#000000;stroke-opacity:1"
             y="16.402647"
             x="17.172594"
             height="48.368317"
             width="376.16443"
             id="rect5189" /></flowRegion><flowPara
           id="flowPara5191" /></flowRoot>      <g
         id="text5195"
         style="font-style:normal;font-weight:normal;font-size:3.52777767px;line-height:1.25;font-family:sans-serif;letter-spacing:0px;word-spacing:0px;fill:#000000;fill-opacity:1;stroke:none;stroke-width:0.26458332"
         aria-label="For use" />
      <rect
         style="fill:#ffffff;stroke-width:3.52647567"
         id="rect6415"
         height="23.260635"
         width="1.8478734"
         y="140.41951"
         x="30.665621" />
      <path
         style="fill:#ffffff;stroke-width:3.52647567"
         inkscape:connector-curvature="0"
         id="path6417"
         d="m 24.074631,144.6762 c 1.322445,0 2.271054,1.08893 2.468529,1.68205 l 1.618655,5.33202 c 0.324413,1.14225 -1.131982,1.61874 -1.48112,0.50382 l -1.456435,-4.89127 h -0.839292 l 2.440327,8.6928 h -2.327474 v 6.78495 c 0,1.15691 -1.738545,1.15024 -1.738545,0 v -6.82734 h -0.88514 v 6.81322 c 0,1.17023 -1.745608,1.17023 -1.745608,0 v -6.77083 h -2.334552 l 2.41916,-8.6928 h -0.80397 l -1.459954,4.90539 c -0.345606,1.06895 -1.816143,0.63444 -1.481121,-0.51448 l 1.622175,-5.33202 c 0.172736,-0.60645 0.941519,-1.68218 2.271056,-1.68218 h 3.713375 z" />
      <circle
         style="fill:#ffffff;stroke-width:3.52647567"
         id="circle6419"
         r="1.8901913"
         cy="142.38757"
         cx="22.314922" />
      <circle
         style="fill:#ffffff;stroke-width:3.52647567"
         id="circle6421"
         r="1.8866647"
         cy="142.35564"
         cx="40.670162" />
      <path
         style="fill:#ffffff;stroke-width:3.52647567"
         inkscape:connector-curvature="0"
         id="path6423"
         d="m 38.113527,162.56239 c 0,0.58512 0.472493,1.06095 1.057876,1.06095 0.585385,0 1.061475,-0.47583 1.061475,-1.06095 v -8.88672 h 0.888738 v 8.88672 c 0,0.58512 0.472493,1.06095 1.057877,1.06095 0.585384,0 1.05801,-0.47583 1.05801,-1.06095 l 0.007,-15.31901 h 0.881674 v 5.64951 c 0,1.13559 1.481121,1.13559 1.477588,0 v -5.77293 c 0,-1.25154 -0.973374,-2.47908 -2.440313,-2.47908 l -5.011123,-0.007 c -1.340065,0 -2.415642,1.09693 -2.415642,2.45095 v 5.80454 c 0,1.12091 1.488172,1.12091 1.488172,0 v -5.64939 h 0.895669 z" />
    </g>
  </g>
</svg>
