<?xml version="1.0" encoding="UTF-8" standalone="no"?>
<!-- Created with Inkscape (http://www.inkscape.org/) -->

<svg
   xmlns:dc="http://purl.org/dc/elements/1.1/"
   xmlns:cc="http://creativecommons.org/ns#"
   xmlns:rdf="http://www.w3.org/1999/02/22-rdf-syntax-ns#"
   xmlns:svg="http://www.w3.org/2000/svg"
   xmlns="http://www.w3.org/2000/svg"
   xmlns:sodipodi="http://sodipodi.sourceforge.net/DTD/sodipodi-0.dtd"
   xmlns:inkscape="http://www.inkscape.org/namespaces/inkscape"
   width="39.78027mm"
   height="48.811691mm"
   viewBox="0 0 39.78027 48.811691"
   version="1.1"
   id="svg8"
   inkscape:version="0.92.3 (2405546, 2018-03-11)"
   sodipodi:docname="wifi-marker-watermelon.svg">
  <defs
     id="defs2" />
  <sodipodi:namedview
     id="base"
     pagecolor="#ffffff"
     bordercolor="#666666"
     borderopacity="1.0"
     inkscape:pageopacity="0.0"
     inkscape:pageshadow="2"
     inkscape:zoom="1.979899"
     inkscape:cx="-101.91356"
     inkscape:cy="128.18734"
     inkscape:document-units="mm"
     inkscape:current-layer="layer1-1"
     showgrid="false"
     inkscape:window-width="1920"
     inkscape:window-height="1178"
     inkscape:window-x="1912"
     inkscape:window-y="-8"
     inkscape:window-maximized="1"
     fit-margin-top="0"
     fit-margin-left="0"
     fit-margin-right="0"
     fit-margin-bottom="0" />
  <metadata
     id="metadata5">
    <rdf:RDF>
      <cc:Work
         rdf:about="">
        <dc:format>image/svg+xml</dc:format>
        <dc:type
           rdf:resource="http://purl.org/dc/dcmitype/StillImage" />
        <dc:title />
      </cc:Work>
    </rdf:RDF>
  </metadata>
  <g
     inkscape:label="Layer 1"
     inkscape:groupmode="layer"
     id="layer1"
     transform="translate(-10.58501,-120.28951)">
    <g
       id="layer1-1"
       inkscape:label="Layer 1"
       transform="translate(-0.64244,-11.613421)">
      <path
         inkscape:connector-curvature="0"
         id="rect4541"
         d="m 18.972456,134.16436 c -3.037814,0 -5.483579,2.44577 -5.483579,5.48358 v 24.29025 c 0,3.03781 2.445765,5.48358 5.483579,5.48358 h 2.761067 l 9.031529,9.03152 9.031521,-9.03152 h 3.466142 c 3.037805,0 5.483576,-2.44577 5.483576,-5.48358 v -24.29025 c 0,-3.03781 -2.445771,-5.48358 -5.483576,-5.48358 z"
         style="fill:#c4004b;fill-opacity:1;stroke:none;stroke-width:2.26142693;stroke-linecap:butt;stroke-linejoin:round;stroke-miterlimit:4;stroke-dasharray:none;stroke-opacity:1" />
      <path
         inkscape:connector-curvature="0"
         style="fill:none;stroke:#000000;stroke-width:4.52285385;stroke-linecap:butt;stroke-linejoin:round;stroke-miterlimit:4;stroke-dasharray:none;stroke-opacity:0.30150757"
         d="m 18.972456,134.16436 c -3.037814,0 -5.483579,2.44577 -5.483579,5.48358 v 24.29025 c 0,3.03781 2.445765,5.48358 5.483579,5.48358 h 2.761067 l 9.031529,9.03152 9.031521,-9.03152 h 3.466142 c 3.037805,0 5.483576,-2.44577 5.483576,-5.48358 v -24.29025 c 0,-3.03781 -2.445771,-5.48358 -5.483576,-5.48358 z"
         id="path5023" />
      <flowRoot
         transform="scale(0.26458333)"
         style="font-style:normal;font-weight:normal;font-size:40px;line-height:1.25;font-family:sans-serif;letter-spacing:0px;word-spacing:0px;fill:#000000;fill-opacity:1;stroke:none"
         id="flowRoot5155"
         xml:space="preserve"><flowRegion
           style="fill:#000000"
           id="flowRegion5157"><rect
             style="fill:#000000"
             y="151.76309"
             x="135.36044"
             height="41.416256"
             width="220.21326"
             id="rect5159" /></flowRegion><flowPara
           id="flowPara5161">Rastessssdare</flowPara></flowRoot>      <flowRoot
         transform="matrix(0.37266857,0,0,0.37266857,26.586875,8.0121712)"
         style="font-style:normal;font-weight:normal;font-size:40px;line-height:1.25;font-family:sans-serif;letter-spacing:0px;word-spacing:0px;fill:#000000;fill-opacity:1;stroke:#000000;stroke-opacity:1"
         id="flowRoot5185"
         xml:space="preserve"><flowRegion
           style="fill:#000000;stroke:#000000;stroke-opacity:1"
           id="flowRegion5187"><rect
             style="fill:#000000;stroke:#000000;stroke-opacity:1"
             y="16.402647"
             x="17.172594"
             height="48.368317"
             width="376.16443"
             id="rect5189" /></flowRegion><flowPara
           id="flowPara5191" /></flowRoot>      <g
         id="text5195"
         style="font-style:normal;font-weight:normal;font-size:3.52777767px;line-height:1.25;font-family:sans-serif;letter-spacing:0px;word-spacing:0px;fill:#000000;fill-opacity:1;stroke:none;stroke-width:0.26458332"
         aria-label="For use" />
      <path
         style="fill:#ffffff;fill-opacity:1;fill-rule:nonzero;stroke:none;stroke-width:0.78860456"
         d="m 28.995136,161.43227 c 0,1.1213 0.908751,2.03004 2.030043,2.03004 1.1213,0 2.030041,-0.90874 2.030041,-2.03004 0,-1.12129 -0.908741,-2.02697 -2.030041,-2.02697 -1.121292,0 -2.030043,0.90568 -2.030043,2.02697 m -3.182137,-6.19179 c -0.579135,0.57915 -0.579135,1.51869 0,2.09782 0.289561,0.28958 0.668461,0.43435 1.047362,0.43435 0.381985,0 0.760885,-0.14486 1.050446,-0.43435 1.743556,-1.74046 4.577603,-1.74046 6.321162,0 0.579126,0.57914 1.518678,0.57914 2.097807,0 0.579136,-0.57913 0.579136,-1.51867 0,-2.09782 -2.901815,-2.89873 -7.618041,-2.89873 -10.516777,0 m -5.129013,-3.89989 c -0.579129,0.57914 -0.579129,1.51868 0,2.09781 0.579135,0.57913 1.518678,0.57913 2.097814,0 2.193306,-2.19022 5.101286,-3.39776 8.197175,-3.39776 3.095887,0 6.003868,1.20754 8.197134,3.39776 0.289575,0.28957 0.668501,0.43437 1.047426,0.43437 0.38192,0 0.760846,-0.14487 1.050421,-0.43437 0.576075,-0.57913 0.576075,-1.51867 0,-2.09781 -2.75089,-2.75396 -6.407404,-4.26955 -10.294981,-4.26955 -3.887578,0 -7.544114,1.51559 -10.294989,4.26955 m 24.021662,-4.2634 c -3.628844,-3.63188 -8.455963,-5.63112 -13.588052,-5.63112 -5.129013,0 -9.956134,1.99924 -13.588028,5.63112 -0.582211,0.57915 -0.582211,1.5187 0,2.09782 0.579135,0.58222 1.518678,0.58222 2.097814,0 3.071245,-3.07125 7.152888,-4.76244 11.490214,-4.76244 4.337325,0 8.418985,1.69119 11.490206,4.76244 0.292651,0.28958 0.671576,0.43743 1.047345,0.43743 0.378925,0 0.75785,-0.14775 1.050501,-0.43743 0.582147,-0.57912 0.582147,-1.51867 0,-2.09782"
         id="path10331"
         inkscape:connector-curvature="0" />
    </g>
  </g>
</svg>
