<svg id="Layer_1" data-name="Layer 1" xmlns="http://www.w3.org/2000/svg" viewBox="0 0 64 64"><defs><style>.cls-1{fill:#ed1c24;}.cls-2{fill:#231f20;}</style></defs><title>Artboard 1 copy 42</title><path class="cls-1" d="M32,2.17A29.83,29.83,0,1,0,61.82,32,29.86,29.86,0,0,0,32,2.17ZM51.4,47.39l-4.74-4.58a19.78,19.78,0,0,1-2,2.73,2.82,2.82,0,0,1-.91.69,2.57,2.57,0,0,1-.59.2L47.88,51A24.77,24.77,0,0,1,12.47,16.75l7.8,7.54h1.48l3-2.65L16,13.11A24.77,24.77,0,0,1,51.4,47.39Z"/><path class="cls-2" d="M48.14,32v-.31a18.82,18.82,0,0,0-4.67-12.18c-1.15-1.29-2.94.7-1.79,2a16.17,16.17,0,0,1,0,21c-1.15,1.29.64,3.28,1.79,2A19,19,0,0,0,48.14,32Zm-5.93-.32a12.65,12.65,0,0,0-3.09-8.08c-.69-.79-1.77.42-1.08,1.2a11.1,11.1,0,0,1,0,14.4c-.69.78.39,2,1.08,1.2a12.74,12.74,0,0,0,3.09-8.72ZM36,36.44a6.89,6.89,0,0,0,0-8.88c-.35-.39-.89.21-.55.6a5.93,5.93,0,0,1,0,7.68c-.34.39.2,1,.55.6Zm-3.25,9.29V18.27a.7.7,0,0,0-1.16-.47l-9.21,8.08h-.05V38.14h.05l9.21,8.06a.7.7,0,0,0,1.16-.47Zm-15.83-7.6h3.63V25.87H16.88a1,1,0,0,0-1,1V37.14a1,1,0,0,0,1,1Z"/></svg>