<svg id="Layer_1" data-name="Layer 1" xmlns="http://www.w3.org/2000/svg" viewBox="0 0 64 64"><defs><style>.cls-1{fill:#ed1c24;}.cls-2{fill:#231f20;}</style></defs><title>Artboard 1 copy 59</title><path class="cls-1" d="M22.92,18.46a.63.63,0,0,1,.25-.1"/><path class="cls-1" d="M32,2.21A29.81,29.81,0,1,0,61.78,32,29.85,29.85,0,0,0,32,2.21ZM51.37,47.4l-2.66-2.57v2.65H46.05v1.79L47.85,51A24.76,24.76,0,0,1,12.46,16.77l5.07,4.91.49.48a5.63,5.63,0,0,1,2.28-3.81l.15-.13.08,0L20.7,18l.23-.09-5-4.81A24.76,24.76,0,0,1,51.37,47.4Z"/><path class="cls-2" d="M46.1,23.08c-.34-3.22-1.08-4.16-3.36-5.23A25.22,25.22,0,0,0,32,15.68a25.23,25.23,0,0,0-10.78,2.17c-2.27,1.07-3,2-3.36,5.23-.31,2.88-1,10.15-1,10.15V47.09h2.66v2.42a2,2,0,0,0,4.08,0V47.09H40.41v2.42a2,2,0,0,0,4.08,0V47.09h2.66V33.23s-.74-7.27-1-10.15ZM25.7,18.41H38.31a.92.92,0,1,1,0,1.84H25.7a.92.92,0,0,1,0-1.84ZM21.49,42a2,2,0,1,1,2-2,2,2,0,0,1-2,2Zm21,0a2,2,0,1,1,2-2,2,2,0,0,1-2,2Zm.74-9H20.87a1.35,1.35,0,0,1-1.38-1.47c.24-3.23.42-5.05.82-8.29A1.45,1.45,0,0,1,21.9,22H42.07a1.47,1.47,0,0,1,1.58,1.24c.44,3.41.59,4.91.84,8.22A1.3,1.3,0,0,1,43.19,33Z"/></svg>