<svg id="Layer_1" data-name="Layer 1" xmlns="http://www.w3.org/2000/svg" viewBox="0 0 64 64"><defs><style>.cls-1{fill:#231f20;}.cls-2{fill:#fff200;}</style></defs><title>Artboard 1 copy 34</title><polygon class="cls-1" points="61.82 61.83 2.15 61.83 2.15 2.17 61.82 2.17 61.82 61.83 61.82 61.83"/><path class="cls-2" d="M18.53,7.23h2.24l2.39,9H21.27l-.42-1.91h-2.4L18,16.25H16.14l2.39-9Zm.24,5.62h1.76l-.87-4h0l-.87,4Z"/><path class="cls-2" d="M25.75,7.23v6.29c0,.9.21,1.56,1.06,1.56s1.06-.66,1.06-1.56V7.23h1.82v6.29a2.57,2.57,0,0,1-2.88,2.9c-1.48,0-2.88-.49-2.88-2.9V7.23Z"/><polygon class="cls-2" points="36.37 7.23 36.37 8.72 34.4 8.72 34.4 16.25 32.58 16.25 32.58 8.72 30.61 8.72 30.61 7.23 36.37 7.23 36.37 7.23"/><polygon class="cls-2" points="37.49 16.25 37.49 7.23 39.31 7.23 39.31 16.25 37.49 16.25 37.49 16.25"/><path class="cls-2" d="M43.8,7.06c2.72,0,3.06,1.94,3.06,4.68s-.34,4.68-3.06,4.68-3.07-1.94-3.07-4.68.34-4.68,3.07-4.68Zm0,8c1.07,0,1.25-.92,1.25-3.34S44.87,8.4,43.8,8.4s-1.25.93-1.25,3.34.17,3.34,1.25,3.34Z"/><polygon class="cls-2" points="50.29 7.23 52.48 13.41 52.51 13.41 52.51 7.23 54.18 7.23 54.18 16.25 52.11 16.25 49.88 9.94 49.86 9.94 49.86 16.25 48.19 16.25 48.19 7.23 50.29 7.23 50.29 7.23"/><polygon class="cls-2" points="56.58 56.53 7.32 56.53 7.32 21.53 56.58 21.53 56.58 56.53 56.58 56.53"/><polygon class="cls-1" points="15.82 24.35 17.3 24.35 18.14 29.98 18.16 29.98 19.05 24.35 20.53 24.35 21.42 29.98 21.44 29.98 22.29 24.35 23.76 24.35 22.37 31.96 20.66 31.96 19.8 26.44 19.78 26.44 18.93 31.96 17.21 31.96 15.82 24.35 15.82 24.35"/><path class="cls-1" d="M24.48,24.35h2.84a1.81,1.81,0,0,1,2,2c0,1-.41,1.7-1.27,1.88v0c1,.14,1.2.71,1.22,2.32,0,.8.06,1.22.35,1.37V32H28a1.46,1.46,0,0,1-.19-.8l0-1.46c0-.6-.29-1-.91-1H26V32H24.48V24.35ZM26,27.68h.64a1,1,0,0,0,1.15-1.15.94.94,0,0,0-1.07-1.05H26v2.2Z"/><path class="cls-1" d="M33,24.2c2.3,0,2.59,1.64,2.59,4s-.29,3.95-2.59,3.95-2.59-1.64-2.59-3.95.29-4,2.59-4ZM33,31c.91,0,1.06-.78,1.06-2.82s-.15-2.83-1.06-2.83-1.05.79-1.05,2.83S32,31,33,31Z"/><polygon class="cls-1" points="38.33 24.35 40.18 29.56 40.2 29.56 40.2 24.35 41.61 24.35 41.61 31.96 39.86 31.96 37.98 26.63 37.96 26.63 37.96 31.96 36.56 31.96 36.56 24.35 38.33 24.35 38.33 24.35"/><path class="cls-1" d="M46.17,26.61c0-.57-.26-1.28-.88-1.28s-1,.77-1,2.67.18,3,1.06,3a1.12,1.12,0,0,0,1-1.21V29h-1V27.86h2.48V32H46.59v-.7h0a1.7,1.7,0,0,1-1.6.85c-1.89,0-2.26-1.4-2.26-4s.6-3.87,2.56-3.87a2.1,2.1,0,0,1,2.37,2.41Z"/><polygon class="cls-1" points="22.15 35.01 23.62 35.01 24.46 40.64 24.48 40.64 25.38 35.01 26.85 35.01 27.75 40.64 27.77 40.64 28.61 35.01 30.08 35.01 28.7 42.63 26.98 42.63 26.13 37.1 26.1 37.1 25.25 42.63 23.53 42.63 22.15 35.01 22.15 35.01"/><path class="cls-1" d="M32.29,35h1.9l2,7.62H34.6L34.25,41h-2l-.36,1.61h-1.6l2-7.62Zm.2,4.75H34l-.74-3.43h0l-.74,3.43Z"/><polygon class="cls-1" points="38.07 35.01 39.07 37.95 39.09 37.95 40.16 35.01 41.83 35.01 39.85 39.63 39.85 42.63 38.31 42.63 38.31 39.63 36.34 35.01 38.07 35.01 38.07 35.01"/><path class="cls-1" d="M16.69,47.94c0-.57-.26-1.28-.88-1.28s-1,.77-1,2.67.17,3,1.05,3a1.11,1.11,0,0,0,.95-1.21v-.78h-1V49.19h2.48v4.1H17.11v-.7h0a1.7,1.7,0,0,1-1.6.85c-1.89,0-2.26-1.41-2.26-4s.6-3.87,2.56-3.87c1.69,0,2.37.86,2.37,2.41Z"/><path class="cls-1" d="M21.77,45.53c2.31,0,2.6,1.64,2.6,3.95s-.29,4-2.6,4-2.59-1.64-2.59-4,.29-3.95,2.59-3.95Zm0,6.78c.91,0,1.06-.78,1.06-2.83s-.15-2.82-1.06-2.82-1.05.79-1.05,2.82.15,2.83,1.05,2.83Z"/><path class="cls-1" d="M28.05,45.68h2.57c1.26,0,2.16.47,2.16,1.93a1.58,1.58,0,0,1-1.15,1.66v0A1.62,1.62,0,0,1,33,51.06a2.07,2.07,0,0,1-2.38,2.23H28.05V45.68Zm1.53,3.12H30c.84,0,1.22-.29,1.22-1s-.35-1-1.1-1h-.56v2Zm0,3.36h.6c.73,0,1.24-.26,1.24-1.15s-.51-1.14-1.18-1.14h-.66v2.29Z"/><path class="cls-1" d="M35.57,45.68h1.89l2,7.61h-1.6l-.35-1.61h-2l-.35,1.61h-1.6l2-7.61Zm.2,4.74h1.49L36.53,47h0l-.73,3.42Z"/><path class="cls-1" d="M43.37,48.25c0-1.11-.22-1.59-.92-1.59s-1,.78-1,2.93c0,2.31.32,2.72,1,2.72s1-.29,1-1.93H45c0,1.64-.4,3.06-2.42,3.06-2.3,0-2.59-1.64-2.59-4s.29-3.95,2.59-3.95,2.36,1.61,2.36,2.72Z"/><polygon class="cls-1" points="47.49 45.68 47.49 48.73 47.51 48.73 49.45 45.68 51.11 45.68 49.05 48.94 51.35 53.29 49.62 53.29 48.05 50.17 47.49 51.03 47.49 53.29 45.95 53.29 45.95 45.68 47.49 45.68 47.49 45.68"/><path class="cls-2" d="M13.59,10.28c0-1.32-.27-1.88-1.09-1.88s-1.13.92-1.13,3.47c0,2.72.37,3.21,1.16,3.21s1.13-.34,1.13-2.28h1.82c0,1.94-.48,3.62-2.87,3.62-2.72,0-3.06-1.94-3.06-4.68s.34-4.68,3.06-4.68S15.4,9,15.4,10.28Z"/></svg>