<svg id="Layer_1" data-name="Layer 1" xmlns="http://www.w3.org/2000/svg" viewBox="0 0 64 64"><defs><style>.cls-1{fill:#fff;}.cls-2{fill:#231f20;}</style></defs><title>Artboard 1 copy 21</title><path class="cls-1" d="M32,60.08A28.11,28.11,0,1,0,3.92,32,28.11,28.11,0,0,0,32,60.08Z"/><path class="cls-2" d="M32,2.17A29.83,29.83,0,1,0,61.82,32,29.86,29.86,0,0,0,32,2.17Zm0,55.56A25.73,25.73,0,1,1,57.72,32,25.76,25.76,0,0,1,32,57.73Z"/><path class="cls-2" d="M46.69,44.89l0-26.49L44,17.77l-1.54,7-2.59,1.09-2.3,6.43,2.18,4.91-.61,1.89-5.06,1.52-.3,2.24-8,2,.08,1.38H45.43a1.26,1.26,0,0,0,1.26-1.26ZM36.77,30.15a1.31,1.31,0,0,0-.72-1.72l-.07,0-4.07-1.2-3.06-3.68a3.11,3.11,0,0,0-1.79-1A3.06,3.06,0,0,0,24,24l-3.41,5.89a3.16,3.16,0,0,0-.28.9,4,4,0,0,0,0,.49l.11,7.46-2.57,5.55a1.63,1.63,0,0,0-.19.55,1.68,1.68,0,0,0,3.13,1.06l2.83-6.07a1.67,1.67,0,0,0,.13-.45l0-.23,0-4.61,4.35,1.9.7,4.51a1.68,1.68,0,0,0,3.3-.11,1.77,1.77,0,0,0,0-.46l-.85-5.44a1.77,1.77,0,0,0-.94-1.21L26.4,32l2.48-4.31,1.23,1.56a1.29,1.29,0,0,0,.47.33l4.69,1.37a1.31,1.31,0,0,0,1.5-.79Zm-5.68-10.4a2.51,2.51,0,1,0-2.51,2.5,2.51,2.51,0,0,0,2.51-2.5Zm-7.5,2.9a.72.72,0,0,0-.27-1L22.11,21a.73.73,0,0,0-1,.27l-3.74,6.46a.72.72,0,0,0,.27,1l1.22.7a.71.71,0,0,0,1-.26l3.75-6.46Z"/></svg>