<svg id="Layer_1" data-name="Layer 1" xmlns="http://www.w3.org/2000/svg" viewBox="0 0 64 64"><defs><style>.cls-1{fill:#231f20;}.cls-2{fill:#fff;}</style></defs><title>Artboard 1 copy 14</title><path class="cls-1" d="M32.1,60.06A28.11,28.11,0,1,0,4,32a28.1,28.1,0,0,0,28.1,28.1Z"/><path class="cls-2" d="M32,2.17A29.83,29.83,0,1,0,61.82,32,29.86,29.86,0,0,0,32,2.17Zm0,55.56A25.73,25.73,0,1,1,57.71,32,25.76,25.76,0,0,1,32,57.73Z"/><path class="cls-2" d="M46.06,29.55l-6-2.67-.07,0a1.47,1.47,0,0,0-1.25.1l-4,2.42-.93-5.74,5.68-3.32a1.14,1.14,0,0,0,.56-.71,1.16,1.16,0,0,0-.8-1.45,1.13,1.13,0,0,0-.93.12L30.26,23a2.51,2.51,0,0,0-.74.6l-3.41,4.59-4.71-.57a1.2,1.2,0,0,0-.68.65,1.18,1.18,0,0,0,.6,1.54,1.27,1.27,0,0,0,.77.06l4.79.54a1.17,1.17,0,0,0,.45-.32l1.94-2.43L30.2,33a2.55,2.55,0,0,0,1.38,1.74l4.17,1.25.6,4.79a1.54,1.54,0,0,0,1,1.22A1.5,1.5,0,0,0,39.29,41a1.45,1.45,0,0,0,.07-.74l-.75-5.86a1.43,1.43,0,0,0-.76-1l-2.59-.79,4.3-2.6,5.25,2.32.09,0a1.52,1.52,0,0,0,1.16-2.81ZM30.19,21.82a2.45,2.45,0,0,0-1.63-3.05,2.45,2.45,0,0,0-1.43,4.69,2.45,2.45,0,0,0,3.06-1.64ZM41.43,45.88,17.07,37.34l0,8.56,24.4,0Z"/></svg>