<svg id="Layer_1" data-name="Layer 1" xmlns="http://www.w3.org/2000/svg" viewBox="0 0 64 64"><defs><style>.cls-1{fill:#231f20;}.cls-2{fill:#ffd200;}</style></defs><title>Artboard 1 copy 35</title><path class="cls-1" d="M2.86,30.4a2.23,2.23,0,0,0,0,3.2L30.37,61.12a2.21,2.21,0,0,0,3.19,0L61.07,33.6a2.22,2.22,0,0,0,0-3.2L33.56,2.88a2.2,2.2,0,0,0-3.19,0L2.86,30.4Z"/><path class="cls-2" d="M5.05,30.4a2.23,2.23,0,0,0,0,3.2L30.37,58.93a2.21,2.21,0,0,0,3.19,0L58.88,33.6a2.22,2.22,0,0,0,0-3.2L33.56,5.07a2.2,2.2,0,0,0-3.19,0L5.05,30.4Z"/><path class="cls-1" d="M32,16.72c.4-.28,1.15,0,2.19,1.18s1.87,2.6,3,3.08a10.88,10.88,0,0,0,2.81.64A15.09,15.09,0,0,1,44.26,23c2.27,1,4.21,1.74,3.74,2.3a2.32,2.32,0,0,1-1.39.75c-.16,0-.4,0-.32.12s.21.1.4.07.4.08.34.21S46,27.55,43.39,28s-4.59.71-4.85,1-.25.15-.46.5a10.09,10.09,0,0,1-2.32,2.45c-1.11.74-1.81,1-2.17.72s-.12-.72.1-1.12a19.26,19.26,0,0,0,1.15-2.46,8.5,8.5,0,0,0,.28-1.29,4.9,4.9,0,0,0-.28.53c-.08.2-.19.43-.19.43a28.4,28.4,0,0,1-5.39-.37c-2.8-.49-3.76-.95-3.91-.9s-.87.38-.87.38-.68-.41-1.07-.61-.63-.34-.63-.34.38.06.41,0-.21-.32-.93-.47a1.24,1.24,0,0,0-1.32.31,7.21,7.21,0,0,1-1.3,1.35,9.73,9.73,0,0,1-1.88,1.26.27.27,0,0,1-.26-.46,3.09,3.09,0,0,0,1.14-2.53,7.19,7.19,0,0,0-1.85-3.86c-.78-.86-1-1.09-.87-1.32s1.53.53,2.27,1.09,2.06,2,3.24,1.92a33.76,33.76,0,0,0,5.69-1c2.93-.69,4.46-1.14,4.46-1.14l-.87-.15a4,4,0,0,0,1.48-1.34,3,3,0,0,0-.08-2.58c-.33-.55-.46-.94-.07-1.22"/><path class="cls-1" d="M40.66,38.19c-.34-.54-.33-.58-.59-.93-.45.53-.13,1.28-1.2,1.36-.27,0-.77.13-.8.28a1.68,1.68,0,0,0-.19.63,12.23,12.23,0,0,1-.27,1.95A4.73,4.73,0,0,1,36.31,43c-.13.07.22.32-.16.41-.25-.35,0-.6.2-.81a3.14,3.14,0,0,0,1-1.07A4.63,4.63,0,0,0,37.58,40c.06-.67.1-1.61,1.17-1.61.22,0,.78-.17.75-.37a1.85,1.85,0,0,1,.43-1,4.17,4.17,0,0,1-.55-1.12c-.06-.36.64-.34.83-.5a8.19,8.19,0,0,0,.83-.37c.5-.39.48-.65,1.22-.89.84,0,2.13-.53,2.26.94.09.23-.22.51.25,1.1a3.12,3.12,0,0,1,.85,1.6,2.24,2.24,0,0,1-.15.82c-.07.22-.17.49-.24.67-.24.9-.73.41-1.26,0a.94.94,0,0,0-.56-.28,2,2,0,0,0,.16,1.35A4.18,4.18,0,0,1,44.2,42a3.48,3.48,0,0,1-.43,1.16c-.06.22-.69.65-.53,1.15a2.07,2.07,0,0,0,1,1.34,4.64,4.64,0,0,0,.67.35l-.09.22a4.6,4.6,0,0,1-1.22-.75A2,2,0,0,1,43,44c0-.52.65-1,.78-1.46.47-.57-.08-1.39-.45-2.13A2.25,2.25,0,0,1,43.16,39l-.35,0a9,9,0,0,1-.13,1.68c.24.66-.14.79-.58,1.09,0,.33,0,.27,0,.46a2.61,2.61,0,0,1-.54,1.36l-.06-.05a3.77,3.77,0,0,1-.11,1.84c-.28.35.4.21.24.61-.28,0-.72-.3-.48-.66a4.37,4.37,0,0,0,.15-1.57,2.19,2.19,0,0,1-.12-1.71c.12-.21.41-.31.73-.45.28-.51.39-.58.53-.91-.07-.2-.54-.31-.38-.86-.18.21-.18.26-.68.41a2.41,2.41,0,0,1-1.11,2.12c-.14.25-.25.32-.75.64.26.35.92.21,1.29.62a1.75,1.75,0,0,1-.17,1.24l-.22-.11a1.45,1.45,0,0,0,.16-1l-.44-.21c-.27-.08-.63-.1-.83-.35-.26.2-.11.82-.12,1.12a3.91,3.91,0,0,1,0,.45,11.1,11.1,0,0,0,1,.76l-.14.2c-.49-.37-.61-.43-.92-.68a4.41,4.41,0,0,1-.78,1.67c-.07.27-1.05,1.06-.52,1.7a1.6,1.6,0,0,0,.23.3l-.17.17a1.41,1.41,0,0,1-.46-.9c0-.51.5-1,.81-1.56a3.47,3.47,0,0,0,.68-1.58c-.3-.24-.62-.81-.41-1.19a2.83,2.83,0,0,1-.56.09v-.09c-.14.18-.75.76-.72,1.32H37a2.35,2.35,0,0,1,.81-1.51,5.26,5.26,0,0,0,.78-1.15,11.31,11.31,0,0,1,.69-1.77,1.16,1.16,0,0,1,.57-1.81c.43-.12,1,0,.86-.52m1,3.78c-.51.22-.39.48-.36,1.08a1.6,1.6,0,0,0,.1.31,2.06,2.06,0,0,0,.39-.89,2.74,2.74,0,0,0,0-.58l-.17.08m.78-.8-.08.12.14-.21-.06.09M41,40.4c-.24.14-.91.4-.62.94a3.78,3.78,0,0,1,0,.68A2,2,0,0,0,41,40.93a4.25,4.25,0,0,0,.07-.48c0-.1,0-.11,0-.12L41,40.4m.06-.8c-.23.27-.73.31-.83.52a6,6,0,0,0-.38,1,3.46,3.46,0,0,1,.27.93c0-.19,0-.51,0-.59-.15-.74-.1-.84.59-1.22a3.4,3.4,0,0,1,.43-.2,6,6,0,0,1,.27-.89,3.48,3.48,0,0,1-.38.43m-2.32,4.11a.72.72,0,0,0,.21.82c0-.57-.05-.75,0-1.07-.11,0-.15.17-.19.25m.52-1.35c.14-.59.19-.76.33-1.21a3.64,3.64,0,0,0-.2-.39c-.49,1.16-.37,1.19-.72,1.88a4.94,4.94,0,0,1-.59.84c.73-.06.77-.43,1.15-.69a1.56,1.56,0,0,1,0-.43m.59-.15c.06-.21,0-.27-.12-.69a7.27,7.27,0,0,0-.26,1.07c.12-.1.33-.17.38-.38m-.12-1.78c-.05.08-.3,0-.09.28l.06.11a4,4,0,0,0,.15-.47l-.12.08m.55-.71a1.1,1.1,0,0,0,.5-1c-.29.27-1.34,0-1.5,1a1,1,0,0,0,.15.66,5.18,5.18,0,0,0,.85-.62M41,38.46a1.5,1.5,0,0,1-.11,1,7.29,7.29,0,0,0,.6-.73,2.51,2.51,0,0,0-.49-.25m1.2.63a.54.54,0,0,1-.4-.15A7.71,7.71,0,0,0,41.4,40c.55-.17.56-.49.76-.9m.38-.07a2.17,2.17,0,0,0-.25,1.19l.2.19A9.77,9.77,0,0,0,42.57,39h0"/><path class="cls-1" d="M25.93,39.88a3.06,3.06,0,0,0-.63-.75c-.25-.21-.44-.2-.57,0s0,.52,0,.78a.68.68,0,0,0,.06.35,1.4,1.4,0,0,0,.6.66,4,4,0,0,0-.94-.09c-.17,0-.52.34-1.05,1a3.91,3.91,0,0,0-.88,2.2,4.85,4.85,0,0,0,0,1.64,1.19,1.19,0,0,0,.33.56,2.12,2.12,0,0,0,.86.47c.31.08.62.15,1,.21a5.39,5.39,0,0,1,1,.24,3.28,3.28,0,0,1,.86.43l.21.19a4.88,4.88,0,0,0,.71.44,2.47,2.47,0,0,0,.91.28,3.19,3.19,0,0,1,.86.19l.23.14c.22.13.42,0,.59-.48a1.26,1.26,0,0,0,.57-.48,4.64,4.64,0,0,0,.5-.85,4.07,4.07,0,0,0,.31-.91,3.1,3.1,0,0,1,.16-.59,5,5,0,0,1,.75-.86,3.91,3.91,0,0,0,1.12-2,1.14,1.14,0,0,0-.11-.84,5.86,5.86,0,0,0-.53-.68,10.15,10.15,0,0,0-1.59-1.31,2.92,2.92,0,0,0-2-.8,2.61,2.61,0,0,0-.52.27.61.61,0,0,0-.26.33,1.59,1.59,0,0,0-.26-.89,1.37,1.37,0,0,0-.8-.56c-.36-.11-.53,0-.51.26a1.9,1.9,0,0,0,.09.61.51.51,0,0,1,0,.32A5.26,5.26,0,0,0,26.12,38a10.94,10.94,0,0,0-1.6-1.59,6.62,6.62,0,0,0-1.72-1.1,14.62,14.62,0,0,0-1.44-.55c-.08-.4-.29-.47-.61-.2l-.7-.1a2.63,2.63,0,0,0-.24-.31h-.23l-.22.19-1-.13c-.26.11.13.32,1.22.62a21.61,21.61,0,0,1,2.4.79,6.82,6.82,0,0,1,1.7,1.1,6.23,6.23,0,0,1,1.4,1.56,9.19,9.19,0,0,1,.82,1.58"/></svg>