<svg id="Layer_1" data-name="Layer 1" xmlns="http://www.w3.org/2000/svg" viewBox="0 0 64 64"><defs><style>.cls-1{fill:#231f20;}.cls-2{fill:#fff;}</style></defs><title>Artboard 1 copy 2</title><path class="cls-1" d="M31.87,58.28A26.33,26.33,0,1,0,5.54,32,26.32,26.32,0,0,0,31.87,58.28Z"/><path class="cls-2" d="M32,2.17A29.83,29.83,0,1,0,61.82,32,29.86,29.86,0,0,0,32,2.17Zm0,55.56A25.73,25.73,0,1,1,57.72,32,25.76,25.76,0,0,1,32,57.73Z"/><path class="cls-2" d="M50.36,36.72a.7.7,0,1,0-1.39,0v.8h-.75L47.84,39V39H38.19a1.77,1.77,0,0,0-1.56-1c-.3-.75-1-2.5-1.08-3a7,7,0,0,1,.35-2.37c.17-.51,2.18-1.22,3.81-1.82a4.08,4.08,0,0,0,2.06-1.3s1.31-1.69,2.07-2.78.33-1.63.33-1.63-1.09-2.8-1.42-3.94-1.57-.46-1.57-.46L13.61,31.1l6.91-.16s0-.27.38.76a4.07,4.07,0,0,0,.92,1.52s2.61,1.2,4.08,1.8,2.12.27,2.12.27A30.69,30.69,0,0,1,31.85,34a3.62,3.62,0,0,1,2.42,1.38c.19.5.85,2.13,1.21,3a1.75,1.75,0,0,0-.67,1.37,1.77,1.77,0,0,0,3.38.74h9.65L48.22,42H49v.81a.7.7,0,0,0,1.39,0l0-6.07ZM15.77,33.59,17,37a.69.69,0,0,0,.9.4.68.68,0,0,0,.4-.89L17.08,33.1a.7.7,0,1,0-1.31.49Zm1.93-.52a21.06,21.06,0,0,0,.86,2.65c.2.49.54.3.92.3s.38.74.76,1.38a.86.86,0,0,0,1,.39l5.08-1.87s-4.46-2.1-5.08-2.48-1-2-1-2H18.18s.11.93-.06,1c-.44.22-.42.34-.42.61Z"/></svg>