<svg id="Layer_1" data-name="Layer 1" xmlns="http://www.w3.org/2000/svg" viewBox="0 0 64 64"><defs><style>.cls-1{fill:#231f20;}.cls-2{fill:#fff;}</style></defs><title>Artboard 1 copy 25</title><path class="cls-1" d="M32,61.79A29.81,29.81,0,1,0,2.19,32,29.81,29.81,0,0,0,32,61.79Z"/><path class="cls-2" d="M45.1,51.82V40.53L44,43.06l-1.2.84-1.68.48-1.06.51L39,45.83l-1.12.87-1.27.56s-.6-.87-.75-.43-1,.56-1,.56L34,47.08s-.53-.44-.68-.13A6.33,6.33,0,0,1,32,48s-.6.63-1,.63-1.57.12-1.57.12l-1.12.32a2.56,2.56,0,0,0-1.72.18c-1,.44-1.28.94-1.5.94S23.47,50,23.47,50l-1.12.31L21,50.7l-.9.69-1.19.43Zm-2-24.07s-1.48,14.47-1.58,15.67c0,.13,0,.42.29.4s.38-.51.39-.6c.28-2.71,1.46-14.68,1.54-15.62a1.93,1.93,0,0,1-.64.15ZM44.71,26c-.1-.57-.49-.9-1.26-.95a6.16,6.16,0,0,0-1.55.08,3.75,3.75,0,0,1-4.32-1.64c-.66-1.05-1.43-2.05-2.2-3a2.79,2.79,0,0,0-3.57-.74,2.56,2.56,0,0,0-1.34,1.82c-.64,2.32-1.26,4.64-1.88,7a4.66,4.66,0,0,0-.21,1.09,4,4,0,0,0,1.37,3.17c1.29,1.12,2.53,2.3,3.88,3.36a3.67,3.67,0,0,1,1.74,3c0,1.34-.14,2.68-.16,4A7,7,0,0,0,35.4,45a1.93,1.93,0,0,0,1.91,1.27A1.86,1.86,0,0,0,39.09,45a3.11,3.11,0,0,0,.21-1c0-2.35,0-4.7-.07-7.05a2.73,2.73,0,0,0-.63-1.59q-1.87-2.2-4-4.28a1.29,1.29,0,0,1-.43-1.35c.31-1.26.63-2.51.89-3.78a.94.94,0,0,0-.22-.73c-.55-.62-1.16-1.2-1.74-1.8l.14-.12.4.37,3.47,3.49a1.79,1.79,0,0,0,1.39.63c1.26-.06,2.53-.07,3.79-.15a5.53,5.53,0,0,0,1.46-.26,1.3,1.3,0,0,0,.91-1.4Zm-.3-4.75c0-.15,0-.46-.29-.46s-.3.27-.32.42c-.15,1.17-.25,2.44-.38,3.65a1.32,1.32,0,0,1,.61.05c.13-1.27.29-2.48.38-3.66ZM39.2,15.6a3.47,3.47,0,1,0-6.91.4,3.47,3.47,0,1,0,6.91-.4ZM24,45.71a4.81,4.81,0,0,0-.41,1.4,1.86,1.86,0,0,0,.86,1.9,1.42,1.42,0,0,0,1.87-.12,5.29,5.29,0,0,0,.93-1.25c.89-1.71,1.66-3.5,2.63-5.15a18.4,18.4,0,0,0,2-6.62,1.24,1.24,0,0,0-.31-1.08c-1.94-1.74-2.9-2-3.26-3.57-.24,1.7-.52,3.21-.64,4.74A13.05,13.05,0,0,1,26,41.64c-.76,1.29-1.35,2.69-2,4.07ZM30,21c.23-1,0-1.38-.94-1.63-.74-.19-1.51-.3-2.26-.45a1.54,1.54,0,0,0-1.34,1c-.64,1.17-1.25,2.36-1.83,3.55-.19.41-.37.72-.89.71a.72.72,0,0,0-.55.35c-.52,1.24-1.07,2.47-1.49,3.76a1.8,1.8,0,0,0,1,2.2,21.08,21.08,0,0,0,3.94,1.18A1.61,1.61,0,0,0,27.2,31,4.65,4.65,0,0,0,28,28.91c.66-2.62,1.32-5.25,2-7.88Z"/></svg>