<svg id="Layer_1" data-name="Layer 1" xmlns="http://www.w3.org/2000/svg" viewBox="0 0 64 64"><defs><style>.cls-1{fill:#ed1c24;}.cls-2{fill:#231f20;}</style></defs><title>Artboard 1 copy 41</title><path class="cls-1" d="M31.94,2.16A29.84,29.84,0,1,0,61.78,32,29.86,29.86,0,0,0,31.94,2.16ZM51.36,47.39,32.13,28.78h-.39s0,.05,0,.09v3.86H29L47.84,51A24.77,24.77,0,0,1,12.42,16.74L24.94,28.85c0-.12,0-.39,0-.75a9.74,9.74,0,0,1,.42-2.87,6.2,6.2,0,0,1,1.07-2L15.92,13.1A24.78,24.78,0,0,1,51.36,47.39Z"/><path class="cls-2" d="M39.92,20.41V17.63h2.86a1.39,1.39,0,1,0,0-2.78h-9a1.39,1.39,0,0,0,0,2.78h2.86v2.78h-1a1.45,1.45,0,0,0-1.45,1.45v.58l-3.51,0c-5.38.05-4.68,6.37-4.68,6.37v2.78h4.47V28.85c.1-.94.38-1.13,1.2-1.17.31,0,2.89,0,2.89,0a3.9,3.9,0,0,0,7.44,0H46.9V22.44H42.38v-.58a1.45,1.45,0,0,0-1.45-1.45Z"/><path class="cls-2" d="M41.45,45.74l-10-4.53-.21-.07a2,2,0,0,0-.45-.06c-2.18,0-6.09-.42-6.37-.47l-.23,0-.27-.1-.39-.22h0c-1.24-1.13-4.53-4-4.53-4l-4.76,6.16L18.89,46h0c1.14.91,2.28,1.83,3.39,2.74l.36.22a1.67,1.67,0,0,0,.24.16.9.9,0,0,0,.28.11,2.07,2.07,0,0,0,.37.09l.25,0h8.63a1.17,1.17,0,0,0,1.15-1.16v-.28a1.16,1.16,0,0,0-.34-.82,1.32,1.32,0,0,0-.81-.34c-1.15-.12-4.25.14-4.9-.07a.56.56,0,0,1-.32-.23.54.54,0,0,1-.06-.4.61.61,0,0,1,.27-.34.89.89,0,0,1,.55-.17l3.9-.21a1.68,1.68,0,0,0,.88-.32l6.17,5.12a1,1,0,1,0,1.33-1.6l-1.93-1.6,2.18,1a1,1,0,0,0,1.38-.52l.11-.24a1,1,0,0,0-.52-1.39Z"/><path class="cls-2" d="M26.33,38a3.27,3.27,0,0,1,.34-1.3c.36-.65.73-1.3,1.1-2,.11-.21.23-.41.35-.61h.15l1.29,2.24a5.11,5.11,0,0,1,.42,1A3.29,3.29,0,0,1,29.87,39a1.84,1.84,0,0,1-2,1.07,1.9,1.9,0,0,1-1.54-1.64,3.93,3.93,0,0,1,0-.46Z"/><path class="cls-2" d="M29.92,14v0a2.88,2.88,0,0,0-.28.44,1.48,1.48,0,0,0-.18.6l.05.18A3,3,0,0,1,30.15,17a1.56,1.56,0,0,1-.18.75,2.38,2.38,0,0,0-.34,1.11,1.19,1.19,0,0,0,.17.62.52.52,0,0,1-.89.53,2.29,2.29,0,0,1-.31-1.15,3.46,3.46,0,0,1,.47-1.62.48.48,0,0,0,.05-.24,2,2,0,0,0-.46-1.11,1.39,1.39,0,0,1-.24-.78,2.49,2.49,0,0,1,.36-1.18,2.65,2.65,0,0,1,.34-.52.51.51,0,1,1,.8.64Z"/><path class="cls-2" d="M27.55,14.69l0,0a3.08,3.08,0,0,0-.27.44,1.52,1.52,0,0,0-.19.6l.05.18a3,3,0,0,1,.66,1.71,1.58,1.58,0,0,1-.19.75,2.38,2.38,0,0,0-.34,1.11,1.26,1.26,0,0,0,.17.62.53.53,0,0,1-.18.71.52.52,0,0,1-.7-.18,2.19,2.19,0,0,1-.31-1.15,3.47,3.47,0,0,1,.46-1.62.38.38,0,0,0,.06-.24,2.12,2.12,0,0,0-.46-1.11,1.32,1.32,0,0,1-.24-.78,2.49,2.49,0,0,1,.35-1.18,4.37,4.37,0,0,1,.34-.52.51.51,0,0,1,.72-.08.52.52,0,0,1,.09.72Z"/></svg>