<svg id="Layer_1" data-name="Layer 1" xmlns="http://www.w3.org/2000/svg" viewBox="0 0 64 64"><defs><style>.cls-1{fill:#ed1c24;}.cls-2{fill:#231f20;}</style></defs><title>Artboard 1 copy 55</title><path class="cls-1" d="M32,2.18A29.83,29.83,0,1,0,61.82,32,29.86,29.86,0,0,0,32,2.18ZM51.4,47.4l-4.28-4.15v1.16a3.52,3.52,0,0,1-2.42,3.53L47.87,51a24.77,24.77,0,0,1-35.4-34.26L19,23.1l.82-2.1a4.83,4.83,0,0,1,1.82-2.37L16,13.11A24.78,24.78,0,0,1,51.4,47.4Z"/><path class="cls-2" d="M45.71,28.53l-2.77-7.15a3.76,3.76,0,0,0-3.79-2.53H24.6a3.77,3.77,0,0,0-3.79,2.53L18,28.53a3.89,3.89,0,0,0-3,3.88V41.5H17.7v2.91a2.53,2.53,0,1,0,5.06,0V41.5H41v2.91a2.54,2.54,0,1,0,5.07,0V41.5h2.7V32.41a3.89,3.89,0,0,0-3-3.88ZM20.31,36a2.42,2.42,0,1,1,2.34-2.41A2.37,2.37,0,0,1,20.31,36Zm11.57-7.56h-11L23,22.83c.27-.8.66-1.37,1.57-1.37H39.18c.92,0,1.31.57,1.57,1.37l2.09,5.63ZM43.44,36a2.42,2.42,0,1,1,2.34-2.41A2.37,2.37,0,0,1,43.44,36Z"/></svg>