<svg id="Layer_1" data-name="Layer 1" xmlns="http://www.w3.org/2000/svg" viewBox="0 0 64 64"><defs><style>.cls-1{fill:#ed1c24;}.cls-2{fill:#231f20;}</style></defs><title>Artboard 1 copy 54</title><path class="cls-1" d="M26.18,23l-1-1H17.91l1,1Z"/><path class="cls-1" d="M32,2.18A29.83,29.83,0,1,0,61.82,32,29.87,29.87,0,0,0,32,2.18ZM51.4,47.39l-5.83-5.64H38.31L47.88,51A24.77,24.77,0,0,1,12.47,16.75l2.8,2.71a6.77,6.77,0,0,1,2.67-.54h4l-6-5.81A24.77,24.77,0,0,1,51.4,47.39Z"/><path class="cls-1" d="M31.79,28.78a2.45,2.45,0,0,1-2.46,2.44h-1.9l1.91,1.85c.13,0,.25,0,.38,0a7.17,7.17,0,0,1,7,5.61h5.65L31.79,28.41Z"/><path class="cls-2" d="M52.21,38.5h-6.7a5.39,5.39,0,0,0,1.85-4.06V25.49A5.4,5.4,0,0,0,42,20.1H17.85a5.39,5.39,0,0,0-5.39,5.39v9a5.39,5.39,0,0,0,5.39,5.39H24a5.62,5.62,0,0,1,11.24,0h17V38.5ZM30.15,28.41a.91.91,0,0,1-.9.9H18.33a.9.9,0,0,1-.89-.9V25.07a.89.89,0,0,1,.89-.9H29.25a.9.9,0,0,1,.9.9v3.34Zm12.83,0a.9.9,0,0,1-.89.9H36.61a.9.9,0,0,1-.9-.9V25.07a.9.9,0,0,1,.9-.9h5.48a.89.89,0,0,1,.89.9v3.34ZM25.58,39.83a4.06,4.06,0,1,0,4.06-4,4.06,4.06,0,0,0-4.06,4Zm2.54,0a1.52,1.52,0,1,1,1.52,1.52,1.51,1.51,0,0,1-1.52-1.52Z"/></svg>