<svg id="Layer_1" data-name="Layer 1" xmlns="http://www.w3.org/2000/svg" viewBox="0 0 64 64"><defs><style>.cls-1{fill:#231f20;}.cls-2{fill:#fff;}</style></defs><title>Artboard 1 copy</title><path class="cls-1" d="M32,61.83A29.83,29.83,0,1,0,2.15,32,29.83,29.83,0,0,0,32,61.83Z"/><path class="cls-2" d="M55.69,36.72a1,1,0,0,0-1.91,0v1.11h-1l-.53,2v.07H39a2.4,2.4,0,0,0-2.12-1.41,43.15,43.15,0,0,1-1.49-4.07,9.58,9.58,0,0,1,.48-3.26c.23-.7,3-1.67,5.22-2.49a5.63,5.63,0,0,0,2.84-1.79s1.79-2.32,2.83-3.81.45-2.23.45-2.23S45.7,17,45.25,15.41s-2.16-.64-2.16-.64L5.27,29l9.48-.22s0-.38.52,1a5.48,5.48,0,0,0,1.27,2.09s3.58,1.64,5.59,2.47,2.91.36,2.91.36a42.13,42.13,0,0,1,5.25-1.82c.75,0,3,.93,3.33,1.9.26.68,1.15,2.91,1.66,4.16A2.42,2.42,0,1,0,39,41.89H52.23l.52,2h1v1.11a1,1,0,0,0,1.91,0l0-8.33ZM8.24,32.43,9.94,37a1,1,0,1,0,1.79-.67L10,31.76a1,1,0,1,0-1.79.67Zm2.65-.71a28.84,28.84,0,0,0,1.17,3.64c.28.67.75.41,1.27.41s.52,1,1,1.89a1.17,1.17,0,0,0,1.42.53l7-2.57s-6.12-2.87-7-3.39-1.42-2.73-1.42-2.73H11.54s.15,1.27-.08,1.38c-.6.31-.57.47-.57.84Z"/></svg>