<svg id="Layer_1" data-name="Layer 1" xmlns="http://www.w3.org/2000/svg" viewBox="0 0 64 64"><defs><style>.cls-1{fill:#25408f;}.cls-2{fill:#fff;}</style></defs><title>Artboard 1 copy 32</title><polygon class="cls-1" points="2.15 2.17 2.15 61.83 61.82 61.83 61.82 2.17 2.15 2.17 2.15 2.17"/><path class="cls-2" d="M53.7,28.55H45.05V37.2H53.7V28.55Zm-8.65,0V19.9H36.4v8.65Zm-8.65,0H27.75V37.2H36.4V28.55Zm-8.65,0V19.9H19.1v8.65ZM19.1,37.2V28.55H10.45V37.2ZM10.45,19.9H19.1V11.25H10.45V19.9Zm17.3,0H36.4V11.25H27.75V19.9Zm17.3-8.65V19.9H53.7V11.25Z"/><path class="cls-2" d="M53.32,49.63c0-2.77-1.22-4.35-4-4.35A3.65,3.65,0,0,0,45.52,49c0,2.37,1.71,3.72,4,3.72a3.65,3.65,0,0,0,3.66-2.24H50.63a1.43,1.43,0,0,1-2.52-.88Zm-2.6-1.42H48.13A1.28,1.28,0,0,1,49.52,47a1.18,1.18,0,0,1,1.2,1.19ZM39.91,49c0-.86.15-1.76,1.2-1.76a1,1,0,0,1,.68.23.92.92,0,0,1,.3.67h2.58c-.16-2-1.75-2.88-3.62-2.88a3.74,3.74,0,1,0,0,7.47A4,4,0,0,0,43.52,52a3.36,3.36,0,0,0,1.23-2.24H42.16a1.09,1.09,0,0,1-1.06,1c-1,0-1.19-.89-1.19-1.76ZM36,44.68V42.77H33.3v1.91Zm0,.77H33.29v7.12H36V45.45Zm-4.27,7.11V42.77H29v9.79ZM27.85,49A3.55,3.55,0,0,0,24,45.26a3.74,3.74,0,1,0,0,7.47A3.56,3.56,0,0,0,27.85,49Zm-2.72,0c0,.75-.14,1.77-1.16,1.76s-1.17-1-1.17-1.76.14-1.76,1.17-1.76,1.16,1,1.16,1.76ZM19.47,46.1a3.32,3.32,0,0,0-3.59-3.35h-5v9.79h3v-3h1.78c2.25,0,3.84-1.1,3.84-3.48Zm-2.85.11c0,1-.82,1-1.61,1H13.85v-2h1.34c.74,0,1.43.06,1.43,1Z"/></svg>