<svg id="Layer_1" data-name="Layer 1" xmlns="http://www.w3.org/2000/svg" viewBox="0 0 64 64"><defs><style>.cls-1{fill:#ed1c24;}.cls-2{fill:#231f20;}</style></defs><title>Artboard 1 copy 43</title><path class="cls-1" d="M32,2.17A29.83,29.83,0,1,0,61.82,32,29.87,29.87,0,0,0,32,2.17ZM56,39.73h0l-.47.07a25.12,25.12,0,0,1-4.1,7.59l-3.25-3.15a6.23,6.23,0,0,1-1,.09,6.29,6.29,0,0,1-5.95-4.07H36.79L47.88,51A24.76,24.76,0,0,1,8.67,40.4L8,40.31H8A2.75,2.75,0,0,1,5.62,37.6c0-.05,0-.1,0-.15V36.28a2.72,2.72,0,0,1,.72-1.48l.13-2.28h0l0-.92h0l0-.65v0l0-.37h0a2.72,2.72,0,0,1,.83-1.82,24.56,24.56,0,0,1,5-12l7.39,7.15a45.11,45.11,0,0,1,4.06-3.1l-8-7.69A24.77,24.77,0,0,1,56,25.88a2.73,2.73,0,0,1,1.56,2.47h0l.06,2.49h0l.08,3.48a2.76,2.76,0,0,1,.62,1.38v1.17h0c0,.05,0,.1,0,.15A2.73,2.73,0,0,1,56,39.73Z"/><path class="cls-2" d="M34.27,30.25v3.17a1.35,1.35,0,0,0,1-1.44A1.75,1.75,0,0,0,34.27,30.25Z"/><path class="cls-2" d="M32.25,25.65a1.62,1.62,0,0,0,.88,1.5V24.29A1.27,1.27,0,0,0,32.25,25.65Z"/><path class="cls-2" d="M56.15,35,56,28.38a1.16,1.16,0,0,0-.84-1.14l-.67-.2A17.19,17.19,0,0,0,51,26.27a55.29,55.29,0,0,0-4.55-4,13,13,0,0,0-4.24-2.4C39.26,19,32,19.29,29.21,20A14.12,14.12,0,0,0,25,22a47.14,47.14,0,0,0-5.43,4.28,35,35,0,0,0-5.91,1.33,20.49,20.49,0,0,0-4.9,2.18,1.18,1.18,0,0,0-.59.94l-.28,4.87a1.18,1.18,0,0,0-.68.91v1a1.15,1.15,0,0,0,1,1.3l3.86.23a4.81,4.81,0,0,0,1.29,2.36,4.86,4.86,0,0,0,6.85,0,4.78,4.78,0,0,0,1.33-2.6l1.78-.05h18.9a6.24,6.24,0,0,0,1.82,3c.75.8,4.63,1.88,6.89-.63a4.39,4.39,0,0,0,.9-2.65l3.93-.19a1.15,1.15,0,0,0,1-1.3v-1A1.16,1.16,0,0,0,56.15,35Zm-21.88.28v1.56H33.13V35.31c-3-.23-3.51-1.82-3.51-3.67v-.37h2.47c0,1,.09,1.91,1,2.15V29.8l-.9-.32A3.37,3.37,0,0,1,29.78,26a3.39,3.39,0,0,1,3.35-3.65V21.16h1.14v1.23c2.63.22,3.31,1.79,3.31,3.39V26H35.11c0-.92-.23-1.54-.84-1.74v3.38l1.42.57a3,3,0,0,1,2.2,3.24C37.89,34.06,36.64,35.15,34.27,35.31Z"/></svg>