<svg id="Layer_1" data-name="Layer 1" xmlns="http://www.w3.org/2000/svg" viewBox="0 0 64 64"><defs><style>.cls-1{fill:#ed1c24;}.cls-2{fill:#231f20;}</style></defs><title>Artboard 1 copy 60</title><path class="cls-1" d="M35.61,32.16l-.15.26.26-.15Z"/><path class="cls-1" d="M32,2.21A29.81,29.81,0,1,0,61.78,32,29.85,29.85,0,0,0,32,2.21ZM51.36,47.4,39.2,35.63q-1.26.67-2.79,1.44l-.14.07a3.71,3.71,0,0,1-2.25.49L47.85,51A24.75,24.75,0,0,1,12.46,16.78L25.24,29.14c.59-1.36,1.39-3.26,2-5.05L16,13.14A24.75,24.75,0,0,1,51.36,47.4Z"/><path class="cls-2" d="M37.7,10.52c-.72-1-2,.08-2.64.41-3.8,3.06-5.26,5.53-5.7,9.33-.19,2.54-2.61,8.06-3.63,10.41-2.15,4.7-2,10.73-3.47,19.07-.41,1.65-.69,3.41,1.14,3.86,2.08.51,2.37-3.3,2.46-3.87.64-3.94,2.11-9.92,2.76-13.86,1.07,4.7,1.85,11.1,3.18,15.58.3,1,1,3,2.43,2.39s1.5-1.76,1.14-3.16c-1-4-1.61-8.79-2.54-12.83a6,6,0,0,1,.33-3.38c1.35-2.65,2.24-4,3.76-6.57A20.26,20.26,0,0,1,39,31.57c-1.39.9-2.82,1.51-4.13,2.48-.35.26-1.48.91-1.27,2s1.82.33,2.18.15c2.2-1.11,5.12-2.56,6-3.51s-2.14-6.81-4.45-9l0,0L37,23.4s-4.66-2.51-4.54-4.29c.24-3.64,2.75-4.67,3.83-5.9.57-.63,2.08-1.64,1.37-2.69m3.25,8a3.32,3.32,0,1,0-3.32,3.32A3.31,3.31,0,0,0,41,18.55"/></svg>