<svg id="Layer_1" data-name="Layer 1" xmlns="http://www.w3.org/2000/svg" viewBox="0 0 64 64"><defs><style>.cls-1{fill:#fff;}.cls-2{fill:#231f20;}</style></defs><title>Artboard 1 copy 9</title><path class="cls-1" d="M31.83,60.08A28.11,28.11,0,1,0,3.73,32a28.11,28.11,0,0,0,28.1,28.1Z"/><path class="cls-1" d="M24,7.91l.15-.25-1.56-.93-1.19,2,1.81,1.08,1.19-2-.25-.15L24,7.91l-.25-.15L23,9l-.8-.48.58-1,1.06.63L24,7.91l-.25-.15.25.15Zm-.13-.52L24,7.14l-.66-.39-.25-.15L22.82,7l-.16.25.91.54.25.15.25-.41.15-.25L24,7.14l-.15.25-.25-.15-.1.16.25.15.15-.25-.65-.39-.16.25.26.15.1-.16L23.16,7,23,7.25l.66.39.15-.25-.25-.15.25.15ZM22.11,9.47,22,9.72a.5.5,0,0,0,.67-.16h0a.49.49,0,0,0-.17-.66h0l-.14.25.15-.25a.49.49,0,0,0-.66.17h0a.49.49,0,0,0,.17.66l.13-.22L22,9.72h0l.13-.22L22,9.72h0l.15-.25.16-.25h0l-.05.09.09,0,0-.14-.05.09.09,0-.13-.08.13.08h0l-.13-.08.13.08h0l-.09,0-.05.09.14,0-.09,0-.05.09h0l.13-.24-.14.24h0l.13-.24-.14.24.05-.09-.09-.06,0,.15.05-.09-.09-.06h0l.09.05.05-.08-.14,0,.09.05.05-.08-.15.25.16-.25-.16.25Zm.4.45.15-.25-1-.58h0l0-.12-.16-.1.16.1h0l-.16-.1.16.1h0l1.18-2L23,7l1,.59h0l0,.11h0l.25.15L24,7.69l-1.18,2-.12,0-.15.25-.15.26a.67.67,0,0,0,.92-.23l1.18-2h0l-.18-.1.17.1h0l-.18-.1.17.1a.66.66,0,0,0-.23-.92h0l-1-.58a.68.68,0,0,0-.93.23l-1.18,2,.25.15-.25-.16h0a.67.67,0,0,0,.23.92h0l1,.59.15-.26Z"/><path class="cls-2" d="M32,2.21A29.81,29.81,0,1,0,61.82,32,29.84,29.84,0,0,0,32,2.21Zm0,55.52A25.72,25.72,0,1,1,57.72,32,25.73,25.73,0,0,1,32,57.73Z"/><path class="cls-2" d="M26.7,33.14a.81.81,0,0,0-.3-.72L24,30.64,22.28,27a1.92,1.92,0,0,0-1.41-.94,2,2,0,0,0-1.27.33l-3.69,2.82a.84.84,0,0,0-.26.38l-.9,3.52,0,.11a.8.8,0,0,0,.72.89.83.83,0,0,0,.88-.64l.76-3,1.29-1L16.2,37.94l-2.42,3.81a1.28,1.28,0,0,0-.18.51,1.22,1.22,0,0,0,1.08,1.34,1.24,1.24,0,0,0,1.15-.55l2.61-4.11a3.06,3.06,0,0,0,.26-.51l.68-2.74,2.5,2.91.69,4.28a1.23,1.23,0,0,0,1.06,1A1.21,1.21,0,0,0,25,42.8c0-.09,0-.15,0-.25L24.25,38a1.28,1.28,0,0,0-.13-.39l-3.07-3.86L22,30.18l.64,1.36.2.25,2.64,1.93a1,1,0,0,0,.36.13.81.81,0,0,0,.9-.71Zm-3.56-9a1.81,1.81,0,1,0-2,1.6,1.81,1.81,0,0,0,2-1.6Z"/><path class="cls-2" d="M28.53,31.67l-1.38-.83-.93,1.55,1.38.83.93-1.55Zm-.14-.55-.69-.41-.1.17.68.41.11-.17Zm-1.79,2.2a.2.2,0,0,0,.27-.07L26.81,33a.22.22,0,0,0-.28.07.2.2,0,0,0,.07.28Zm.41.48-1-.62a.4.4,0,0,1-.14-.55l1.24-2.06a.4.4,0,0,1,.55-.14l1,.62a.41.41,0,0,1,.14.55l-1.24,2.06a.4.4,0,0,1-.55.14Z"/><path class="cls-2" d="M48.44,31.85l-1.8-4.63a2.42,2.42,0,0,0-2.45-1.64H34.76a2.43,2.43,0,0,0-2.46,1.64l-1.8,4.63a2.53,2.53,0,0,0-2,2.52v5.9h1.75v1.88a1.65,1.65,0,1,0,3.29,0V40.27H45.38v1.88a1.65,1.65,0,1,0,3.29,0V40.27h1.75v-5.9a2.53,2.53,0,0,0-2-2.52ZM32,36.71a1.57,1.57,0,1,1,1.51-1.56A1.54,1.54,0,0,1,32,36.71Zm7.5-4.9H32.37l1.35-3.65c.17-.52.42-.89,1-.89h9.47c.59,0,.85.37,1,.89l1.35,3.65ZM47,36.71a1.57,1.57,0,1,1,1.52-1.56A1.54,1.54,0,0,1,47,36.71Z"/><polygon class="cls-2" points="36.36 23.98 34.7 20.16 33.68 23.12 31.15 20.51 31.53 23.79 28.95 22.53 30.13 25.8 26.88 25.62 29.47 28.23 29.76 27.95 27.9 26.08 30.71 26.24 29.67 23.32 32.02 24.47 31.69 21.64 33.84 23.86 34.74 21.27 35.99 24.14 36.36 23.98 36.36 23.98"/></svg>