<svg id="Layer_1" data-name="Layer 1" xmlns="http://www.w3.org/2000/svg" viewBox="0 0 64 64"><defs><style>.cls-1{fill:#ed1c24;}.cls-2{fill:#231f20;}</style></defs><title>Artboard 1 copy 58</title><path class="cls-1" d="M32,2.21A29.81,29.81,0,1,0,61.78,32,29.85,29.85,0,0,0,32,2.21ZM51.37,47.4l-6.13-5.93v7L47.85,51A24.75,24.75,0,0,1,12.46,16.78l8,7.69a8.36,8.36,0,0,1,.29-.94.17.17,0,0,1,0-.05.64.64,0,0,0,0-.07A6.08,6.08,0,0,1,22.23,21a3.25,3.25,0,0,1,1.14-.69L16,13.14A24.76,24.76,0,0,1,51.37,47.4Z"/><path class="cls-2" d="M41.11,25.2a2.35,2.35,0,0,1-.44,1.2,2.5,2.5,0,0,1-.94.75,3.41,3.41,0,0,1-1.1.3l-5.38,1.07h0a3.4,3.4,0,0,1-.67.06,4.26,4.26,0,0,1-2.43-.76,16.92,16.92,0,0,0-1.79-1l-.73,3.23,2.2-.35a4.77,4.77,0,0,1,1.27-.17,3.52,3.52,0,0,1,1.48.3,2.66,2.66,0,0,1,1.35,1.34,3.71,3.71,0,0,1,.33,1.49c0,1,.05,2.29.05,3.54,0,2.44,0,4.8-.05,5.18,0,.07,0,.16,0,.29a3.49,3.49,0,0,1-.17,1.12,2.41,2.41,0,0,1-1,1.35,2.62,2.62,0,0,1-1.35.36h-.08a4.9,4.9,0,0,1-1.13-.13,2.19,2.19,0,0,1-1.13-.69,2.4,2.4,0,0,1-.45-.81,5.52,5.52,0,0,1-.21-1.29c-.06-1.08-.07-3.31-.07-4.91v-.46l-1.59.38L27,45.38l17.18,3.14V24.86Z"/><path class="cls-2" d="M40.07,25c0-2-2-1.44-2-1.44l-5.15,1S27,21.19,24.38,21.18c-2.31,0-3,3.78-3,3.78s-1.17,3.79-1.8,7-.09,3.87-.09,3.87l2.45,5L19.47,47s-1.16,2.53.3,3.31c1.86,1,2.44-.44,2.44-.44s1.61-4.23,2.88-6.85.36-4.07.36-4.07l-1.07-2.8,5.34-1.26s0,5,.06,6.65.67,1.89,1.9,1.92c1.78,0,1.53-2,1.53-2s.12-5.56,0-8.71c-.1-2.91-3.16-2-3.16-2l-3.79.61,1.36-6A24.6,24.6,0,0,1,30.73,27a3.12,3.12,0,0,0,2.31.54l5.44-1.08s1.59-.07,1.59-1.45Zm-11-5.75a3.25,3.25,0,1,0-4.59.18,3.25,3.25,0,0,0,4.59-.18Z"/></svg>