<svg id="Layer_1" data-name="Layer 1" xmlns="http://www.w3.org/2000/svg" viewBox="0 0 64 64"><defs><style>.cls-1{fill:#231f20;}.cls-2{fill:#ed1c24;}</style></defs><title>Artboard 1 copy 50</title><path class="cls-1" d="M27,37.74c-.2.16-.4.35-.6.54a7.83,7.83,0,0,1-2.67,1.83V50.65A2.28,2.28,0,0,0,25.87,53,2.28,2.28,0,0,0,28,50.65V37.23A2.92,2.92,0,0,0,27,37.74Z"/><path class="cls-1" d="M29.87,36.86a5.71,5.71,0,0,1-.73.13l-.32.06v13.6a2.14,2.14,0,1,0,4.26,0V34.1A4.44,4.44,0,0,1,29.87,36.86Z"/><path class="cls-1" d="M39.07,27.88a1.71,1.71,0,1,0,1.71,1.71,1.71,1.71,0,0,0-1.71-1.71Z"/><path class="cls-2" d="M34.1,32.43c0,.13,0,.25,0,.39v4.89l4.09,3.95A20.94,20.94,0,0,1,42,41.35a21.39,21.39,0,0,1,3.47.27l-9.89-9.57Z"/><path class="cls-2" d="M32,2.17A29.83,29.83,0,1,0,61.82,32,29.86,29.86,0,0,0,32,2.17ZM51.4,47.39l-2.28-2.2A2.82,2.82,0,0,1,47,46.6l-.15,1.77a3.42,3.42,0,0,1-.3,1.34L47.88,51A24.77,24.77,0,0,1,12.47,16.75L18.93,23a5.53,5.53,0,0,1,.36-1.76,4.92,4.92,0,0,1,1.19-1.78,4.37,4.37,0,0,1,1.1-.92L16,13.11A24.77,24.77,0,0,1,51.4,47.39Z"/><path class="cls-1" d="M48.37,44.33c0-1.52-3.45-2.06-6.41-2.06s-6.42.54-6.42,2.06c0,.89.88,1.31,2.33,1.51l.22,2.47A2.11,2.11,0,0,0,40,50.53a2,2,0,0,0,1.16-.12,2.27,2.27,0,0,1,.89-.16,2.24,2.24,0,0,1,.89.16,2.1,2.1,0,0,0,.76.16,2.17,2.17,0,0,0,.41,0,2.1,2.1,0,0,0,1.85-2.19l.23-2.51C47.54,45.62,48.37,45.2,48.37,44.33Zm-3.24,4a1.32,1.32,0,0,1-1.19,1.44,1.29,1.29,0,0,1-.78-.08A3,3,0,0,0,42,49.46a3.05,3.05,0,0,0-1.16.21,1.26,1.26,0,0,1-.77.08,1.33,1.33,0,0,1-1.19-1.48l-.21-2.35c.94.07,2,.09,3.29.09h0c1.26,0,2.38,0,3.33-.1ZM42,45.22c-1.83,0-5.63,0-5.63-.89,0-.45,1.88-1.27,5.63-1.27s5.62.82,5.62,1.27C47.58,45.22,43.78,45.22,42,45.22Z"/><path class="cls-1" d="M45.81,44.18c0,.27-1.74.47-3.9.47s-3.9-.2-3.9-.47,1.74-.47,3.9-.47,3.9.21,3.9.47Z"/><path class="cls-1" d="M29.94,11.3a3.57,3.57,0,0,1,1.15.77,3.46,3.46,0,0,1,.77,1.09,3.59,3.59,0,0,1,.25,1.4,3.53,3.53,0,0,1-.25,1.34,3.74,3.74,0,0,1-.77,1.15,3.57,3.57,0,0,1-1.15.77,3.32,3.32,0,0,1-1.33.26,3.45,3.45,0,0,1-1.4-.26,3.37,3.37,0,0,1-1.08-.77,3.55,3.55,0,0,1-.76-1.15,3.36,3.36,0,0,1-.26-1.34,3.42,3.42,0,0,1,.26-1.4,3.28,3.28,0,0,1,.76-1.09,3.37,3.37,0,0,1,1.08-.77,3.45,3.45,0,0,1,1.4-.25,3.3,3.3,0,0,1,1.33.25"/><path class="cls-1" d="M49.29,26.6l-.78-2.7a.78.78,0,0,0-.75-.57l-.22,0-4.82,1.38a.8.8,0,0,0-.55.8l-10.54,3a3.63,3.63,0,0,0-3.33-2.34,5.37,5.37,0,0,0-1.42.21,15.38,15.38,0,0,1-2,.74l.77,3.14a2.14,2.14,0,0,1,.77-.42,2,2,0,1,1,1.13,3.94,2,2,0,0,1-1.62-.21,2.06,2.06,0,0,1-1.27,1l-.34.1a2,2,0,0,1-.54.07,1.94,1.94,0,0,1-1-.27,2,2,0,0,1-.93-1.23l-1.62-6.44a6.5,6.5,0,0,0-1.83.52c-3.5,1.52-4,3.37-2.81,7.48,1,3.52,2.18,5,4.84,5A10.65,10.65,0,0,0,22,39.77c2.62-.4,3.5-1.79,4.55-2.65a6.87,6.87,0,0,1,3.15-1c2.23-.64,3.14-2.14,2.88-4.44L37,30.38a2.31,2.31,0,0,1-.15-.79,2.23,2.23,0,0,1,4.42-.44l1.81-.52a.8.8,0,0,0,.66.36l.2,0,4.82-1.38A.8.8,0,0,0,49.29,26.6Z"/><path class="cls-1" d="M39.06,25.61l-2.13-4a4.93,4.93,0,0,0-1-1.41,5.15,5.15,0,0,0-1.41-1,4.08,4.08,0,0,0-1.71-.38H24.34a4.1,4.1,0,0,0-1.72.39,3.69,3.69,0,0,0-1.39,1,3.67,3.67,0,0,0-.95,1.4A4.47,4.47,0,0,0,20,23.15v.06a4,4,0,0,0,.24,1.15h0l2.19,8.86a1.45,1.45,0,0,0,1.8,1.05l.34-.1a1.55,1.55,0,0,0,1.08-1.85L23.73,24.7l.6-.11.39,1.81A6.52,6.52,0,0,0,26,26a6.43,6.43,0,0,1,.69-.27,5.84,5.84,0,0,1,1.64-.25A4.22,4.22,0,0,1,32,27.64l1.43-.42V23.27l2.21,3.32Z"/></svg>