<svg id="Layer_1" data-name="Layer 1" xmlns="http://www.w3.org/2000/svg" viewBox="0 0 64 64"><defs><style>.cls-1{fill:#231f20;}.cls-2{fill:#fff;}</style></defs><title>Artboard 1 copy 26</title><path class="cls-1" d="M31.43,60.11A28.11,28.11,0,1,0,3.33,32a28.12,28.12,0,0,0,28.1,28.11Z"/><path class="cls-2" d="M32,2.17A29.83,29.83,0,1,0,61.82,32,29.86,29.86,0,0,0,32,2.17Zm0,55.56A25.73,25.73,0,1,1,57.72,32,25.76,25.76,0,0,1,32,57.73Z"/><path class="cls-2" d="M43.8,49.9V39.72l-1,2.28-1.09.75-1.51.44-1,.46-1,.84-1,.79-1.15.51s-.54-.79-.68-.4-.94.51-.94.51l-.74-.28s-.48-.4-.61-.12a5.53,5.53,0,0,1-1.15,1s-.54.57-.88.57-1.41.11-1.41.11l-1,.28a2.32,2.32,0,0,0-1.55.17c-.87.39-1.14.84-1.35.84s-1.48-.16-1.48-.16l-1,.28-1.22.34-.81.62-1.08.39ZM42,28.19s-1.34,13.05-1.42,14.13c0,.12,0,.37.26.36s.34-.46.35-.54c.25-2.44,1.32-13.24,1.38-14.09a2.46,2.46,0,0,1-.57.14Zm1.41-1.61c-.09-.52-.44-.82-1.13-.86a6.51,6.51,0,0,0-1.4.07A3.37,3.37,0,0,1,37,24.31a32,32,0,0,0-2-2.73,2.51,2.51,0,0,0-3.22-.67,2.28,2.28,0,0,0-1.21,1.64c-.58,2.09-1.13,4.19-1.69,6.28a4.35,4.35,0,0,0-.2,1A3.58,3.58,0,0,0,30,32.68c1.16,1,2.28,2.07,3.5,3A3.29,3.29,0,0,1,35,38.46c-.05,1.21-.13,2.42-.14,3.63a6,6,0,0,0,.17,1.69,1.74,1.74,0,0,0,1.72,1.15,1.72,1.72,0,0,0,1.61-1.16,3,3,0,0,0,.19-.94c0-2.12,0-4.23-.07-6.35A2.51,2.51,0,0,0,37.94,35q-1.71-2-3.57-3.86A1.15,1.15,0,0,1,34,30c.28-1.13.56-2.27.8-3.41a.88.88,0,0,0-.21-.66c-.49-.56-1-1.08-1.57-1.62l.13-.11.36.33,3.13,3.15a1.61,1.61,0,0,0,1.26.57c1.14-.05,2.28-.07,3.42-.13a5.39,5.39,0,0,0,1.32-.24,1.17,1.17,0,0,0,.81-1.26Zm-.26-4.28c0-.14,0-.42-.27-.42s-.27.24-.29.38c-.13,1-.22,2.2-.34,3.3a1.17,1.17,0,0,1,.55,0c.12-1.14.26-2.23.35-3.29Zm-4.71-5.07a3.13,3.13,0,1,0-6.23.36,3.13,3.13,0,1,0,6.23-.36ZM24.73,44.38a5.16,5.16,0,0,0-.38,1.27,1.69,1.69,0,0,0,.79,1.71,1.26,1.26,0,0,0,1.68-.11,4.08,4.08,0,0,0,.83-1.13c.81-1.54,1.51-3.15,2.39-4.64a16.56,16.56,0,0,0,1.78-6,1,1,0,0,0-.28-1c-1.74-1.57-2.61-1.8-2.94-3.22-.21,1.53-.46,2.89-.57,4.27a11.54,11.54,0,0,1-1.51,5.12c-.68,1.16-1.22,2.43-1.79,3.67Zm5.4-22.25c.21-.86,0-1.25-.85-1.47-.67-.18-1.36-.28-2-.41a1.39,1.39,0,0,0-1.21.86c-.57,1.06-1.12,2.13-1.64,3.21-.18.36-.33.65-.81.64a.64.64,0,0,0-.49.31c-.48,1.12-1,2.23-1.34,3.39a1.6,1.6,0,0,0,.92,2,18.76,18.76,0,0,0,3.56,1.07,1.44,1.44,0,0,0,1.42-.57,4.09,4.09,0,0,0,.71-1.91q.9-3.54,1.77-7.1Z"/></svg>