<svg id="Layer_1" data-name="Layer 1" xmlns="http://www.w3.org/2000/svg" viewBox="0 0 64 64"><defs><style>.cls-1{fill:#231f20;}.cls-2{fill:#fff;}</style></defs><title>Artboard 1 copy 17</title><path class="cls-1" d="M31.75,60.06A28.11,28.11,0,1,0,3.64,32a28.1,28.1,0,0,0,28.11,28.1Z"/><path class="cls-2" d="M32,2.23A29.8,29.8,0,1,0,61.75,32,29.84,29.84,0,0,0,32,2.23Zm0,55.51A25.71,25.71,0,1,1,57.66,32,25.73,25.73,0,0,1,32,57.74Z"/><path class="cls-2" d="M44.35,45.23V43.15l-1.84-1.41L41.24,43v2.21Zm-4.57-5.4.45-3.61-3.52-.48-.36,1.93.93,1.8,2.5.36ZM38.9,34l1.3-2.16v-.05l-1.9-1.15-1.1.2L35.9,33v.05l1.9,1.16,1.1-.2Zm-7.75-4.5,3.93-.47-.46-5.2-5.46.51.39,3,1.6,2.13Zm-1.22-7.95,1.82-.84-.85-1.8-1.8.84.83,1.8Zm-.79,1.54-3-1-1,3,3,1,1-3Zm1.49,8.94h1.14l.83-.62-1.17-1.56-.8.6v1.58Zm2.55,4L23.64,24.53l-2.07-5.08-2-.61V43.93a1.26,1.26,0,0,0,1.25,1.26l17.16,0-1.41-5-3.39-4.11Z"/></svg>