<svg id="Layer_1" data-name="Layer 1" xmlns="http://www.w3.org/2000/svg" viewBox="0 0 64 64"><defs><style>.cls-1{fill:#fff;}.cls-2{fill:#231f20;}</style></defs><title>Artboard 1 copy 18</title><path class="cls-1" d="M32,60.08A28.11,28.11,0,1,0,3.94,32,28.1,28.1,0,0,0,32,60.08Z"/><path class="cls-2" d="M34.42,2.26a29.84,29.84,0,1,0,27.3,27.31A29.87,29.87,0,0,0,34.42,2.26Zm-.33,55.39A25.74,25.74,0,1,1,57.64,34.1,25.76,25.76,0,0,1,34.09,57.65Z"/><path class="cls-2" d="M56.31,44.72a5.7,5.7,0,0,1-2.41.53,5.46,5.46,0,0,1-4.83-2.76l0-.06,0,0,0,0,0,0,0,0,0,0,0,0-.05,0,0,0-.05,0,0,0-.06,0,0,0h-.05l0,0,0,0h-.59l0,0,0,0h-.05l0,0,0,0,0,0,0,0,0,0,0,0,0,0,0,0,0,0,0,0,0,.06,0,0,0,0h0a5.32,5.32,0,0,1-3.35,2.57h0c-5.93-10.47-1.34-22.39-.4-25.12a25.28,25.28,0,0,1,1.16-3.08C28.51,18.65,17.8,36.52,15.45,43.58c-.1-.1-.22-.19-.31-.3a6.12,6.12,0,0,1-.54-.79h0l0,0,0,0,0,0,0,0,0,0,0,0,0,0,0,0,0,0,0,0-.05,0,0,0-.05,0h0l-.05,0L14,42l0,0h-.6l0,0,0,0h0l0,0,0,0-.05,0,0,0,0,0,0,0,0,0,0,0,0,0,0,0,0,0,0,0,0,.06v0A5.47,5.47,0,0,1,8,45.25l-.29,0c.31.64.65,1.27,1,1.88a7.63,7.63,0,0,0,4.88-2.32l.14-.15.14.15a7.71,7.71,0,0,0,1.15,1l0,0,1.61.83a8,8,0,0,0,2.8.51A7.7,7.7,0,0,0,25,44.79l.14-.15.14.15a7.84,7.84,0,0,0,11.21,0l.14-.15.14.15a7.68,7.68,0,0,0,5.6,2.36,7.86,7.86,0,0,0,2.83-.52A7.47,7.47,0,0,0,48,44.79l.14-.15.14.15a7.68,7.68,0,0,0,5.6,2.36,8.12,8.12,0,0,0,1.21-.1c.44-.76.84-1.54,1.2-2.33Z"/></svg>