<svg id="Layer_1" data-name="Layer 1" xmlns="http://www.w3.org/2000/svg" viewBox="0 0 64 64"><defs><style>.cls-1{fill:#231f20;}.cls-2{fill:#ffd200;}</style></defs><title>Artboard 1 copy 36</title><path class="cls-1" d="M2.86,30.42a2.23,2.23,0,0,0,0,3.2L30.39,61.16a2.21,2.21,0,0,0,3.19,0L61.11,33.62a2.22,2.22,0,0,0,0-3.2L33.58,2.88a2.2,2.2,0,0,0-3.19,0L2.86,30.42Z"/><path class="cls-2" d="M5.06,30.42a2.22,2.22,0,0,0,0,3.2L30.39,59a2.21,2.21,0,0,0,3.19,0L58.92,33.62a2.23,2.23,0,0,0,0-3.2L33.58,5.07a2.21,2.21,0,0,0-3.19,0L5.06,30.42Z"/><path class="cls-2" d="M51.34,36.64h-.19a3.2,3.2,0,0,1-1-.13,4.67,4.67,0,0,0-2.27,0,3.95,3.95,0,0,1-2,0,4.63,4.63,0,0,0-2.26,0,3.95,3.95,0,0,1-2,0,4,4,0,0,0-1.13-.14,3.94,3.94,0,0,0-1.13.14,3.95,3.95,0,0,1-2,0,4.67,4.67,0,0,0-2.27,0,3.91,3.91,0,0,1-2,0,4.67,4.67,0,0,0-2.27,0,3.25,3.25,0,0,1-1,.13,3.33,3.33,0,0,1-1-.13,3.94,3.94,0,0,0-1.13-.14,4,4,0,0,0-1.13.14,3.95,3.95,0,0,1-2,0,4,4,0,0,0-1.13-.14,4,4,0,0,0-1.13.14,3.95,3.95,0,0,1-2,0,4,4,0,0,0-1.13-.14,4,4,0,0,0-1.13.14,3.95,3.95,0,0,1-2,0,4,4,0,0,0-1.13-.14,4.08,4.08,0,0,0-1.14.14,3.2,3.2,0,0,1-1,.13h-.07v.55h.07A3.91,3.91,0,0,0,13.83,37a3.95,3.95,0,0,1,2,0,4.37,4.37,0,0,0,2.27,0,3.54,3.54,0,0,1,1-.13,3.6,3.6,0,0,1,1,.13,4.37,4.37,0,0,0,2.27,0,3.91,3.91,0,0,1,2,0,4.37,4.37,0,0,0,2.27,0,3.95,3.95,0,0,1,2,0,3.91,3.91,0,0,0,1.13.15A4,4,0,0,0,30.92,37a3.95,3.95,0,0,1,2,0,3.91,3.91,0,0,0,1.13.15A3.86,3.86,0,0,0,35.19,37a3.95,3.95,0,0,1,2,0,4,4,0,0,0,1.13.15A3.86,3.86,0,0,0,39.46,37a3.68,3.68,0,0,1,1-.13,3.6,3.6,0,0,1,1,.13,4.37,4.37,0,0,0,2.27,0,3.91,3.91,0,0,1,2,0A4.37,4.37,0,0,0,48,37a3.95,3.95,0,0,1,2,0,3.91,3.91,0,0,0,1.13.15h.19v-.55Z"/><path class="cls-1" d="M19,36.64h0Z"/><path class="cls-1" d="M23.3,36.64h0Z"/><path class="cls-1" d="M27.57,36.64h0Z"/><path class="cls-1" d="M13.75,35a2,2,0,0,1,1,1.13h.08a4.33,4.33,0,0,1,1.18.15h0a2.94,2.94,0,0,0,.93.12,3,3,0,0,0,.94-.12h0a4.27,4.27,0,0,1,1.18-.15h0a4.36,4.36,0,0,1,1.19.15h0a3.7,3.7,0,0,0,1.87,0h0a4.27,4.27,0,0,1,1.18-.15h0a4.27,4.27,0,0,1,1.18.15h0a3.7,3.7,0,0,0,1.87,0h0a4.33,4.33,0,0,1,1.18-.15h0a4.21,4.21,0,0,1,1.18.15h0a3,3,0,0,0,.94.12,2.89,2.89,0,0,0,.93-.12h0a4.36,4.36,0,0,1,1.19-.15h0a4.36,4.36,0,0,1,1.19.15h0a3.74,3.74,0,0,0,1.88,0h0a4.21,4.21,0,0,1,1.18-.15h.08l3-3.74v-.11H34.87a1.08,1.08,0,0,0-.26-.51,6.67,6.67,0,0,1,5.51-.91c3.89.92,5.56,4.47,6,5.45a3,3,0,0,0,.81.09,2.94,2.94,0,0,0,.93-.12h0A4.36,4.36,0,0,1,49,36.1h0a4.21,4.21,0,0,1,1.18.15h0l.25.06c-.69-1.22-4.27-7.06-9.51-7.24a8.71,8.71,0,0,0-6.73,2.39,1.19,1.19,0,0,0-.46-.1,1.14,1.14,0,0,0-1.11.89H26.71l-.95,1.44H24.2v-2h-.61V28.91h1.73V26.58H19.37v5.06H19v.94H17.34l-.75-4.78h-2v.72h.34v4.06H12.36V34.7A2.42,2.42,0,0,1,13.75,35ZM20,28.91H23v2.73H20Z"/><path class="cls-1" d="M31.82,36.64h0Z"/><path class="cls-1" d="M51.34,36.73h-.19a2.54,2.54,0,0,1-1-.17,3.49,3.49,0,0,0-2.27,0,3.06,3.06,0,0,1-2,0,3.46,3.46,0,0,0-2.26,0,3.06,3.06,0,0,1-2,0,3.17,3.17,0,0,0-1.13-.19,3.08,3.08,0,0,0-1.13.19,3.06,3.06,0,0,1-2,0,3.49,3.49,0,0,0-2.27,0,3,3,0,0,1-2,0,3.49,3.49,0,0,0-2.27,0,2.57,2.57,0,0,1-1,.17,2.63,2.63,0,0,1-1-.17,3.08,3.08,0,0,0-1.13-.19,3.17,3.17,0,0,0-1.13.19,3.06,3.06,0,0,1-2,0,3.13,3.13,0,0,0-1.13-.19,3.17,3.17,0,0,0-1.13.19,3.06,3.06,0,0,1-2,0,3.17,3.17,0,0,0-1.13-.19,3.13,3.13,0,0,0-1.13.19,3.06,3.06,0,0,1-2,0,3.49,3.49,0,0,0-2.27,0,2.54,2.54,0,0,1-1,.17h-.07v.73h.07a3.13,3.13,0,0,0,1.13-.19,2.9,2.9,0,0,1,2,0,3.49,3.49,0,0,0,2.27,0,2.5,2.5,0,0,1,1-.18,2.54,2.54,0,0,1,1,.18,3.49,3.49,0,0,0,2.27,0,2.87,2.87,0,0,1,2,0,3.49,3.49,0,0,0,2.27,0,2.9,2.9,0,0,1,2,0,3.13,3.13,0,0,0,1.13.19,3.17,3.17,0,0,0,1.13-.19,2.9,2.9,0,0,1,2,0,3.13,3.13,0,0,0,1.13.19,3.08,3.08,0,0,0,1.13-.19,2.9,2.9,0,0,1,2,0,3.17,3.17,0,0,0,1.13.19,3.08,3.08,0,0,0,1.13-.19,2.6,2.6,0,0,1,1-.18,2.54,2.54,0,0,1,1,.18,3.49,3.49,0,0,0,2.27,0,2.87,2.87,0,0,1,2,0,3.49,3.49,0,0,0,2.27,0,2.9,2.9,0,0,1,2,0,3.13,3.13,0,0,0,1.13.19h.19v-.73Z"/></svg>