<svg id="Layer_1" data-name="Layer 1" xmlns="http://www.w3.org/2000/svg" xmlns:xlink="http://www.w3.org/1999/xlink" viewBox="0 0 64 64"><defs><style>.cls-1,.cls-5,.cls-7{fill:none;}.cls-2{clip-path:url(#clip-path);}.cls-3{fill:#ed1c24;}.cls-4{fill:#fff;}.cls-5,.cls-7{stroke:#fff;}.cls-5{stroke-linejoin:round;stroke-width:0.35px;}.cls-6{fill:#231f20;}.cls-7{stroke-miterlimit:10;stroke-width:1.39px;}</style><clipPath id="clip-path"><rect class="cls-1" x="2.15" y="2.21" width="59.63" height="59.63"/></clipPath></defs><title>Artboard 1 copy 64</title><g class="cls-2"><path class="cls-3" d="M51.37,47.4,16,13.14A24.76,24.76,0,0,1,51.37,47.4M7.2,32a24.63,24.63,0,0,1,5.26-15.24L47.85,51A24.75,24.75,0,0,1,7.2,32M32,2.21A29.81,29.81,0,1,0,61.78,32,29.85,29.85,0,0,0,32,2.21"/><path class="cls-4" d="M51.71,45.66l-.77,1.07c-.85,0-1.29-.45-2-.86a4.83,4.83,0,0,0-2.45-.7,4.64,4.64,0,0,0-2.45.52,4.86,4.86,0,0,1-2.38.65,4.67,4.67,0,0,1-2.38-.47,4.66,4.66,0,0,0-4.91,0,4.8,4.8,0,0,1-2.38.65,4.86,4.86,0,0,1-2.38-.65,4.64,4.64,0,0,0-4.9,0,4.68,4.68,0,0,1-4.76,0,4.64,4.64,0,0,0-4.9,0,4.82,4.82,0,0,1-2.28.63,29.65,29.65,0,0,0,2.93,3.6,4.5,4.5,0,0,1,4.25.29,4.68,4.68,0,0,0,4.76,0,4.69,4.69,0,0,1,4.9,0A4.86,4.86,0,0,0,32,51a4.8,4.8,0,0,0,2.38-.65,4.71,4.71,0,0,1,4.91,0,4.8,4.8,0,0,0,2.38.65A4.86,4.86,0,0,0,44,50.39a4.77,4.77,0,0,1,2.45-.69c.71,0-.29,1.09.34,1.39,1-1,4-4.22,4.89-5.43"/><path class="cls-5" d="M51.71,45.66l-.77,1.07c-.85,0-1.29-.45-2-.86a4.83,4.83,0,0,0-2.45-.7,4.64,4.64,0,0,0-2.45.52,4.86,4.86,0,0,1-2.38.65,4.67,4.67,0,0,1-2.38-.47,4.66,4.66,0,0,0-4.91,0,4.8,4.8,0,0,1-2.38.65,4.86,4.86,0,0,1-2.38-.65,4.64,4.64,0,0,0-4.9,0,4.68,4.68,0,0,1-4.76,0,4.64,4.64,0,0,0-4.9,0,4.82,4.82,0,0,1-2.28.63,29.65,29.65,0,0,0,2.93,3.6,4.5,4.5,0,0,1,4.25.29,4.68,4.68,0,0,0,4.76,0,4.69,4.69,0,0,1,4.9,0A4.86,4.86,0,0,0,32,51a4.8,4.8,0,0,0,2.38-.65,4.71,4.71,0,0,1,4.91,0,4.8,4.8,0,0,0,2.38.65A4.86,4.86,0,0,0,44,50.39a4.77,4.77,0,0,1,2.45-.69c.71,0-.29,1.09.34,1.39C47.83,50.06,50.83,46.87,51.71,45.66Z"/><path class="cls-4" d="M51.49,47.23a16.28,16.28,0,0,1-1.83,2.18,9,9,0,0,1-1.89,1.64l-1.59-.45,5-4.82Z"/><path class="cls-6" d="M50.2,47.05a5.31,5.31,0,0,1-2.15-.46,5.18,5.18,0,0,0-4.44,0,5.28,5.28,0,0,1-4.31,0,5.18,5.18,0,0,0-4.44,0,5.28,5.28,0,0,1-4.31,0,5.18,5.18,0,0,0-4.44,0,5.28,5.28,0,0,1-4.31,0,5.16,5.16,0,0,0-4.43,0,17.67,17.67,0,0,1-3.82.45,23.07,23.07,0,0,0,2.66,2.57,22,22,0,0,1,3.37-.29,5.16,5.16,0,0,1,2.22.5,5.28,5.28,0,0,0,4.31,0,5.18,5.18,0,0,1,4.44,0,5.28,5.28,0,0,0,4.31,0,5.18,5.18,0,0,1,4.44,0,5.28,5.28,0,0,0,4.31,0,5.16,5.16,0,0,1,2.22-.5,5.27,5.27,0,0,1,1.82.36,29,29,0,0,0,2.55-2.63"/><path class="cls-4" d="M18.88,22.1a2.28,2.28,0,1,1,2.27,2.17,2.23,2.23,0,0,1-2.27-2.17m-6.06-1.94a1.11,1.11,0,0,1,1.9-.33c1.53,1.47,3,3,4.56,4.41a2.4,2.4,0,0,0,.47.43c1.15,1.11,3.29-.17,3.53-.43q2.12-2,4.21-4.07c.61-.59,1.22-.62,1.72-.11s.44,1.1-.19,1.71c-1.67,1.63-3.35,3.24-5,4.88a1.32,1.32,0,0,0-.39.83A78.32,78.32,0,0,0,23.92,38a1.15,1.15,0,0,0,.37.68c.54.41,1.14.74,1.71,1.11s1.4.84,2.05,1.32A1.57,1.57,0,0,1,28.28,43c-.43.54-1.06.56-1.76.1-1.52-1-3-2-4.58-2.93a1.34,1.34,0,0,1-.77-1.14,26.16,26.16,0,0,0-.41-2.67c0-.15-.2-.3-.35,0a4.13,4.13,0,0,0-.59,1.44,7.06,7.06,0,0,0,.52,2c.26.93.55,1.85.73,2.79a1.27,1.27,0,0,1-1,1.48,1.3,1.3,0,0,1-1.38-1c-.42-1.55-.75-3.13-1.31-4.63A3.14,3.14,0,0,1,17.86,35a3.66,3.66,0,0,0,.73-2.57c-.06-1.6-.05-3.2,0-4.8a2,2,0,0,0-.7-1.65c-1.59-1.47-3.12-3-4.68-4.5a1.1,1.1,0,0,1-.39-1.31"/><path class="cls-7" d="M18.88,22.1a2.28,2.28,0,1,1,2.27,2.17A2.23,2.23,0,0,1,18.88,22.1Zm-6.06-1.94a1.11,1.11,0,0,1,1.9-.33c1.53,1.47,3,3,4.56,4.41a2.4,2.4,0,0,0,.47.43c1.15,1.11,3.29-.17,3.53-.43q2.12-2,4.21-4.07c.61-.59,1.22-.62,1.72-.11s.44,1.1-.19,1.71c-1.67,1.63-3.35,3.24-5,4.88a1.32,1.32,0,0,0-.39.83A78.32,78.32,0,0,0,23.92,38a1.15,1.15,0,0,0,.37.68c.54.41,1.14.74,1.71,1.11s1.4.84,2.05,1.32A1.57,1.57,0,0,1,28.28,43c-.43.54-1.06.56-1.76.1-1.52-1-3-2-4.58-2.93a1.34,1.34,0,0,1-.77-1.14,26.16,26.16,0,0,0-.41-2.67c0-.15-.2-.3-.35,0a4.13,4.13,0,0,0-.59,1.44,7.06,7.06,0,0,0,.52,2c.26.93.55,1.85.73,2.79a1.27,1.27,0,0,1-1,1.48,1.3,1.3,0,0,1-1.38-1c-.42-1.55-.75-3.13-1.31-4.63A3.14,3.14,0,0,1,17.86,35a3.66,3.66,0,0,0,.73-2.57c-.06-1.6-.05-3.2,0-4.8a2,2,0,0,0-.7-1.65c-1.59-1.47-3.12-3-4.68-4.5A1.1,1.1,0,0,1,12.82,20.16Z"/><path class="cls-4" d="M34.19,34.93a2.3,2.3,0,1,0-2.29,2.3,2.29,2.29,0,0,0,2.29-2.3M50.42,23.4a1.61,1.61,0,1,0-2.79-1.6L43,29.39l-6.85,4.15c-.34.19-.62.81-.82,1.15L30,43.87a1.29,1.29,0,1,0,2.23,1.31l3.88-6.46,7.93-5a2.3,2.3,0,0,0,.82-.82Z"/><path class="cls-7" d="M34.19,34.93a2.3,2.3,0,1,0-2.29,2.3A2.29,2.29,0,0,0,34.19,34.93ZM50.42,23.4a1.61,1.61,0,1,0-2.79-1.6L43,29.39l-6.85,4.15c-.34.19-.62.81-.82,1.15L30,43.87a1.29,1.29,0,1,0,2.23,1.31l3.88-6.46,7.93-5a2.3,2.3,0,0,0,.82-.82Z"/><path class="cls-6" d="M18.87,22.07a2.29,2.29,0,1,1,2.28,2.18,2.24,2.24,0,0,1-2.28-2.18m-6.08-1.94a1.12,1.12,0,0,1,1.91-.33c1.53,1.47,3,3,4.58,4.42a2.33,2.33,0,0,0,.46.43c1.15,1.11,3.31-.17,3.55-.43,1.42-1.35,2.82-2.72,4.22-4.08A1.12,1.12,0,0,1,29.24,20c.5.53.44,1.1-.2,1.72-1.67,1.63-3.35,3.24-5,4.89a1.29,1.29,0,0,0-.39.83A78.58,78.58,0,0,0,23.93,38a1.14,1.14,0,0,0,.37.69c.55.41,1.14.74,1.72,1.11s1.41.84,2.06,1.33a1.56,1.56,0,0,1,.22,1.93c-.43.54-1.06.56-1.76.1-1.52-1-3.06-2-4.6-2.94a1.34,1.34,0,0,1-.77-1.14c-.07-.93-.38-2.53-.41-2.68s-.2-.3-.35,0a4.14,4.14,0,0,0-.6,1.45,7.18,7.18,0,0,0,.53,1.95c.25.93.55,1.85.73,2.79a1.28,1.28,0,0,1-1,1.49A1.3,1.3,0,0,1,18.7,43c-.42-1.55-.75-3.13-1.31-4.63A3.12,3.12,0,0,1,17.85,35a3.67,3.67,0,0,0,.73-2.58c-.06-1.6,0-3.21,0-4.81A2,2,0,0,0,17.87,26c-1.58-1.48-3.12-3-4.69-4.51a1.12,1.12,0,0,1-.39-1.32"/><path class="cls-6" d="M34.18,34.94a2.31,2.31,0,1,0-2.31,2.3,2.3,2.3,0,0,0,2.31-2.3M50.45,23.37a1.61,1.61,0,1,0-2.79-1.6L43,29.38l-6.87,4.16c-.34.19-.62.81-.82,1.15L30,43.89a1.3,1.3,0,1,0,2.24,1.32l3.89-6.47,7.95-5a2.22,2.22,0,0,0,.82-.82Z"/></g></svg>