<svg id="Layer_1" data-name="Layer 1" xmlns="http://www.w3.org/2000/svg" viewBox="0 0 64 64"><defs><style>.cls-1{fill:#ed1c24;}.cls-2{fill:#231f20;}</style></defs><title>Artboard 1 copy 57</title><path class="cls-1" d="M34.07,37.65l.87.84c1.58-.62,3.15-1.24,4.74-1.85l.4-.2-1.73-1.68c0,.12-.06.24-.08.36a2.54,2.54,0,0,1-.56,1.14,2.65,2.65,0,0,1-1.05.71A15.22,15.22,0,0,1,34.07,37.65Z"/><path class="cls-1" d="M32,2.17A29.83,29.83,0,1,0,61.82,32,29.87,29.87,0,0,0,32,2.17ZM51.4,47.39,44.79,41a4.2,4.2,0,0,1-.69.06l-.53,0h-.31a9.69,9.69,0,0,0-3,.62l-1.48.5a10.33,10.33,0,0,0,2.72.65h.35c.72,0,1.56-.15,2.51-.22a6.05,6.05,0,0,1,.63,0,4.23,4.23,0,0,1,.69,0,2.71,2.71,0,0,1,2.23,2.64v.19a2.09,2.09,0,0,1-.22.79,2.68,2.68,0,0,1-.43.61,2.91,2.91,0,0,0-.74,1.23,3,3,0,0,1-.61,1l2,1.88A24.77,24.77,0,0,1,12.47,16.75l9.61,9.3a7.15,7.15,0,0,1-.64-3,9.29,9.29,0,0,1,.88-3.81L16,13.11A24.77,24.77,0,0,1,51.4,47.39Z"/><path class="cls-2" d="M46.08,36.77a2.28,2.28,0,0,1-.67-.74,2.56,2.56,0,0,1-.2-.57,1.15,1.15,0,0,0-1.7-.63,3.16,3.16,0,0,0-.87.76,6.2,6.2,0,0,1-2.58,2c-2.6,1-5.19,2-7.78,3a1,1,0,0,1-.58,0c-2.58-1-5.15-2-7.73-3a6.28,6.28,0,0,1-2.69-2.11,2.85,2.85,0,0,0-.88-.74,1.13,1.13,0,0,0-1.6.56,2.22,2.22,0,0,0-.18.49,1.43,1.43,0,0,1-.86,1,1.17,1.17,0,0,0-.53.57,1.56,1.56,0,0,0,.83,2.19,4.79,4.79,0,0,0,2.11.38,7,7,0,0,1,1.72.1c1.62.44,3.21,1,4.8,1.46.5.15,1,.35,1.49.52v.1l-3.29,1.14a8.85,8.85,0,0,1-4.94.39,5.19,5.19,0,0,0-1.67,0c-.92.12-1.63,1.71-.92,2.36a4,4,0,0,1,1.11,1.81,1.77,1.77,0,0,0,2.81.76c.22-.18.44-.38.64-.58a6.87,6.87,0,0,1,2.33-1.54c2.49-1,5-2,7.45-2.92a.94.94,0,0,1,.62,0q2.32.87,4.65,1.77a15.24,15.24,0,0,1,5.79,3.27,1.72,1.72,0,0,0,2.77-.88,4.18,4.18,0,0,1,1-1.64,1.29,1.29,0,0,0,.36-.75,1.64,1.64,0,0,0-1.35-1.71,4.26,4.26,0,0,0-1.07,0,20.5,20.5,0,0,1-3,.21,23.41,23.41,0,0,1-5.62-1.67l0-.09.35-.15L40,40.65A9.63,9.63,0,0,1,43.64,40a4,4,0,0,0,1.2-.07,4.51,4.51,0,0,0,1.5-.61,1.51,1.51,0,0,0-.26-2.54Zm-5-8a3,3,0,0,1-.26-3,6.9,6.9,0,0,0,.56-1.81,8.08,8.08,0,0,0-4.81-8.24A11.22,11.22,0,0,0,32,14.94a10.21,10.21,0,0,0-5,.91c-4.17,2-5.49,7.16-3.82,10.1a2.39,2.39,0,0,1,.2,1.38,4.16,4.16,0,0,1-.57,1.46A2.18,2.18,0,0,0,23.49,32a3.62,3.62,0,0,0,1.33.25,1.59,1.59,0,0,1,1.6,1.35c.11.45.22.9.31,1.35a1.37,1.37,0,0,0,.93,1,12.05,12.05,0,0,0,8.63,0,1.38,1.38,0,0,0,1-1.08c.11-.49.2-1,.35-1.47a1.51,1.51,0,0,1,1.66-1.21,2.07,2.07,0,0,0,1.57-.46,2.17,2.17,0,0,0,.27-3Zm-10.31-.47a2.5,2.5,0,0,1-1.87,2,3.57,3.57,0,0,1-3.15-.3,2.25,2.25,0,0,1-.88-2.49,2,2,0,0,1,1.56-1.85,13,13,0,0,1,3.1.31,1.75,1.75,0,0,1,1.24,2.28ZM33,30.89c.28.53.57,1.06.83,1.6a.89.89,0,0,1-.14,1.12.86.86,0,0,1-1.11,0,.93.93,0,0,0-1.22,0,.79.79,0,0,1-1.08,0,1,1,0,0,1-.17-.9,25.18,25.18,0,0,1,1.21-2.37.71.71,0,0,1,.54-.16c.7-.24.9.27,1.14.72Zm6.25-2.78a2.85,2.85,0,0,1-2.14,2.38,4.35,4.35,0,0,1-2.61-.37,2.71,2.71,0,0,1-1.29-3,1.68,1.68,0,0,1,1-1.06,6.26,6.26,0,0,1,3.26-.39,1.52,1.52,0,0,1,1.27.93,3.84,3.84,0,0,1,.49,1.5Z"/></svg>