<svg id="Layer_1" data-name="Layer 1" xmlns="http://www.w3.org/2000/svg" viewBox="0 0 64 64"><defs><style>.cls-1{fill:#231f20;}.cls-2{fill:#fff;}</style></defs><title>Artboard 1 copy 11</title><path class="cls-1" d="M31.63,60.55a28.1,28.1,0,1,0-28.1-28.1,28.11,28.11,0,0,0,28.1,28.1Z"/><path class="cls-2" d="M32,2.17A29.83,29.83,0,1,0,61.83,32,29.86,29.86,0,0,0,32,2.17Zm0,55.56A25.73,25.73,0,1,1,57.73,32,25.76,25.76,0,0,1,32,57.73Z"/><path class="cls-2" d="M26.69,33.12a.83.83,0,0,0-.29-.72L24,30.62,22.27,27A1.9,1.9,0,0,0,20.86,26a1.92,1.92,0,0,0-1.27.33L15.9,29.19a.77.77,0,0,0-.26.38l-.9,3.53,0,.1a.81.81,0,0,0,.72.9.84.84,0,0,0,.88-.65l.76-3,1.28-1-2.17,8.47-2.43,3.81a1.6,1.6,0,0,0-.18.52,1.22,1.22,0,0,0,1.08,1.34A1.24,1.24,0,0,0,15.82,43l2.6-4.11a2.45,2.45,0,0,0,.26-.51l.69-2.74,2.5,2.91.69,4.29a1.23,1.23,0,0,0,1.06,1A1.21,1.21,0,0,0,25,42.78c0-.08,0-.14,0-.24L24.24,38a1.38,1.38,0,0,0-.13-.39L21,33.71,22,30.16l.64,1.36.2.25,2.64,1.93a1,1,0,0,0,.37.14.82.82,0,0,0,.89-.72Zm-3.56-9.06a1.81,1.81,0,1,0-2,1.6,1.81,1.81,0,0,0,2-1.6Z"/><path class="cls-2" d="M28.53,31.65l.16-.27L27,30.4l-1.25,2.07,1.91,1.14L29,31.54l-.26-.16-.16.27-.27-.16-.77,1.27-.85-.5.61-1,1.12.66.16-.26-.27-.16.27.16Zm-.14-.55.16-.27-.69-.41-.26-.15-.27.43-.16.26,1,.57.26.16.26-.43.17-.27-.27-.16-.16.27-.26-.16-.11.17.27.16.16-.27-.7-.41-.15.27.26.16.1-.17-.26-.16-.16.26.69.41.16-.26-.26-.16.26.16ZM26.6,33.29l-.16.26a.52.52,0,0,0,.7-.17h0a.52.52,0,0,0-.18-.7h0L26.8,33l.16-.27a.52.52,0,0,0-.7.17h0a.51.51,0,0,0,.18.69l.11-.19-.12.19h0l.11-.19-.12.19h0l.16-.26.16-.27h0l-.05.1.09.05,0-.15-.05.1.09.05-.17-.1.17.1h0l-.17-.1.17.1h0l-.09-.05-.06.09.15,0-.09-.05-.06.09h0l.14-.24-.15.24h0l.14-.24-.15.24.06-.09-.09-.06,0,.15.06-.09-.09-.06h0l.09,0,.05-.09-.14,0,.09,0,.05-.09-.15.27.16-.27-.16.27Zm.41.48.16-.27-1-.62h0l0-.12-.16-.09.16.09h0l-.16-.09.16.09h0l1.24-2,.13,0,1,.62h0l0,.12h0l.27.16-.27-.16-1.24,2-.13,0-.16.27-.16.26a.71.71,0,0,0,1-.24l1.25-2.06h0l-.19-.11.19.12h0l-.19-.11.19.12a.71.71,0,0,0-.24-1h0l-1-.61a.72.72,0,0,0-1,.24l-1.24,2h0a.71.71,0,0,0,.24,1h0l1,.61.16-.26Z"/><polygon class="cls-2" points="27.34 30.51 25.93 32.87 27.31 33.7 28.73 31.34 27.34 30.51 27.34 30.51"/><path class="cls-2" d="M28.44,31.68l-1.28-.77-.86,1.44,1.27.76.87-1.43Zm-.13-.52-.64-.38-.09.16.64.38.09-.16Zm-1.66,2.05.25-.06-.06-.26-.26.06.07.26Zm.38.45-1-.58a.39.39,0,0,1-.13-.51l1.16-1.92a.38.38,0,0,1,.51-.13l1,.58a.39.39,0,0,1,.13.51l-1.16,1.92a.37.37,0,0,1-.51.13Z"/><path class="cls-2" d="M48.45,31.84l-1.8-4.65a2.44,2.44,0,0,0-2.46-1.63H34.75a2.43,2.43,0,0,0-2.45,1.63l-1.8,4.65a2.51,2.51,0,0,0-2,2.51v5.9h1.75v1.89a1.64,1.64,0,1,0,3.28,0V40.25H45.39v1.89a1.65,1.65,0,1,0,3.29,0V40.25h1.74v-5.9a2.51,2.51,0,0,0-2-2.51ZM32,36.69a1.57,1.57,0,1,1,1.52-1.56A1.54,1.54,0,0,1,32,36.69Zm7.51-4.9H32.36l1.36-3.65c.17-.52.42-.89,1-.89h9.49c.59,0,.84.37,1,.89l1.36,3.65Zm7.5,4.9a1.57,1.57,0,1,1,1.52-1.56A1.54,1.54,0,0,1,47,36.69Z"/><polygon class="cls-2" points="36.36 23.95 34.7 20.13 33.67 23.09 31.15 20.49 31.53 23.76 28.95 22.5 30.12 25.78 26.87 25.59 29.46 28.21 29.75 27.92 27.9 26.06 30.71 26.22 29.66 23.3 32.01 24.45 31.69 21.62 33.84 23.84 34.74 21.24 35.99 24.11 36.36 23.95 36.36 23.95"/></svg>