<svg id="Layer_1" data-name="Layer 1" xmlns="http://www.w3.org/2000/svg" viewBox="0 0 64 64"><defs><style>.cls-1{fill:#231f20;}.cls-2{fill:#fff;}</style></defs><title>Artboard 1 copy 22</title><path class="cls-1" d="M32,61.83A29.83,29.83,0,1,0,2.15,32,29.83,29.83,0,0,0,32,61.83Z"/><path class="cls-2" d="M48.32,46.32l0-29.43-3-.7-1.71,7.74-2.88,1.21-2.55,7.13,2.42,5.46-.68,2.1-5.62,1.69L34,44l-9,2.17.09,1.54H46.92a1.4,1.4,0,0,0,1.4-1.4Zm-11-16.38A1.47,1.47,0,0,0,36.5,28l-.08,0L31.9,26.67l-3.4-4.08a3.38,3.38,0,0,0-5.37.51l-3.78,6.54a3.54,3.54,0,0,0-.31,1,3.39,3.39,0,0,0,0,.55l.13,8.28-2.86,6.17a1.82,1.82,0,0,0-.21.62,1.86,1.86,0,0,0,3.47,1.18l3.15-6.75a1.94,1.94,0,0,0,.15-.5v-.26l0-5.12,4.84,2.11.78,5a1.86,1.86,0,0,0,3.66-.12,2.92,2.92,0,0,0,0-.51l-1-6a1.85,1.85,0,0,0-1-1.34L25.79,32l2.75-4.79,1.36,1.73a1.34,1.34,0,0,0,.53.37l5.2,1.52a1.46,1.46,0,0,0,1.67-.88ZM31,18.38a2.79,2.79,0,1,0-2.79,2.79A2.79,2.79,0,0,0,31,18.38Zm-8.33,3.23a.81.81,0,0,0-.3-1.09L21,19.73a.8.8,0,0,0-1.09.3l-4.16,7.18a.79.79,0,0,0,.29,1.08l1.36.78a.79.79,0,0,0,1.09-.29l4.16-7.17Z"/></svg>