<svg id="Layer_1" data-name="Layer 1" xmlns="http://www.w3.org/2000/svg" viewBox="0 0 64 64"><defs><style>.cls-1{fill:#231f20;}.cls-2{fill:#fff;}</style></defs><title>Artboard 1 copy 8</title><path class="cls-1" d="M32.24,60.55A28.1,28.1,0,1,0,4.13,32.45a28.1,28.1,0,0,0,28.11,28.1Z"/><path class="cls-2" d="M32,2.17A29.83,29.83,0,1,0,61.82,32,29.87,29.87,0,0,0,32,2.17Zm0,55.56A25.73,25.73,0,1,1,57.72,32,25.76,25.76,0,0,1,32,57.73Z"/><path class="cls-2" d="M44.45,28.18a1,1,0,0,0-1.05,1.05v8.29a1,1,0,0,0,1.05,1.06h3.69a1,1,0,0,0,1-1.06V29.23a1,1,0,0,0-1-1.05Z"/><path class="cls-2" d="M32.42,39.78H49.14s.24,2.77-.29,3c-.89.38-2.19.52-2.37,1.21a15.7,15.7,0,0,0,0,3c.06.75,1.18,1.33,1.42,1.84A3.38,3.38,0,0,1,48.14,50H35.31s-.29-.57.59-1.49,1.63-1.29,1.93-1.7a2.14,2.14,0,0,0,.08-2c-.35-.52-2.54-.29-4.25-2.25a5.47,5.47,0,0,1-1.24-2.82Z"/><path class="cls-2" d="M38.4,34.16s.3-.37.49-.67,1,.41,1.15.67.51,1,.67,1.15-.64.6-.78.72a5.65,5.65,0,0,1-1,.72,3,3,0,0,0-.54-1c-.29-.26-.9-.38-.78-.61s.79-.63.74-1Z"/><path class="cls-2" d="M30.51,20.53a3.28,3.28,0,1,0-3.28-3.28,3.28,3.28,0,0,0,3.28,3.28Z"/><path class="cls-2" d="M26.89,20.3s3.45,1.27,4,2.19,2.93,3.63,2.93,3.63l4.67,2.76a1.42,1.42,0,0,1,.69,1.9,1.27,1.27,0,0,1-1.84.47s-5.23-2.41-5.47-2.65S29.59,26,29.59,26l-1.78,3.63a3.42,3.42,0,0,0-.18,2.08c.18,1.55,1.91,16.58,1.91,16.58s.4,1.21-1.16,1.67-1.84-1.49-1.84-1.49L24.41,36.14,22.8,48.52a1.43,1.43,0,0,1-1.67,1.39,1.47,1.47,0,0,1-1.27-1.85l1-15.32A17.83,17.83,0,0,1,21.82,28a9.14,9.14,0,0,0,.8-2.94s-1.17.54-1.44.7-3.85,4-3.85,4a1.42,1.42,0,0,1-2.08.29c-1.21-.92.29-2.42.29-2.42s3.29-4.06,3.57-4.32,5-2.71,5-2.71a4.81,4.81,0,0,1,2.77-.23Z"/></svg>