<svg id="Layer_1" data-name="Layer 1" xmlns="http://www.w3.org/2000/svg" viewBox="0 0 64 64"><defs><style>.cls-1{fill:#ed1c24;}.cls-2{fill:#231f20;}</style></defs><title>Artboard 1 copy 52</title><path class="cls-1" d="M32,2.17A29.83,29.83,0,1,0,61.82,32,29.87,29.87,0,0,0,32,2.17ZM51.4,47.39,44.83,41,41,41a5,5,0,0,1-5.44-4.3l-1.52-6.09-2-1.95L31.31,35,47.88,51A24.77,24.77,0,0,1,12.47,16.75l9.1,8.8L25.15,22,16,13.11A24.77,24.77,0,0,1,51.4,47.39Z"/><path class="cls-2" d="M53.12,36.12l-.53.68L32,16.69,11.6,36.91,11,36.1l-1.42,1,2.08,2.95,1.41-1-.52-.75,4.24-3.88V40l12.85-.23,2.53-21L36.63,36.5A4.06,4.06,0,0,0,41,40l6.79,0,0-5.38,3.71,3.62L50.9,39,52.26,40l2.23-2.84-1.37-1.07Z"/></svg>