<svg id="Layer_1" data-name="Layer 1" xmlns="http://www.w3.org/2000/svg" viewBox="0 0 64 64"><defs><style>.cls-1{fill:#231f20;}.cls-2{fill:#fff;}</style></defs><title>Artboard 1 copy 4</title><path class="cls-1" d="M32,61.83A29.83,29.83,0,1,0,2.15,32,29.86,29.86,0,0,0,32,61.83Z"/><path class="cls-2" d="M45.56,35.53h-.12a2.23,2.23,0,0,1-1.18-.34l.36,1.61A4.76,4.76,0,0,1,47,42.59l1,1.65a6.4,6.4,0,0,0-2.44-8.71Z"/><path class="cls-2" d="M42.37,46a4.89,4.89,0,0,1-4.74-3.81,12.64,12.64,0,0,1-.08-1.66l-.69.76-.42,2.22a6.43,6.43,0,0,0,6,4,6,6,0,0,0,.86-.07Z"/><path class="cls-2" d="M24.51,35.49c.38-.78.75-1.56,1.12-2.34l.16-.29.11.14,5.27,7.44.17-.88a3.06,3.06,0,0,1,.28-.77l-4.28-6,7.5,2.1,0,.06,1-1.15-.51-.15-8.71-2.44c.16-.32.29-.6.42-.87a.65.65,0,0,0-.32-.91L26,29l.71-.34a.84.84,0,0,0,.34-.3,2.36,2.36,0,0,1-.4-1,.83.83,0,0,0-.5.07l-1.84.87a.66.66,0,0,0-.44.62.68.68,0,0,0,.43.64l1.29.67-.13.32Q24.35,32.78,23.3,35a6.55,6.55,0,0,0-1.89-.28,6.44,6.44,0,1,0,3.1.8ZM21.41,46a4.88,4.88,0,1,1,0-9.76,5.34,5.34,0,0,1,1.21.15c-.32.68-.65,1.35-1,2s-.66,1.37-1,2.07a.62.62,0,0,0,.3.83.63.63,0,0,0,.85-.25l.14-.26c.62-1.31,1.25-2.6,1.87-3.91A4.88,4.88,0,0,1,21.41,46Z"/><path class="cls-2" d="M44.26,40.06,41.43,27.48,43.28,29l1,4.49a1.24,1.24,0,0,0,1.27,1,1.2,1.2,0,0,0,1.1-1.29l0-.16-1.17-5.23a1.28,1.28,0,0,0-.37-.57L39.75,22.9a2.69,2.69,0,0,0-4,.77l-7.69,2.4a1.17,1.17,0,0,0-.46,1A1.36,1.36,0,0,0,29,28.33a1.3,1.3,0,0,0,.54-.13l6.35-1.7,1.43,7.15-4.7,5.54a2,2,0,0,0-.21.57l-1.27,6.71c0,.14,0,.24,0,.36a1.79,1.79,0,0,0,1.93,1.65,1.88,1.88,0,0,0,1.62-1.42l1.19-6.28,3.81-4.18.89,4.07a4.07,4.07,0,0,0,.36.76l3.66,6.17a1.79,1.79,0,0,0,3.33-1.06,2.18,2.18,0,0,0-.25-.77l-3.4-5.71Zm-2.95-21.4a3.17,3.17,0,0,0-.08-2.1c-.07-.49,0-.67-.39-.71a2.57,2.57,0,0,0-2.75-1.4,5.76,5.76,0,0,0-5.15,3.67c0,.14,0,.34.15.33h1.68a2.45,2.45,0,0,0-.1.94,2.64,2.64,0,0,0,5.27-.27c.54.37,1.05.5,1.37-.45Z"/></svg>