<svg id="Layer_1" data-name="Layer 1" xmlns="http://www.w3.org/2000/svg" viewBox="0 0 64 64"><defs><style>.cls-1{fill:#231f20;}.cls-2{fill:#fff;}</style></defs><title>Artboard 1 copy 19</title><path class="cls-1" d="M32,61.83A29.83,29.83,0,1,0,2.15,32,29.83,29.83,0,0,0,32,61.83Z"/><path class="cls-2" d="M59,44.35a6.44,6.44,0,0,1-2.67.59A6.08,6.08,0,0,1,51,41.88l0-.07,0,0,0-.05,0,0,0,0,0,0,0,0,0,0,0,0-.05,0,0,0-.06,0,0,0-.06,0-.05,0h0l-.06,0h-.53l-.07,0h0l-.06,0-.05,0,0,0-.05,0,0,0,0,0-.05,0,0,0,0,0,0,0,0,0,0,0,0,.06,0,0,0,.06v0a5.85,5.85,0,0,1-3.37,2.74l-.38.1c-6.59-11.63-1.48-24.88-.44-27.91A27.89,27.89,0,0,1,46,13.39c-17.91,2-29.8,21.85-32.42,29.7-.11-.12-.24-.21-.35-.34a5.78,5.78,0,0,1-.59-.87v0l0,0,0,0,0-.05,0,0,0,0,0,0,0,0h0l0,0,0,0-.06,0,0,0-.06,0,0,0-.05,0-.06,0h0l-.06,0h-.54l-.06,0h-.05l-.06,0,0,0,0,0-.06,0,0,0,0,0,0,0,0,0-.05,0,0,0-.05,0,0,0,0,.05v0l0,.06,0,0a6,6,0,0,1-5.36,3.06l-.32,0c.34.71.72,1.41,1.12,2.09a8.47,8.47,0,0,0,5.42-2.58l.16-.17.15.17a8.63,8.63,0,0,0,.77.71,6,6,0,0,0,.57.42l1.79.93a8.92,8.92,0,0,0,3.1.56,8.58,8.58,0,0,0,6.23-2.62l.15-.17.16.17a8.71,8.71,0,0,0,12.45,0l.16-.17.15.17a8.58,8.58,0,0,0,6.23,2.62,8.8,8.8,0,0,0,3.15-.58,8.35,8.35,0,0,0,3.08-2l.15-.17.16.17a8.64,8.64,0,0,0,7.57,2.51c.48-.84.93-1.71,1.33-2.59Z"/></svg>