<svg id="Layer_1" data-name="Layer 1" xmlns="http://www.w3.org/2000/svg" viewBox="0 0 64 64"><defs><style>.cls-1{fill:#ed1c24;}.cls-2{fill:#231f20;}</style></defs><title>Artboard 1 copy 44</title><path class="cls-1" d="M28.6,25.47c.07.21.18.48.31.79.72,1.81,2,5.07,1.87,8.2L33,36.62V29.86c0-.09,0-.16,0-.24l-4.51-4.37Z"/><path class="cls-1" d="M32,2.17A29.83,29.83,0,1,0,61.82,32,29.87,29.87,0,0,0,32,2.17ZM51.4,47.39l-4.13-4v5a2.08,2.08,0,0,1-.58,1.44L47.88,51A24.77,24.77,0,0,1,12.47,16.75l8.31,8H28L16,13.11A24.77,24.77,0,0,1,51.4,47.39Z"/><path class="cls-2" d="M46.22,48.49V29.93a5.16,5.16,0,0,0-3.93-5v-8.3H38v8.3a5.15,5.15,0,0,0-3.94,5V48.49a1,1,0,0,0,1,1H45.19a1,1,0,0,0,1-1ZM38,15.45h4.29V13.66H38v1.79ZM27.61,25.91H19.89c-.93,2.54-5.8,12.29,3.28,14.61v7.29l-4.87.6a.54.54,0,0,0-.48.61.56.56,0,0,0,.61.48H29.06a.57.57,0,0,0,.61-.48.54.54,0,0,0-.48-.61l-4.86-.6V40.52c9.08-2.32,4.21-12.07,3.28-14.61Z"/></svg>