<svg id="Layer_1" data-name="Layer 1" xmlns="http://www.w3.org/2000/svg" viewBox="0 0 64 64"><defs><style>.cls-1{fill:#ed1c24;}.cls-2{fill:#231f20;}</style></defs><title>Artboard 1 copy 46</title><path class="cls-1" d="M36.86,39a5.37,5.37,0,0,1,2.26.49,3.64,3.64,0,0,0,1.43.32,3.45,3.45,0,0,0,1.38-.31,5.34,5.34,0,0,1,1-.33l-9.12-8.81a16.85,16.85,0,0,1-2.4,1.37,17.87,17.87,0,0,1-2.52.88l6.76,6.55A5,5,0,0,1,36.86,39Z"/><path class="cls-1" d="M32,2.17A29.83,29.83,0,1,0,61.82,32,29.87,29.87,0,0,0,32,2.17ZM51.4,47.39l-3-2.93-.51,0a5,5,0,0,1-2.2-.51,4.07,4.07,0,0,0-1.44-.31,3.9,3.9,0,0,0-1.45.31,5.29,5.29,0,0,1-1.66.48L47.88,51A24.77,24.77,0,0,1,12.47,16.75l5.8,5.61a16.86,16.86,0,0,1,3.61-3.53L16,13.11A24.77,24.77,0,0,1,51.4,47.39Z"/><path class="cls-1" d="M42.36,40.38a4.6,4.6,0,0,1-1.81.4,4.7,4.7,0,0,1-1.83-.4A4.37,4.37,0,0,0,36.86,40c-.12,0-.23,0-.35,0l3.54,3.42a4.26,4.26,0,0,0,.5.06,4,4,0,0,0,1.81-.42,4.83,4.83,0,0,1,1.86-.4,5,5,0,0,1,1.85.4,3.7,3.7,0,0,0,1.23.35L43.78,40A4.36,4.36,0,0,0,42.36,40.38Z"/><path class="cls-2" d="M53.83,40.06l-.54-.14a5.07,5.07,0,0,0-2.06-.45,4.94,4.94,0,0,0-2,.45,4.06,4.06,0,0,1-1.63.36A4,4,0,0,1,46,39.92a5,5,0,0,0-2.06-.45,4.8,4.8,0,0,0-2.06.45,4,4,0,0,1-1.61.36,4.1,4.1,0,0,1-1.61-.35,5,5,0,0,0-2.08-.46,5.11,5.11,0,0,0-2.06.45,3.68,3.68,0,0,1-1.27.34h-.5a3.75,3.75,0,0,1-.68-.08,4,4,0,0,1-.74-.25,4.94,4.94,0,0,0-2.06-.45h-.06a4.94,4.94,0,0,0-2.05.45,3.79,3.79,0,0,1-.74.25,3.65,3.65,0,0,1-.68.08l-.21,0a4,4,0,0,1-1.58-.36,4.94,4.94,0,0,0-4.12,0,4,4,0,0,1-1.61.36,4.1,4.1,0,0,1-1.61-.35,4.92,4.92,0,0,0-2.07-.46,5.12,5.12,0,0,0-2.07.45,3.82,3.82,0,0,1-1.57.36h-.73l.26.68a25.64,25.64,0,0,0,1.17,2.58l.2.35.39-.11a3.11,3.11,0,0,0,.67-.25,4.58,4.58,0,0,1,1.68-.36,4.28,4.28,0,0,1,1.64.35,4.64,4.64,0,0,0,4.05,0,4.22,4.22,0,0,1,1.66-.36,4.51,4.51,0,0,1,1.63.35,4.6,4.6,0,0,0,2,.47,4.33,4.33,0,0,0,1.35-.22l.07.08.4-.22.25-.1a4.67,4.67,0,0,1,1.64-.36,4.69,4.69,0,0,1,1.59.34,2.48,2.48,0,0,0,.5.2l.4.14,0,0a4.28,4.28,0,0,0,3.16-.28,4.58,4.58,0,0,1,1.67-.36,4.29,4.29,0,0,1,1.65.35,4.64,4.64,0,0,0,4,0,4.22,4.22,0,0,1,1.66-.36,4.35,4.35,0,0,1,1.63.35,4.62,4.62,0,0,0,4,0,4.21,4.21,0,0,1,1.65-.36,3.87,3.87,0,0,1,.76.09l.38.08.17-.34a21.83,21.83,0,0,0,1.05-2.44l.24-.5Zm-4.25-9.52c0-.11,0-.21,0-.32a4.54,4.54,0,0,0-4.32-4.53,3.7,3.7,0,0,0-.2,1.15,3.77,3.77,0,0,0,3.77,3.77,4.18,4.18,0,0,0,.72-.07Zm-4.95-3.7a3.89,3.89,0,0,1,.18-1.14,4.53,4.53,0,0,0-4.21,3.68,3.93,3.93,0,0,1,.6-.06,4.24,4.24,0,0,1,4.23,4.23,4.3,4.3,0,0,1-.19,1.2A4.53,4.53,0,0,0,49.53,31a3.71,3.71,0,0,1-.67.07,4.24,4.24,0,0,1-4.23-4.23ZM41.2,29.78a4.34,4.34,0,0,0-.64.06,2.45,2.45,0,0,0,0,.38,4.53,4.53,0,0,0,4.24,4.52A3.63,3.63,0,0,0,45,33.55a3.77,3.77,0,0,0-3.77-3.77ZM39.11,19.22c-1.22-2.65-8.15-4.28-14.45-1.4s-9.44,9.46-8.35,11.83,8.15,4.28,14.45,1.4,9.57-9.17,8.35-11.83Zm-6.58,5.71a.52.52,0,0,1-.71-.26l-.55-1.22-1.47.67.56,1.21a.54.54,0,0,1-1,.45l-.55-1.21-1.46.66.56,1.22a.54.54,0,1,1-1,.44l-.56-1.21-1.46.66.56,1.22a.53.53,0,0,1-1,.45L23,24.61a.51.51,0,0,1,.27-.71.5.5,0,0,1,.7.26l.56,1.22L26,24.71l-.56-1.21a.53.53,0,0,1,1-.45l.56,1.21,1.46-.66-.56-1.22a.5.5,0,0,1,.26-.7.51.51,0,0,1,.72.26l.55,1.21,1.46-.67-.55-1.21a.5.5,0,0,1,.26-.71.51.51,0,0,1,.71.26l1.57,3.4a.51.51,0,0,1-.27.71Z"/></svg>