<svg id="Layer_1" data-name="Layer 1" xmlns="http://www.w3.org/2000/svg" viewBox="0 0 64 64"><defs><style>.cls-1{fill:#ed1c24;}.cls-2{fill:#231f20;}</style></defs><title>Artboard 1 copy 48</title><path class="cls-1" d="M32,2.17A29.83,29.83,0,1,0,61.82,32,29.86,29.86,0,0,0,32,2.17ZM51.41,47.39l-6.18-6a7.1,7.1,0,0,1-2.58.51,7,7,0,0,1-2.9-.64h0a5.58,5.58,0,0,0-2.31-.51h-.13L47.88,51A24.77,24.77,0,0,1,12.46,16.75l8.08,7.81,7.94.66L16,13.11A24.77,24.77,0,0,1,51.41,47.39Z"/><polyline class="cls-2" points="11.51 32.59 11.51 34.2 21.46 26.48 20.64 25.43"/><path class="cls-2" d="M26.06,36.16c.31-.09,26-.19,26.84-.19V28L32.32,26.27l4.52-4.56-2-.18L30.34,26.1l-9.8-.81c-.06,3.35,3.67,8.91,4.47,9.82"/><path class="cls-2" d="M53,41.11a5.77,5.77,0,0,1-2.47-.56A6.22,6.22,0,0,0,47.86,40a6.29,6.29,0,0,0-2.63.59,6.23,6.23,0,0,1-2.58.56,6.06,6.06,0,0,1-2.55-.56,6.2,6.2,0,0,0-5.28,0,6.15,6.15,0,0,1-5.13,0A6.23,6.23,0,0,0,27.05,40a6.3,6.3,0,0,0-2.64.59,6.11,6.11,0,0,1-5.11,0,6.2,6.2,0,0,0-5.28,0,6.07,6.07,0,0,1-2.56.56V37.27A6.22,6.22,0,0,0,14,36.71a6.3,6.3,0,0,1,5.28,0,6.11,6.11,0,0,0,5.11,0,6.45,6.45,0,0,1,2.64-.58,6.38,6.38,0,0,1,2.64.58,6.15,6.15,0,0,0,5.13,0,6.3,6.3,0,0,1,5.28,0,6.21,6.21,0,0,0,2.55.56,6.39,6.39,0,0,0,2.58-.56,6.44,6.44,0,0,1,2.63-.58,6.37,6.37,0,0,1,2.63.58,5.92,5.92,0,0,0,2.47.56"/></svg>