<svg id="Layer_1" data-name="Layer 1" xmlns="http://www.w3.org/2000/svg" viewBox="0 0 64 64"><defs><style>.cls-1{fill:#ed1c24;}.cls-2{fill:#231f20;}</style></defs><title>Artboard 1 copy 47</title><path class="cls-1" d="M31.94,2.26A29.79,29.79,0,1,0,61.72,32.05,29.82,29.82,0,0,0,31.94,2.26ZM51.32,47.41l-1.4-1.35A9.54,9.54,0,0,1,45,48.33L47.8,51a24.73,24.73,0,0,1-35.35-34.2l9.41,9.11a3.78,3.78,0,0,1,.72-1.17l2.62-2.61-9.26-9A24.73,24.73,0,0,1,51.32,47.41Z"/><path class="cls-2" d="M52.11,38.92a8.47,8.47,0,1,0-8.47,8.47,8.47,8.47,0,0,0,8.47-8.47Zm-1.57,0a6.9,6.9,0,1,1-6.9-6.9,6.9,6.9,0,0,1,6.9,6.9ZM42,24.72H37l-3.33-5.21a2.55,2.55,0,0,0-2-1.17,2.35,2.35,0,0,0-1.9.76l-6.4,6.41a2.49,2.49,0,0,0-.65,1.69A2.54,2.54,0,0,0,24,29.42L30.5,33v6.82a1.75,1.75,0,0,0,3.49,0V31.34a2,2,0,0,0-1.31-2.1l-3.77-2,4.06-4,2,3.07a1.46,1.46,0,0,0,1.26.76H42a1.19,1.19,0,1,0,0-2.36Zm-.71-9.13c.22,0,.22-.21.17-.37a6.42,6.42,0,0,0-5.72-4.07c-1.44-.05-2.65.44-3.05,1.56-.43,0-.36.24-.43.78a3.6,3.6,0,0,0-.1,2.33c.22.64.52.83.86.79v.11a3,3,0,0,0,6.05,0,2.94,2.94,0,0,0-.22-1.12l.21,0ZM20.87,30.37a8.47,8.47,0,1,0,8.47,8.47,8.47,8.47,0,0,0-8.47-8.47Zm6.9,8.47a6.9,6.9,0,1,1-6.9-6.9,6.9,6.9,0,0,1,6.9,6.9Z"/></svg>