<svg id="Layer_1" data-name="Layer 1" xmlns="http://www.w3.org/2000/svg" viewBox="0 0 64 64"><defs><style>.cls-1{fill:#ffd200;}.cls-2{fill:#231f20;}</style></defs><title>Artboard 1 copy 37</title><polyline class="cls-1" points="8.13 56.24 33.58 10.23 55.86 56.24 8.13 56.24"/><path class="cls-2" d="M61.47,56.91,36.45,4a2.94,2.94,0,0,0-5.35-.16L2.59,56.75c-1.21,2.24.26,5.08,2.63,5.08H58.76c2.29,0,3.77-2.68,2.71-4.92ZM8.9,56.16,33.61,10.28,55.3,56.16Z"/><polygon class="cls-2" points="31.16 43.76 35.94 43.76 37.03 24.18 30.07 24.18 31.16 43.76 31.16 43.76"/><polygon class="cls-2" points="31.16 52.63 35.94 52.63 35.94 47.23 31.16 47.23 31.16 52.63 31.16 52.63"/></svg>