<svg id="Layer_1" data-name="Layer 1" xmlns="http://www.w3.org/2000/svg" viewBox="0 0 64 64"><defs><style>.cls-1{fill:#fff;}.cls-2{fill:#231f20;}</style></defs><title>Artboard 1 copy 27</title><path class="cls-1" d="M32,60.08A28.11,28.11,0,1,0,3.88,32,28.1,28.1,0,0,0,32,60.08Z"/><path class="cls-2" d="M32,2.17A29.84,29.84,0,1,0,61.82,32,29.87,29.87,0,0,0,32,2.17Zm0,55.56A25.73,25.73,0,1,1,57.73,32,25.76,25.76,0,0,1,32,57.73Z"/><path class="cls-2" d="M34.54,31.09V24.28a4,4,0,0,0-4.06-3.9h-7a4,4,0,0,0-4.11,3.9v8.09a1.39,1.39,0,0,0,2.78,0V25.2h.73V48.64a1.85,1.85,0,0,0,3.69,0V35.07h.78V48.64a1.87,1.87,0,0,0,3.73,0V25.2h.73v5.89a1.38,1.38,0,0,0,2.75,0ZM30.15,16.58a3.19,3.19,0,0,0-6.37,0,3.19,3.19,0,0,0,6.37,0Z"/><path class="cls-2" d="M33.21,30.94a.54.54,0,0,1-.1-.3.76.76,0,0,1,.82-.66.79.79,0,0,1,.8.53c.26.56.45,1,.73,1.66a2.65,2.65,0,0,0,2.38,1.72,5.67,5.67,0,0,0,.72.06h3.8c1.22,0,1.72.27,2,1.21a3.41,3.41,0,0,1,.19,1.14c0,1.67,0,4.07,0,4.22a.84.84,0,0,1-1.64,0s0-1.91,0-3.47a1.17,1.17,0,0,0,0-.46.3.3,0,0,0-.33-.21c-.24,0-.22.12-.25.21a1.74,1.74,0,0,0,0,.46V49.78h0c0,.36-.41.66-.92.66s-.93-.3-.93-.66V41.84h-.79v7.95h0c0,.36-.4.66-.89.66s-.89-.3-.89-.66v-.73c0-4.26,0-8.52,0-12.78,0-.41-.13-.63-.65-.75A11.7,11.7,0,0,1,35.56,35a1.67,1.67,0,0,1-.83-.59c-.54-1.13-1-2.27-1.52-3.46Z"/><path class="cls-2" d="M38.23,31.67A1.75,1.75,0,0,1,40,29.94a1.77,1.77,0,0,1,1.73,1.78,1.76,1.76,0,0,1-3.51,0Z"/></svg>