<svg id="Layer_1" data-name="Layer 1" xmlns="http://www.w3.org/2000/svg" viewBox="0 0 64 64"><defs><style>.cls-1{fill:#ed1c24;}.cls-2{fill:#231f20;}</style></defs><title>Artboard 1 copy 49</title><polygon class="cls-1" points="39.61 35.98 37.34 33.79 34.73 38.28 39.61 43 39.61 35.98"/><path class="cls-1" d="M32,2.17A29.83,29.83,0,1,0,61.82,32,29.87,29.87,0,0,0,32,2.17ZM51.4,47.39l-5.76-5.57v7L47.88,51A24.77,24.77,0,0,1,12.47,16.75L33,36.62l2.6-4.49L16,13.11A24.77,24.77,0,0,1,51.4,47.39Z"/><polygon class="cls-2" points="44.66 49.98 44.66 13.52 40.59 13.52 40.59 48.37 18.48 48.37 18.48 49.98 40.59 49.98 43.76 49.98 44.66 49.98 44.66 49.98"/><path class="cls-2" d="M29.48,45a.93.93,0,1,1,.47.13,1,1,0,0,1-.47-.13Zm1.95-3.36a.94.94,0,1,1,1.28-.34.94.94,0,0,1-.81.47.88.88,0,0,1-.47-.13Zm1.94-3.36A.93.93,0,0,1,33,37a.94.94,0,1,1,.81,1.41.9.9,0,0,1-.47-.13Zm2-3.36a.94.94,0,0,1,.94-1.62.94.94,0,0,1,.35,1.28,1,1,0,0,1-.82.47.9.9,0,0,1-.47-.13Zm1.94-3.36a.94.94,0,1,1,.48.13.94.94,0,0,1-.48-.13Zm2-3.35a.94.94,0,1,1,.95-1.63.93.93,0,0,1,.34,1.28,1,1,0,0,1-.81.47,1,1,0,0,1-.48-.12Z"/><path class="cls-2" d="M27,47.89a.94.94,0,1,1,1.33,0,.93.93,0,0,1-1.33,0Zm-2.44-2.43a.94.94,0,1,1,1.34,0,.94.94,0,0,1-1.34,0ZM22.13,43a.94.94,0,1,1,1.33,0,1,1,0,0,1-.67.27.93.93,0,0,1-.66-.27ZM19.7,40.6a.94.94,0,1,1,1.32,0,.94.94,0,0,1-1.32,0Z"/><path class="cls-2" d="M21.19,34.89a4.73,4.73,0,0,0-4.51-4.71,3.86,3.86,0,0,0-.2,1.19,3.94,3.94,0,0,0,3.93,3.93,3.65,3.65,0,0,0,.74-.08C21.16,35.11,21.19,35,21.19,34.89Z"/><path class="cls-2" d="M20.41,35.78A4.41,4.41,0,0,1,16,31.37a4.23,4.23,0,0,1,.19-1.19A4.74,4.74,0,0,0,11.8,34a4.34,4.34,0,0,1,.62-.06,4.41,4.41,0,0,1,4.41,4.42,4.29,4.29,0,0,1-.2,1.24,4.71,4.71,0,0,0,4.47-3.9A3.84,3.84,0,0,1,20.41,35.78Z"/><path class="cls-2" d="M12.42,34.43c-.23,0-.45,0-.67.07,0,.13,0,.26,0,.39a4.73,4.73,0,0,0,4.42,4.71,3.88,3.88,0,0,0,.22-1.23A3.94,3.94,0,0,0,12.42,34.43Z"/></svg>