<svg id="Layer_1" data-name="Layer 1" xmlns="http://www.w3.org/2000/svg" viewBox="0 0 64 64"><defs><style>.cls-1{fill:#ed1c24;}.cls-2{fill:#231f20;}</style></defs><title>Artboard 1 copy 65</title><path class="cls-1" d="M32,2.17A29.79,29.79,0,1,0,61.82,32,29.83,29.83,0,0,0,32,2.17ZM51.41,47.32l-4.36-4.21-.24.15-.6.38h-.07l-.16.13-.58.42-.49,0-.61,0-.33-.3-.33-.29-.12.11-.52.48-.46,0-.67,0-.41-.3-.69-.54v0h-.06l-.08,0-.42.16,7.69,7.44A24.74,24.74,0,0,1,12.53,16.73l4.71,4.55.3-.21h0l-.2-.2-.21-.2L17,20.51c-.05-.1-.12-.2-.18-.3l-.19-.32V18.64l.57-.39.34-.24h0l-.22-.21-.2-.2L17,17.43l-.18-.3-.18-.31V15.56l.59-.39.32-.21v-.09l.19-.13L16,13.09A24.73,24.73,0,0,1,51.41,47.32Z"/><path class="cls-2" d="M46,41.83l-.17,0-.16.11-.54-.07v-.37l-.24.09v.26l-.69,0c-.23.06-.47.13-.72.18q.7,0,1.41.06v.37l-.15.12v.14l.19.17h.16l.19-.14v-.14l-.15-.13V42l.56.07.14.13.17,0,.19-.12V42L46,41.83Z"/><path class="cls-2" d="M34.84,43.51V41.73l-.24-.06v1.92c-.78.26-1.56.54-2.35.82V42.07l1.81-.57-.35-.12-1.46.45V40.74L32,40.6v1.31l-2.35.73V40.22l1.26-.35-.21-.18-1,.27a3.19,3.19,0,0,1-.3.42v2.33c-.78.23-1.57.45-2.35.65V41.7l-.23,0v1.68c-.78.19-1.57.35-2.35.48V41.31c.52-.06,1-.15,1.55-.25l0-.25c-.51.1-1,.18-1.53.25V38.47c.62-.06,1.24-.14,1.87-.24l.05-.27c-.64.11-1.28.2-1.92.25V35.63c.64,0,1.28-.11,1.92-.19l0-.25c-.63.08-1.25.15-1.88.18V32.79c.51,0,1,0,1.52-.09l0-.25c-.51,0-1,.07-1.54.08V30c.78,0,1.57,0,2.35-.08v1.77l.23,0V29.85c.78-.06,1.57-.15,2.35-.25V32l-1,.14.31.2.66-.1V33a3.55,3.55,0,0,1,.23.31V32.23L32,31.82v1l.23-.13v-.86l2.25-.41.1-.24c-.76.12-1.59.28-2.35.41V29.2l2.35-.33v2.26a.85.85,0,0,1,.25-.36c0-.51,0-1.43,0-1.93.78-.1,1.56-.19,2.34-.25v.7l.24-.13v-.59l2.39-.1c.33-.09-.14-.15.08-.21-.65,0-1.83,0-2.47.09V26.18q1.17,0,2.34,0v3.25l.24.2V26.19a20.67,20.67,0,0,1,2.34.26v2c-.35,0-.71-.09-1.06-.12h0l-1.41-.1v.21c.41,0,2,.14,2.45.2v2l-.88,0,.24.22.64,0V31h0l.23.18v-.26a17.46,17.46,0,0,1,2.34.43v.45l.24.09v-.48l.57.17.13.16.17.05.19-.08v-.14L46,31.35l-.17-.05-.17.08-.53-.16V29.29l.57.19.13.16.08.05H46l.19-.08v-.14L46,29.26,46,29.2h-.09l-.17.07-.53-.18V27.16l.57.21.13.16.08.06H46l.19-.07v-.14L46,27.16,46,27.11h-.09l-.17.08-.53-.2V25l.57.23.13.16.08.06H46l.19-.06V25.3L46,25.07,46,25h-.09l-.17.07-.53-.22V22.91l.57.25.13.17.08.06H46l.19-.06v-.14L46,23,46,22.91h-.09l-.17.06-.53-.23V20.79q.29.12.57.27l.13.17.08.06h0l0,0h0l.19,0v-.14L46,20.88,46,20.81h-.09l-.17.05-.53-.25v-.53l.15-.06v-.14l-.19-.23-.07-.07H45l-.19.07v.14l.15.19v.54a20,20,0,0,0-2.34-.85v-.56l.15-.08v-.14l-.19-.22-.07-.05h-.1l-.18.11v.14l.15.18v.56A21.76,21.76,0,0,0,40,19.07v-.58l.15-.11v-.15L40,18l-.09,0h0l-.07,0-.18.14v.15l.15.16V19c-.78-.12-1.56-.2-2.34-.25v-.61l.15-.12v-.16l-.19-.19-.09,0h0l-.08,0-.18.16V18l.15.15v.6c-.78,0-1.56-.07-2.34-.08v-.63l.15-.14v-.16l-.19-.18-.09,0h0l-.08,0-.18.18v.16l.15.15v.63H32.25V18l.15-.15v-.17l-.18-.18h-.17l-.19.19v.17L32,18v.65c-.78,0-1.56,0-2.35,0V18l.15-.14v-.18l-.18-.19-.09,0h0l-.08,0-.19.19v.17l.16.17v.67c-.78,0-1.57,0-2.35-.09v-.7l.15-.14v-.18l-.18-.21-.09,0h0l-.07,0-.19.19v.18l.16.18v.69c-.78-.06-1.57-.13-2.35-.25V17.6l.15-.13v-.19l-.19-.23L24.38,17h0l-.06,0-.19.17v.19l.16.2v.71a21.93,21.93,0,0,1-2.35-.51V17l.15-.13v-.19l-.19-.26-.07-.06h0l-.06,0-.18.15v.19l.16.23v.74a20.14,20.14,0,0,1-2.35-.85V16.1l.15-.1v-.2c-.07-.1-.13-.2-.19-.3l-.07-.07h-.1l-.18.13v.2l.16.26v.76l-.54-.26-.17-.28-.08-.08h-.09l-.19.12v.2l.19.32.07.07h0l0,0,0,0,.13-.09a6.11,6.11,0,0,0,.58.27V19.8l-.54-.24-.17-.28-.08-.07h-.09l-.19.13v.2c.07.1.13.21.19.31l.07.07h.1l.13-.1.58.25v2.76l-.54-.23-.17-.27-.17-.07-.19.13v.21c.07.1.13.2.19.3l.17.07.13-.1.58.23v2.75l-.55-.2-.16-.26-.17-.07-.19.14v.2c.07.1.13.2.19.3l.17.06.13-.1.58.21v2.75c-.19-.05-.36-.12-.55-.18l-.16-.26-.17-.06-.19.15v.2l.19.29.17.06.13-.11.58.19v2.75l-.55-.16-.16-.25-.17-.06-.19.15v.2l.19.29.17.05.13-.12.58.18v2.75l-.55-.15-.16-.24-.17,0-.19.16v.2l.19.28.17,0,.13-.13.58.15V38l-.55-.13-.16-.24-.17,0-.19.16v.21l.19.27.17,0,.13-.13.58.13V41l-.55-.1-.16-.23-.17,0-.19.17V41l.19.27.17,0,.14-.13.57.11V44l-.55-.08-.16-.23-.17,0-.19.18v.2l.19.26.17,0,.14-.14.57.09v2.75L18.57,47l-.16-.21-.17,0-.19.18v.2l.19.26.17,0,.14-.15.57.08v.53L19,48v.2l.18.23h.17l.19-.2v-.2l-.15-.18v-.54a15.36,15.36,0,0,0,2.35,0v.52l-.16.19v.19l.18.2.17,0,.19-.22V48l-.15-.16v-.52A21,21,0,0,0,24.28,47v.5l-.16.21v.18l.19.17.16,0,.19-.25v-.18l-.15-.13V47c.78-.16,1.57-.35,2.35-.57v.48l-.16.21v.19l.19.14.17-.05.18-.25V47l-.15-.12v-.49c.78-.22,1.57-.47,2.35-.74v.47l-.16.22v.17l.19.13.17-.06.18-.25v-.18l-.15-.1v-.48c.79-.26,1.57-.54,2.35-.82v.46l-.16.21v.17l.19.12.17-.07.18-.25v-.17l-.15-.09v-.46c.79-.28,1.57-.56,2.35-.82v.44l-.15.2v.16l.18.12.17-.06.19-.24v-.17l-.15-.09v-.44l.82-.27v-.22l-.81.26Zm7.74-23.67a19.92,19.92,0,0,1,2.34.84v1.94a19.3,19.3,0,0,0-2.34-.76v-2Zm0,2.22a17.7,17.7,0,0,1,2.34.76v1.94a17.26,17.26,0,0,0-2.34-.69v-2Zm0,2.22a15.82,15.82,0,0,1,2.34.67v1.94a16.75,16.75,0,0,0-2.34-.6v-2Zm0,2.21a18.22,18.22,0,0,1,2.34.59V29a17.86,17.86,0,0,0-2.34-.52v-2Zm0,2.21a16.37,16.37,0,0,1,2.34.52v1.93a17.46,17.46,0,0,0-2.34-.43v-2ZM40,19.28a21.7,21.7,0,0,1,2.34.5v2A21.33,21.33,0,0,0,40,21.37V19.28Zm0,2.3q1.17.15,2.34.42v2A20.94,20.94,0,0,0,40,23.68v-2.1Zm0,2.31a23.51,23.51,0,0,1,2.34.33v2A20.7,20.7,0,0,0,40,26V23.89ZM37.42,19q1.17.08,2.34.24v2.11q-1.17-.13-2.34-.18V19Zm0,2.39c.78,0,1.56.08,2.34.16v2.11q-1.17-.09-2.34-.09V21.39Zm0,2.4c.23,0,.46,0,.69,0h.51l1.14.07V26c-.4,0-.8,0-1.21,0h0l-1.1,0V23.79ZM26.86,29.62c-.78.05-1.57.08-2.35.07V27.11c.78,0,1.57,0,2.35,0v2.51Zm0-2.76c-.78,0-1.57,0-2.35,0V24.27c.78.06,1.57.08,2.35.08v2.51Zm2.58,2.5c-.78.1-1.57.18-2.35.24V27.1c.78,0,1.57-.1,2.35-.17v2.43Zm0-2.67c-.78.07-1.57.13-2.35.16v-2.5c.78,0,1.57,0,2.35-.09v2.43ZM32,31.58,29.67,32V29.57c.79-.1,1.57-.22,2.35-.33v2.34ZM32,29c-.78.11-1.56.23-2.35.33V26.91L32,26.66V29Zm0-2.58-2.35.25V24.25l.41,0h0L32,24.08v2.34Zm2.58,2.22L32.25,29V26.63c.79-.09,1.57-.18,2.35-.25v2.26Zm2.58-.27c-.78.06-1.56.15-2.34.24V26.36l.94-.08c.47,0,.93-.07,1.4-.09v2.18Zm-2.34-9.46c.78,0,1.56,0,2.34.07v2.19l-1.17,0H34.84V18.91Zm0,2.48,1.24,0h1.1v2.19c-.78,0-1.56,0-2.34.08V21.39Zm0,2.48c.78,0,1.56-.08,2.34-.08V26l-1.1.06-.41,0-.52,0h0l-.31,0V23.87Zm-2.59-5H34.6v2.27l-2.35.08V18.91Zm0,2.57,2.35-.08v2.26l-2.35.16V21.48Zm0,2.58,2.35-.17v2.26l-2.35.24V24.06Zm-2.58-5.14H32v2.35l-2.35.08V18.92Zm0,2.67L32,21.5v2.34c-.78.06-1.56.12-2.35.16V21.59Zm-2.58-2.75c.78.05,1.57.07,2.35.08v2.43H27.09V18.84Zm0,2.76h1.08l1.27,0V24c-.78,0-1.57.07-2.35.08V21.6Zm-2.58-3c.78.12,1.57.2,2.35.25v2.51c-.78,0-1.57-.08-2.35-.17V18.58Zm0,2.84c.78.09,1.57.14,2.35.17V24.1c-.78,0-1.57,0-2.35-.09V21.42Zm-2.58-3.37a21.87,21.87,0,0,0,2.35.5v2.59a21.51,21.51,0,0,1-2.35-.43V18.05Zm-2.58-.9A18.32,18.32,0,0,0,21.7,18v2.68a17.89,17.89,0,0,1-2.35-.77V17.15Zm2.35,30a15.37,15.37,0,0,1-2.35,0V44.33a16.8,16.8,0,0,0,2.35.1v2.68Zm0-2.94a16.82,16.82,0,0,1-2.35-.12V41.31a15.5,15.5,0,0,0,2.35.18v2.68Zm0-2.94a15.53,15.53,0,0,1-2.35-.2V38.29a17.09,17.09,0,0,0,2.35.27v2.67Zm0-2.94A17.11,17.11,0,0,1,19.35,38V35.27a15.88,15.88,0,0,0,2.35.35v2.67Zm0-2.94A15.91,15.91,0,0,1,19.35,35V32.25a17.6,17.6,0,0,0,2.35.43v2.67Zm0-2.94A16.18,16.18,0,0,1,19.35,32V29.23a18,18,0,0,0,2.35.51v2.67Zm0-2.94A15.24,15.24,0,0,1,19.35,29V26.21a16.83,16.83,0,0,0,2.35.59v2.67Zm0-2.94a16.88,16.88,0,0,1-2.35-.6V23.19a18.83,18.83,0,0,0,2.35.67v2.67Zm0-2.93a19,19,0,0,1-2.35-.69V20.17a17.76,17.76,0,0,0,2.35.75V23.6Zm2.58,23.18a21,21,0,0,1-2.35.31V44.43a23.39,23.39,0,0,0,2.35-.24v2.59Zm0-2.85a20.76,20.76,0,0,1-2.35.23V41.49a18.54,18.54,0,0,0,2.35-.15v2.59Zm0-2.85a20.6,20.6,0,0,1-2.35.15V38.56a18.45,18.45,0,0,0,2.35-.07v2.59Zm0-2.85a20.5,20.5,0,0,1-2.35.07V35.63a20.47,20.47,0,0,0,2.35,0v2.59Zm0-2.84a23,23,0,0,1-2.35,0V32.7a20.53,20.53,0,0,0,2.35.1v2.59Zm0-2.85a20.53,20.53,0,0,1-2.35-.1V29.77a20.65,20.65,0,0,0,2.35.18v2.59Zm0-2.85a23.23,23.23,0,0,1-2.35-.18V26.84a23.45,23.45,0,0,0,2.35.26v2.59Zm0-2.85a20.88,20.88,0,0,1-2.35-.27V23.91a21.12,21.12,0,0,0,2.35.34v2.59Zm0-2.85a19,19,0,0,1-2.35-.35V21a21.46,21.46,0,0,0,2.35.42V24Zm2.58,22.19c-.78.21-1.57.41-2.35.56V44.16c.78-.13,1.57-.3,2.35-.49v2.51Zm2.58-.8c-.78.26-1.57.51-2.35.73v-2.5c.78-.2,1.57-.42,2.35-.66v2.43ZM32,44.49c-.78.27-1.56.55-2.35.81V42.88L32,42.14v2.35Z"/><polygon class="cls-2" points="42.58 42.38 42.58 42.14 42.34 42.17 42.34 42.4 42.19 42.55 42.19 42.69 42.37 42.84 42.54 42.82 42.73 42.65 42.73 42.51 42.58 42.38 42.58 42.38"/><path class="cls-2" d="M38.1,29.16A26.18,26.18,0,0,0,35,32.24a18.64,18.64,0,0,1,4.79-.59,17.41,17.41,0,0,1,2,.1c-.75-.6-3.65-2.59-3.65-2.59Z"/><path class="cls-2" d="M36,41.37a3.77,3.77,0,0,1,.61,2s4.22-1.2,4.32-1.63c-.37,0-.76,0-1.16,0A19.46,19.46,0,0,1,36,41.37Z"/><path class="cls-2" d="M49.41,36.69S47.69,32,39.78,32c-5.05,0-6.32,1.25-9.54,3.38a11.2,11.2,0,0,0-3.46-2.84s.6,3.66,1.14,4.17c-.54.5-1.14,4.68-1.14,4.68a35.91,35.91,0,0,0,3.4-4.28c2.08,2,4.55,4.3,9.6,4.3s7.67-2,8.81-3.38a4.56,4.56,0,0,0,.82-1.32Z"/></svg>