<svg id="Layer_1" data-name="Layer 1" xmlns="http://www.w3.org/2000/svg" viewBox="0 0 64 64"><defs><style>.cls-1{fill:#fff;}.cls-2{fill:#ed1c24;}.cls-3{fill:#231f20;}</style></defs><title>Artboard 1 copy 53</title><path class="cls-1" d="M32.19,57.45A25.37,25.37,0,1,0,6.83,32.09,25.36,25.36,0,0,0,32.19,57.45Z"/><path class="cls-2" d="M32,2.17A29.83,29.83,0,1,0,61.82,32,29.87,29.87,0,0,0,32,2.17ZM51.4,47.39l-2.81-2.72a5.22,5.22,0,0,1-.72-.27,4.33,4.33,0,0,0-3.7,0,6.29,6.29,0,0,1-2.52.56l6.23,6A24.77,24.77,0,0,1,12.47,16.75l8.34,8.07,1.18-2a4.73,4.73,0,0,1,2-2l-8-7.71A24.77,24.77,0,0,1,51.4,47.39Z"/><path class="cls-3" d="M29.18,21.53a3.34,3.34,0,1,0-3.35-3.34,3.35,3.35,0,0,0,3.35,3.34Z"/><path class="cls-3" d="M49.73,43.79a3.58,3.58,0,0,1-1.41-.34,5.4,5.4,0,0,0-4.58,0,5.35,5.35,0,0,1-4.43,0A5.52,5.52,0,0,0,37,42.94a5.44,5.44,0,0,0-2.28.51,5.53,5.53,0,0,1-2.22.48,5.46,5.46,0,0,1-2.22-.48,5.37,5.37,0,0,0-4.57,0,5.37,5.37,0,0,1-4.44,0,5.37,5.37,0,0,0-4.57,0,8.14,8.14,0,0,1-2.72.47s-2.21-3.63-2.21-3.79,3.57.71,4.93,0a5.37,5.37,0,0,1,4.57,0,5.37,5.37,0,0,0,4.44,0,5.37,5.37,0,0,1,4.57,0,5.3,5.3,0,0,0,2.22.48,5.37,5.37,0,0,0,2.22-.48A5.44,5.44,0,0,1,37,39.61a5.52,5.52,0,0,1,2.29.51,5.35,5.35,0,0,0,4.43,0,5.4,5.4,0,0,1,4.58,0,10,10,0,0,0,3,.73l-1.63,2.94Z"/><path class="cls-3" d="M11.3,38.42a8.75,8.75,0,0,1,1.69.44,5.3,5.3,0,0,0,2.22.48,5.37,5.37,0,0,0,2.22-.48,5.37,5.37,0,0,1,4.57,0,5.3,5.3,0,0,0,2.22.48,5.37,5.37,0,0,0,2.22-.48,5.27,5.27,0,0,1,1.38-.42l5.75-6.59H26.16l3.08-5.27L36,30.26a1.68,1.68,0,1,0,1.63-2.89L28,22c-3.55-2-5.05,1.3-5.05,1.3l-5,8.39H10.11s.34,5.28,1.19,6.69Z"/><path class="cls-3" d="M29.61,38.48a7.49,7.49,0,0,0,3.09.66c5.16-1.32,6.48-.39,6.73-.28a5.35,5.35,0,0,0,4.43,0,5.69,5.69,0,0,1,2.35-.34C49.55,37.17,52,31.87,52,31.87l-16.69,0-5.68,6.63Z"/></svg>