<svg id="Layer_1" data-name="Layer 1" xmlns="http://www.w3.org/2000/svg" viewBox="0 0 64 64"><defs><style>.cls-1{fill:#ed1c24;}.cls-2{fill:#231f20;}</style></defs><title>Artboard 1 copy 63</title><path class="cls-1" d="M32.47,36.14l9.76,9.44.24-.08a6.34,6.34,0,0,1,5.32,0,4.14,4.14,0,0,0,1.72.38h.29L36.89,33.39Z"/><path class="cls-1" d="M32,2.21A29.83,29.83,0,1,0,61.82,32,29.87,29.87,0,0,0,32,2.21ZM51.4,47.43l-.07-.07-.25.32A29.6,29.6,0,0,1,47.8,51l.08.08A24.77,24.77,0,0,1,12.47,16.79L23.89,27.84a4.4,4.4,0,0,1,.51-.05,4,4,0,0,1,3.78,2.72,4,4,0,0,1,1-1.15L31.35,28,16,13.15A24.77,24.77,0,0,1,51.4,47.43Z"/><path class="cls-2" d="M49.51,47.13v-.21a5.16,5.16,0,0,1-2.15-.47,5.3,5.3,0,0,0-4.45,0,5.18,5.18,0,0,1-4.31,0,5.27,5.27,0,0,0-4.44,0,5.18,5.18,0,0,1-4.31,0,5.27,5.27,0,0,0-4.44,0,5.2,5.2,0,0,1-4.32,0,5.27,5.27,0,0,0-4.44,0,5.1,5.1,0,0,1-2.07.46,24,24,0,0,0,2.67,2.57,5.11,5.11,0,0,1,1.62-.29,5.16,5.16,0,0,1,2.22.5,5.3,5.3,0,0,0,4.32,0,5.18,5.18,0,0,1,4.44,0,5.28,5.28,0,0,0,4.31,0,5.18,5.18,0,0,1,4.44,0,5.28,5.28,0,0,0,4.31,0A5,5,0,0,1,47,49.55a24.32,24.32,0,0,0,2.55-2.42ZM48.22,17a2.07,2.07,0,0,0-3.58-2.06l-6,9.76L29.85,30a4.19,4.19,0,0,0-1.05,1.48L22,43.28A1.66,1.66,0,0,0,24.82,45l5-8.3L40,30.22a2.84,2.84,0,0,0,1.06-1.06L48.22,17ZM27.35,31.79a3,3,0,1,0-3,3,2.95,2.95,0,0,0,3-3Z"/></svg>