<svg id="Layer_1" data-name="Layer 1" xmlns="http://www.w3.org/2000/svg" viewBox="0 0 64 64"><defs><style>.cls-1{fill:#231f20;}.cls-2{fill:#fff;}</style></defs><title>Artboard 1 copy 16</title><path class="cls-1" d="M32,61.83A29.83,29.83,0,1,1,61.82,32,29.83,29.83,0,0,1,32,61.83Z"/><path class="cls-2" d="M45.77,46.68V44.36l-2-1.56-1.42,1.42v2.46Zm-5.08-6,.5-4-3.92-.53-.39,2.14,1,2,2.78.4Zm-1-6.46,1.45-2.4v0l-2.11-1.29-1.23.23-1.44,2.39v.06l2.11,1.28,1.22-.22Zm-8.62-5,4.37-.52L35,22.89l-6.07.57.43,3.38,1.78,2.36Zm-1.35-8.83,2-.94-.94-2-2,.93.93,2Zm-.89,1.7L25.53,21,24.4,24.27l3.34,1.12,1.11-3.32Zm1.66,10h1.28l.92-.69L31.4,29.59l-.89.67V32Zm2.84,4.46L22.74,23.66,20.44,18l-2.24-.68V45.23a1.39,1.39,0,0,0,1.39,1.4l19.08,0-1.56-5.56-3.77-4.57Z"/></svg>