<svg id="Layer_1" data-name="Layer 1" xmlns="http://www.w3.org/2000/svg" viewBox="0 0 64 64"><defs><style>.cls-1{fill:#ed1c24;}.cls-2{fill:#231f20;}</style></defs><title>Artboard 1 copy 56</title><path class="cls-1" d="M32,2.17A29.83,29.83,0,1,0,61.82,32,29.86,29.86,0,0,0,32,2.17ZM51.4,47.39,49,45a2.72,2.72,0,0,1-2.72,2.08H43.85l4,3.89A24.77,24.77,0,0,1,12.47,16.75l2,1.89A1.2,1.2,0,0,1,15,18.5h4.86V18a1.11,1.11,0,0,1,.36-.8L16,13.11A24.77,24.77,0,0,1,51.4,47.39Z"/><path class="cls-2" d="M19,22.32H45.56a2.54,2.54,0,0,1,2.64,2.39V44a2.54,2.54,0,0,1-2.64,2.39H19A2.54,2.54,0,0,1,16.36,44V24.71A2.54,2.54,0,0,1,19,22.32Zm-3.22-3.17h4.63v-.49a1.06,1.06,0,0,1,1.05-1.05h3.13a1.05,1.05,0,0,1,1,1.05v.49h13v-.49a1.06,1.06,0,0,1,1-1.05h3.13a1.05,1.05,0,0,1,1,1.05v.49h4.37a1.17,1.17,0,0,1,1.18,1.17v.19a1.18,1.18,0,0,1-1.18,1.18H15.78a1.18,1.18,0,0,1-1.18-1.18v-.19a1.17,1.17,0,0,1,1.18-1.17Zm5.33,5.41v1h3.55v-1Zm20.8-1.26h-1v1.26H39.63v1h1.26v1.27h1V25.58h1.27v-1H41.91V23.3ZM31,27.42,25.21,38.35l6.51-1L28.45,44l10.41-9.75L31,34.92l6.31-7.5Z"/></svg>