<svg id="Layer_1" data-name="Layer 1" xmlns="http://www.w3.org/2000/svg" viewBox="0 0 64 64"><defs><style>.cls-1{fill:#231f20;}.cls-2{fill:#fff;}</style></defs><title>Artboard 1 copy 29</title><path class="cls-1" d="M31.82,60.11A28.11,28.11,0,1,0,3.72,32a28.11,28.11,0,0,0,28.1,28.11Z"/><path class="cls-2" d="M32,2.17A29.83,29.83,0,1,0,61.82,32,29.86,29.86,0,0,0,32,2.17Zm0,55.56A25.73,25.73,0,1,1,57.71,32,25.76,25.76,0,0,1,32,57.73Z"/><path class="cls-2" d="M34.54,31.09V24.28a4,4,0,0,0-4.07-3.9h-7a4,4,0,0,0-4.1,3.9v8.09a1.39,1.39,0,0,0,2.77,0V25.2h.73V48.63a1.85,1.85,0,0,0,3.7,0V35.07h.78V48.63a1.86,1.86,0,0,0,3.72,0V25.2h.73v5.89a1.38,1.38,0,0,0,2.76,0Zm-4.4-14.51a3.19,3.19,0,0,0-6.37,0,3.19,3.19,0,0,0,6.37,0Z"/><path class="cls-2" d="M33.2,30.94a.62.62,0,0,1-.09-.3.74.74,0,0,1,.82-.66.8.8,0,0,1,.8.53c.25.56.45,1,.72,1.66a2.66,2.66,0,0,0,2.38,1.72,4.48,4.48,0,0,0,.73,0h3.8c1.22,0,1.71.27,2,1.21a3.38,3.38,0,0,1,.2,1.14c0,1.67,0,4.06,0,4.22a.84.84,0,0,1-1.64,0s0-1.91,0-3.47a1.4,1.4,0,0,0,0-.46.32.32,0,0,0-.34-.21c-.23,0-.22.12-.25.2a1.84,1.84,0,0,0,0,.47V49.78h0c0,.36-.42.65-.93.65s-.93-.29-.93-.65V41.84h-.77v7.95h0c0,.36-.4.65-.9.65s-.88-.29-.88-.65v-.73c0-4.26,0-8.52,0-12.78,0-.41-.13-.64-.64-.75A12.54,12.54,0,0,1,35.56,35a1.58,1.58,0,0,1-.83-.6c-.55-1.12-1-2.27-1.53-3.45Z"/><path class="cls-2" d="M38.22,31.67A1.76,1.76,0,0,1,40,29.93a1.78,1.78,0,0,1,1.74,1.79,1.76,1.76,0,0,1-3.52,0Z"/></svg>