<svg id="Layer_1" data-name="Layer 1" xmlns="http://www.w3.org/2000/svg" viewBox="0 0 64 64"><defs><style>.cls-1{fill:#ed1c24;}.cls-2{fill:#231f20;}.cls-3{fill:#fff;}</style></defs><title>Artboard 1 copy 45</title><path class="cls-1" d="M32,2.17A29.83,29.83,0,1,0,61.82,32,29.86,29.86,0,0,0,32,2.17ZM51.4,47.39l-6-5.8v5.07a2.07,2.07,0,0,1-.56,1.41l3,2.93A24.77,24.77,0,0,1,12.47,16.75L31.14,34.81V28.1c0-.09,0-.19,0-.29L16,13.11A24.77,24.77,0,0,1,51.4,47.39Z"/><path class="cls-2" d="M40.42,23.11v-8.3H36.13V23.1a5.16,5.16,0,0,0-3.94,5V46.66a1,1,0,0,0,1,1H43.32a1,1,0,0,0,1-1V28.1a5.15,5.15,0,0,0-3.93-5"/><polygon class="cls-2" points="40.51 12.46 36 12.46 36 14.34 40.51 14.34 40.51 12.46 40.51 12.46"/><path class="cls-2" d="M27.71,44a1.55,1.55,0,1,0-1.55-1.55A1.55,1.55,0,0,0,27.71,44"/><path class="cls-2" d="M25.1,47.05a1.55,1.55,0,1,0-1.55-1.55,1.55,1.55,0,0,0,1.55,1.55"/><path class="cls-2" d="M30.35,47.05A1.55,1.55,0,1,0,28.8,45.5a1.55,1.55,0,0,0,1.55,1.55"/><path class="cls-2" d="M20.87,42.62a1.42,1.42,0,0,0-1.45,1.45v5.47A1.42,1.42,0,0,0,20.87,51h.45a1.42,1.42,0,0,0,1.45-1.45V44.07a1.42,1.42,0,0,0-1.45-1.45Z"/><polyline class="cls-3" points="19.42 47.33 22.77 47.33 22.77 46.27 19.42 46.27"/><path class="cls-2" d="M23.53,49.54A1.42,1.42,0,0,0,25,51h5.47a1.42,1.42,0,0,0,1.45-1.45v-.45a1.42,1.42,0,0,0-1.45-1.45H25a1.42,1.42,0,0,0-1.45,1.45v.45Z"/><polyline class="cls-3" points="28.24 50.99 28.24 47.64 27.19 47.64 27.19 50.99"/></svg>