<svg id="Layer_1" data-name="Layer 1" xmlns="http://www.w3.org/2000/svg" viewBox="0 0 64 64"><defs><style>.cls-1{fill:#ed1c24;}.cls-2{fill:#231f20;}</style></defs><title>Artboard 1 copy 51</title><path class="cls-1" d="M32,2.17A29.83,29.83,0,1,0,61.82,32,29.86,29.86,0,0,0,32,2.17ZM51.4,47.39l-10.31-10c-.29.54-.61,1.08-1,1.64l0,.07,0,.05a13.05,13.05,0,0,1-2,2.37l2.26,2.19h5.42V49l2.1,2A24.77,24.77,0,0,1,12.47,16.75L22,25.92a12.37,12.37,0,0,1,1.71-2.11c.59-.59,1.12-1.16,1.6-1.71l-9.3-9A24.77,24.77,0,0,1,51.4,47.39Z"/><polygon class="cls-1" points="40.06 39.16 40.12 39.05 40.13 39.04 40.06 39.16"/><path class="cls-2" d="M44.72,50.15V44.78H19.2v5.37ZM39.2,38.55c6.25-9.54-.58-13.46-.58-13.46a16.94,16.94,0,0,1-3.19,7.82c-3.51,4.14-3,6.51-2.61,7.8a10.34,10.34,0,0,0,1.07,2.54c.14.24,3.58-1.9,5.28-4.64l0-.06Zm-4.64-7.2c8.2-13.27-5.73-19-5.73-19,1.84,2.22,1.05,6.77-4.42,12.2s-1.92,11.47,0,14a12.1,12.1,0,0,0,3.86,3.63,6.94,6.94,0,0,0,3.86,1,6.77,6.77,0,0,1-1-2.78l0-.09c-.85-4.55,2.16-6.94,3.43-9Z"/></svg>