<svg id="Layer_1" data-name="Layer 1" xmlns="http://www.w3.org/2000/svg" viewBox="0 0 64 64"><defs><style>.cls-1{fill:#ed1c24;}.cls-2{fill:#231f20;}</style></defs><title>Artboard 1 copy 61</title><path class="cls-1" d="M32,2.21A29.81,29.81,0,1,0,61.77,32,29.84,29.84,0,0,0,32,2.21ZM51.36,47.4l-7.74-7.5v7L47.84,51A24.75,24.75,0,0,1,12.46,16.78L29.22,33V26L16,13.14A24.75,24.75,0,0,1,51.36,47.4Z"/><path class="cls-2" d="M54.93,32a.88.88,0,1,0,.36,1.19A.88.88,0,0,0,54.93,32Zm-2.75,1.45a.87.87,0,0,0-.37-1.19.88.88,0,1,0,.37,1.19Zm0-7.87a.86.86,0,0,0-.44-1.15.88.88,0,0,0-1.16.44.88.88,0,0,0,1.6.71Zm-3.1,8.14a.88.88,0,0,0-.36-1.19.89.89,0,0,0-1.2.36A.88.88,0,0,0,47.86,34a.89.89,0,0,0,1.2-.36Zm0-7.29a.88.88,0,0,0-.44-1.16.89.89,0,0,0-1.16.45.88.88,0,0,0,1.6.71Zm-2.8,7.42a1.13,1.13,0,0,0,.12-.48v-11a3.61,3.61,0,0,0-.3-1.39,4.64,4.64,0,0,0-.84-1.33,5.31,5.31,0,0,0-1.34-1,3.94,3.94,0,0,0-1.63-.36H34.15a4,4,0,0,0-1.63.36,4.73,4.73,0,0,0-2.23,2.3A4.2,4.2,0,0,0,30,22.38v11a1.57,1.57,0,0,0,.13.55.63.63,0,0,0,.36.42,1,1,0,0,0,.42.3,1.44,1.44,0,0,0,.54.07,1.46,1.46,0,0,0,.55-.07,2.61,2.61,0,0,0,.42-.24.93.93,0,0,0,.36-.48,1.81,1.81,0,0,0,.12-.55V23.65h.73V51.11a1.52,1.52,0,0,0,.18.79,2.59,2.59,0,0,0,.48.61,1.29,1.29,0,0,0,.6.36,3.17,3.17,0,0,0,.74.12h.11a2.22,2.22,0,0,0,.67-.12,1.43,1.43,0,0,0,.66-.36,1,1,0,0,0,.42-.55,1.93,1.93,0,0,0,.18-.85V35.82h1.09V51.17a1.67,1.67,0,0,0,.18.79,1,1,0,0,0,.43.55,1.38,1.38,0,0,0,.66.36,2.22,2.22,0,0,0,.66.12h.06a3.05,3.05,0,0,0,.79-.12,2.48,2.48,0,0,0,.67-.36,2.37,2.37,0,0,0,.42-.61,1.52,1.52,0,0,0,.18-.79V23.65h.66v9.62a1,1,0,0,0,.18.54.82.82,0,0,0,.3.49c.19.06.31.18.49.24a2.46,2.46,0,0,0,1.08,0,1,1,0,0,0,.43-.3c.18-.06.24-.24.3-.43ZM41.28,15.18a3.15,3.15,0,0,0,.24-1.27,3.31,3.31,0,0,0-.24-1.33,3.14,3.14,0,0,0-.72-1,3.36,3.36,0,0,0-1.1-.73,3.15,3.15,0,0,0-1.27-.24,3.23,3.23,0,0,0-1.32.24,3.72,3.72,0,0,0-1.75,1.75,3.31,3.31,0,0,0-.25,1.33,3.16,3.16,0,0,0,.25,1.27,3.5,3.5,0,0,0,.72,1.1,3.29,3.29,0,0,0,1,.72,3.23,3.23,0,0,0,1.32.25A3.16,3.16,0,0,0,39.46,17a3.22,3.22,0,0,0,1.82-1.82Zm-9.14-2.51a.88.88,0,1,0-1,.68.88.88,0,0,0,1-.68ZM30,15a.88.88,0,1,0-1,.68A.88.88,0,0,0,30,15Zm-1.86,6.6a.87.87,0,1,0,.52,1.12.86.86,0,0,0-.52-1.12Zm-.32-4.32a.88.88,0,0,0-.68-1,.89.89,0,0,0-1.05.68.88.88,0,0,0,1.73.36Zm-2,13.48a.88.88,0,1,0,.44,1.16.88.88,0,0,0-.44-1.16Zm-.21-11.2a.87.87,0,0,0-.68-1,.89.89,0,0,0-1.05.68.88.88,0,0,0,1.73.36ZM24,33.72a.88.88,0,1,0,.36,1.19A.88.88,0,0,0,24,33.72Zm-.7-1.17a.88.88,0,0,0-.44-1.16.89.89,0,0,0-1.16.45.88.88,0,0,0,1.6.71Zm-1.08-2.36a.86.86,0,0,0-.52-1.12.87.87,0,1,0,.52,1.12Zm-1.05-2.36a.87.87,0,0,0-.61-1.08.86.86,0,0,0-1.08.6.88.88,0,0,0,1.69.48Zm-1.06-2.37a.88.88,0,0,0-.68-1,.88.88,0,1,0,.68,1Zm-1.77,2.93A.87.87,0,1,0,19,29.47a.88.88,0,0,0-.61-1.08Zm-.22-.78a.88.88,0,1,0-1,.68.87.87,0,0,0,1-.68Zm-1.84,2a.88.88,0,1,0-1,.69.88.88,0,0,0,1-.69Zm-2.26.69a.89.89,0,0,0-1.05.68.88.88,0,0,0,1.73.36.88.88,0,0,0-.68-1Zm-1.42,1.57a.88.88,0,0,0-1.13.53A.87.87,0,0,0,12,33.48a.88.88,0,1,0,.6-1.65Zm-.72,3.45a1.73,1.73,0,0,0-1.73-1.73h-1v3.8h2.75V35.28Zm.7-.56a.88.88,0,1,0,1.13-.53.89.89,0,0,0-1.13.53Zm1.84-.88a.88.88,0,0,0,.6-1.66.89.89,0,0,0-1.13.53.88.88,0,0,0,.53,1.13Zm.42.63a.88.88,0,0,0,.36,1.19.89.89,0,0,0,1.2-.36.88.88,0,0,0-.36-1.19.89.89,0,0,0-1.2.36ZM16,42.19l1.59.94-.79,1.3A1.38,1.38,0,0,0,16.9,46l1.83,3.44a1.79,1.79,0,0,0,1.66,1h3.12V46.55l-3.74,0,1-1.67,1.68.94-2.17-3.65Zm3.89-8a.88.88,0,1,0,1.19-.36.88.88,0,0,0-1.19.36Zm-.87-1.74a.86.86,0,0,0,.44,1.15.88.88,0,0,0,1.16-.44A.86.86,0,0,0,20.21,32a.88.88,0,0,0-1.16.44Zm-.89-1.75a.87.87,0,0,0,.53,1.12.87.87,0,1,0-.53-1.12Zm-.93,3.64A.88.88,0,1,0,18.42,34a.88.88,0,0,0-1.19.36Zm-.09-2.92a.89.89,0,0,0-.58-1.1.87.87,0,0,0-1.09.58A.86.86,0,0,0,16,32a.88.88,0,0,0,1.1-.57Zm.36.73A.88.88,0,1,0,18,33.33a.87.87,0,0,0-.47-1.15Zm10.07,2.6a.88.88,0,0,0-.36-1.19.88.88,0,1,0-.83,1.55.88.88,0,0,0,1.19-.36Zm.53,4.47L27.31,38c-.23-.43-.61-.64-1.38-.64H22a1.72,1.72,0,0,0-1.68,1L18.85,41l3.43,1.82L24,39.55l1,1.66-1.63,1h4.25l1.93-3.91-1.51.94Zm-2,5.51-2.27,3.58,2.3,3.72V50.31h1.52c.49,0,.88-.18,1.3-.82L31,46.18a1.69,1.69,0,0,0,.07-1.92l-1.53-2.71-3.4,1.92L28,46.68H26.1V44.76Z"/></svg>