<svg id="Layer_1" data-name="Layer 1" xmlns="http://www.w3.org/2000/svg" viewBox="0 0 64 64"><defs><style>.cls-1{fill:#fff;}.cls-2{fill:#ed1c24;}.cls-3{fill:#231f20;}</style></defs><title>Artboard 1 copy 62</title><path class="cls-1" d="M49.5,25.77a2.06,2.06,0,0,0-2-2.11l-10.22-.24-.1,4.14,10.23.24a2.08,2.08,0,0,0,2.12-2ZM37.21,24.6l0-1.18-1.17,0h0l-21.64-.49h0A12.53,12.53,0,0,0,18,26l.95-.38.57,1,1-.67.66,1,.93-.72.71.92.88-.77.77.88.85-.81.81.85.85-.81.8.85.85-.82.81.85.85-.81.81.85.84-.81.81.85.85-.81.81.85.84-.81.82.85.07-2.92,1.15,0Zm-22,12.31-.13.12,0,.08c9.62,8.1,27.7,1.38,27.7,1.38l5.09,2.64.17,0a.42.42,0,0,0,.41-.4l-.06-.2-3-3.85L48.64,33l.06-.2a.4.4,0,0,0-.38-.41l-.18,0-5.21,2.4c-18.57-7.7-27.22-.4-27.22-.4l-.06.15.1.18,3.19,1.61a.33.33,0,0,1,.19.3.31.31,0,0,1-.33.3l-3.55-.08Zm4.47-2.46A1.22,1.22,0,1,1,20.9,35.7a1.21,1.21,0,0,1-1.18-1.25Z"/><path class="cls-2" d="M31.6,28.28l-.6.58-.74-.76L30.18,28l-.85.81-.72-.76L28.52,28l-.85.82L26.94,28l-.07-.08-.85.81L25.3,28l-.09-.08-.63.6,1.85,1.79.78,0a35.4,35.4,0,0,1,7.28.8Z"/><path class="cls-2" d="M32,2.21A29.81,29.81,0,1,0,61.78,32,29.85,29.85,0,0,0,32,2.21Zm19.4,45.18L44,40.26l-1.21-.63a47.75,47.75,0,0,1-5.21,1.44L47.85,51A24.75,24.75,0,0,1,12.46,16.78l5.33,5.15,7.43.17-9.27-9A24.75,24.75,0,0,1,51.36,47.39Z"/><path class="cls-3" d="M49.5,25.75a2.08,2.08,0,0,0-2-2.12L37.25,23.4l-.1,4.14,10.23.23a2.07,2.07,0,0,0,2.12-2ZM37.21,24.57l0-1.17-1.17,0h0l-21.64-.5v0a12.5,12.5,0,0,0,3.52,3l.95-.37.57,1,1-.66.66,1,.93-.72.71.93.88-.78.77.89.85-.82.81.85.85-.81.8.85.85-.81.81.85.85-.81.81.85.84-.81.81.85.85-.82.81.85.84-.81.82.85.07-2.91,1.15,0Zm-22,12.31-.13.12,0,.08c9.62,8.11,27.7,1.39,27.7,1.39l5.09,2.64.17,0a.4.4,0,0,0,.41-.39l-.06-.21-3-3.85L48.64,33l.06-.21a.39.39,0,0,0-.38-.4l-.18,0-5.21,2.4c-18.57-7.69-27.22-.39-27.22-.39l-.06.14.1.19,3.19,1.61a.31.31,0,0,1-.14.6l-3.55-.09Zm4.47-2.46a1.22,1.22,0,1,1,2.43.06,1.22,1.22,0,1,1-2.43-.06Z"/></svg>