<svg id="Layer_1" data-name="Layer 1" xmlns="http://www.w3.org/2000/svg" viewBox="0 0 64 64"><defs><style>.cls-1{fill:#231f20;}.cls-2{fill:#fff200;}</style></defs><title>Artboard 1 copy 33</title><polygon class="cls-1" points="61.82 61.83 2.15 61.83 2.15 2.17 61.82 2.17 61.82 61.83 61.82 61.83"/><path class="cls-2" d="M13.59,10.28c0-1.32-.27-1.88-1.09-1.88s-1.13.92-1.13,3.47c0,2.72.37,3.22,1.16,3.22s1.13-.35,1.13-2.29h1.82c0,1.94-.48,3.62-2.87,3.62-2.72,0-3.06-1.94-3.06-4.68s.34-4.68,3.06-4.68S15.4,9,15.4,10.28Z"/><path class="cls-2" d="M18.53,7.23h2.24l2.39,9h-1.9l-.41-1.91h-2.4L18,16.25H16.14l2.39-9Zm.23,5.62h1.77l-.87-4h0l-.88,4Z"/><path class="cls-2" d="M25.75,7.23v6.29c0,.9.21,1.57,1.06,1.57s1.06-.67,1.06-1.57V7.23h1.82v6.29a2.57,2.57,0,0,1-2.88,2.9c-1.48,0-2.88-.49-2.88-2.9V7.23Z"/><polygon class="cls-2" points="36.37 7.23 36.37 8.72 34.4 8.72 34.4 16.25 32.58 16.25 32.58 8.72 30.61 8.72 30.61 7.23 36.37 7.23 36.37 7.23"/><polygon class="cls-2" points="37.49 16.25 37.49 7.23 39.31 7.23 39.31 16.25 37.49 16.25 37.49 16.25"/><path class="cls-2" d="M43.8,7.06c2.72,0,3.06,1.94,3.06,4.68s-.34,4.68-3.06,4.68-3.07-1.94-3.07-4.68.34-4.68,3.07-4.68Zm0,8c1.07,0,1.25-.93,1.25-3.35S44.87,8.4,43.8,8.4s-1.25.93-1.25,3.34.17,3.35,1.25,3.35Z"/><polygon class="cls-2" points="50.29 7.23 52.48 13.41 52.51 13.41 52.51 7.23 54.18 7.23 54.18 16.25 52.11 16.25 49.88 9.94 49.86 9.94 49.86 16.25 48.19 16.25 48.19 7.23 50.29 7.23 50.29 7.23"/><polygon class="cls-2" points="56.58 56.53 7.32 56.53 7.32 21.53 56.58 21.53 56.58 56.53 56.58 56.53"/><polygon class="cls-1" points="22.72 24.35 26.97 24.35 26.97 25.61 24.25 25.61 24.25 27.4 26.81 27.4 26.81 28.66 24.25 28.66 24.25 31.96 22.72 31.96 22.72 24.35 22.72 24.35"/><polygon class="cls-1" points="28 31.96 28 24.35 29.53 24.35 29.53 31.96 28 31.96 28 31.96"/><path class="cls-1" d="M30.94,24.35h2.84a1.81,1.81,0,0,1,2,2c0,1-.41,1.7-1.28,1.88v0c1,.14,1.21.71,1.23,2.32,0,.8.06,1.22.34,1.37V32H34.44a1.46,1.46,0,0,1-.19-.8l0-1.46c0-.6-.28-1-.9-1h-.82V32H30.94V24.35Zm1.54,3.33h.64a1,1,0,0,0,1.15-1.15.94.94,0,0,0-1.07-1.05h-.72v2.2Z"/><polygon class="cls-1" points="41.39 24.35 41.39 25.61 38.67 25.61 38.67 27.4 41.23 27.4 41.23 28.66 38.67 28.66 38.67 30.7 41.5 30.7 41.5 31.96 37.14 31.96 37.14 24.35 41.39 24.35 41.39 24.35"/><polygon class="cls-1" points="24.08 35.01 24.08 36.27 22.42 36.27 22.42 42.63 20.88 42.63 20.88 36.27 19.22 36.27 19.22 35.01 24.08 35.01 24.08 35.01"/><path class="cls-1" d="M25,35h2.84a1.8,1.8,0,0,1,2,2c0,1-.4,1.7-1.27,1.88v0c1,.14,1.21.72,1.23,2.33,0,.8.05,1.21.34,1.36v.07H28.51a1.48,1.48,0,0,1-.19-.8l-.05-1.46c0-.6-.29-1-.9-1h-.83v3.22H25V35Zm1.53,3.33h.65a1,1,0,0,0,1.15-1.14,1,1,0,0,0-1.07-1.06h-.73v2.2Z"/><path class="cls-1" d="M32.69,35h1.9l2,7.62H35L34.65,41h-2l-.35,1.61h-1.6l2-7.62Zm.2,4.75h1.5l-.74-3.43h0l-.74,3.43Z"/><polygon class="cls-1" points="37.48 42.63 37.48 35.01 39.01 35.01 39.01 42.63 37.48 42.63 37.48 42.63"/><polygon class="cls-1" points="40.42 42.63 40.42 35.01 41.96 35.01 41.96 41.37 44.68 41.37 44.68 42.63 40.42 42.63 40.42 42.63"/><path class="cls-1" d="M18.92,45.68h1.9l2,7.61h-1.6l-.36-1.61h-2l-.36,1.61H16.9l2-7.61Zm.2,4.74h1.5L19.88,47h0l-.74,3.42Z"/><polygon class="cls-1" points="23.63 45.68 25.17 45.68 25.17 48.59 26.96 48.59 26.96 45.68 28.5 45.68 28.5 53.29 26.96 53.29 26.96 49.91 25.17 49.91 25.17 53.29 23.63 53.29 23.63 45.68 23.63 45.68"/><polygon class="cls-1" points="34.09 45.68 34.09 46.94 31.37 46.94 31.37 48.73 33.93 48.73 33.93 49.99 31.37 49.99 31.37 52.03 34.2 52.03 34.2 53.29 29.83 53.29 29.83 45.68 34.09 45.68 34.09 45.68"/><path class="cls-1" d="M36.71,45.68h1.9l2,7.61H39l-.35-1.61h-2l-.36,1.61h-1.6l2-7.61Zm.2,4.74h1.5L37.67,47h0l-.74,3.42Z"/><path class="cls-1" d="M41.5,45.68H44c2.13,0,2.51,1.46,2.51,3.7,0,2.7-.57,3.91-2.61,3.91H41.5V45.68ZM43,52.16h.69c1.06,0,1.28-.67,1.28-2.74,0-1.73-.14-2.61-1.32-2.61H43v5.35Z"/></svg>