<svg id="Layer_1" data-name="Layer 1" xmlns="http://www.w3.org/2000/svg" viewBox="0 0 64 64"><defs><style>.cls-1{fill:#231f20;}</style></defs><title>Artboard 1 copy 28</title><path class="cls-1" d="M32,2.17A29.83,29.83,0,1,0,61.82,32,29.83,29.83,0,0,0,32,2.17Zm9.35,27.42a2.07,2.07,0,0,1,2,2.08,2.05,2.05,0,0,1-4.1-.06A2.05,2.05,0,0,1,41.34,29.59ZM26.13,10.49A3.64,3.64,0,0,1,29.84,14a3.72,3.72,0,0,1-7.43,0A3.64,3.64,0,0,1,26.13,10.49ZM46.71,41.93a1,1,0,0,1-1.91,0s0-2.22,0-4a1.61,1.61,0,0,0,0-.54.35.35,0,0,0-.39-.24c-.27,0-.26.14-.3.24a1.87,1.87,0,0,0,0,.53V52.73h0c0,.43-.47.77-1.07.77s-1.08-.34-1.08-.77h0V43.47H41v9.27c0,.43-.46.77-1,.77s-1-.34-1-.77V51.9c0-5,0-9.94,0-14.91,0-.48-.14-.74-.75-.88a14,14,0,0,1-2.06-.62,1.87,1.87,0,0,1-1-.7c-.39-.8-.74-1.62-1.1-2.44a1.65,1.65,0,0,1-.74.18,1.59,1.59,0,0,1-1.59-1.59V24.07h-.85V51.4a2.18,2.18,0,0,1-4.35,0V35.58h-.92V51.4a2.15,2.15,0,0,1-4.3,0V24.07h-.85v8.36A1.65,1.65,0,0,1,18.87,34a1.63,1.63,0,0,1-1.62-1.59V23A4.68,4.68,0,0,1,22,18.45h8.19A4.65,4.65,0,0,1,35,23v6.92a.67.67,0,0,1,.23.35L36,32.19a3.11,3.11,0,0,0,2.78,2,4.68,4.68,0,0,0,.84.07h4.43c1.42,0,2,.32,2.39,1.41A4.37,4.37,0,0,1,46.7,37C46.72,39,46.73,41.76,46.71,41.93Z"/></svg>