<svg id="Layer_1" data-name="Layer 1" xmlns="http://www.w3.org/2000/svg" viewBox="0 0 64 64"><defs><style>.cls-1{fill:#231f20;}.cls-2{fill:#fff;}</style></defs><title>Artboard 1 copy 23</title><path class="cls-1" d="M32,60.06A28.11,28.11,0,1,0,3.88,32,28.11,28.11,0,0,0,32,60.06Z"/><path class="cls-2" d="M32,2.22A29.81,29.81,0,1,0,61.76,32,29.84,29.84,0,0,0,32,2.22Zm0,55.51A25.71,25.71,0,1,1,57.67,32,25.73,25.73,0,0,1,32,57.73Z"/><path class="cls-2" d="M46.64,44.91l0-26.47-2.69-.63-1.54,7L39.8,25.86l-2.29,6.41,2.18,4.91-.62,1.89-5,1.52-.3,2.23-8,2,.07,1.38H45.39a1.25,1.25,0,0,0,1.25-1.25Zm-9.9-14.73A1.32,1.32,0,0,0,36,28.46l-.06,0-4.07-1.2-3.06-3.68A3.12,3.12,0,0,0,27,22.62,3,3,0,0,0,24,24l-3.4,5.88a2.87,2.87,0,0,0-.28.9,2.7,2.7,0,0,0,0,.49l.12,7.45L17.82,44.3a1.87,1.87,0,0,0-.18.55,1.67,1.67,0,0,0,3.12,1.06l2.83-6.07a1.67,1.67,0,0,0,.13-.45l0-.23,0-4.6,4.35,1.9.7,4.5a1.67,1.67,0,0,0,3.29-.11,2.37,2.37,0,0,0,0-.46L31.21,35a1.71,1.71,0,0,0-.94-1.21L26.38,32l2.48-4.31,1.22,1.56a1.25,1.25,0,0,0,.48.33L35.24,31a1.32,1.32,0,0,0,1.5-.79ZM31.06,19.79a2.51,2.51,0,1,0-2.5,2.5,2.51,2.51,0,0,0,2.5-2.5Zm-7.49,2.89a.71.71,0,0,0-.27-1L22.09,21a.73.73,0,0,0-1,.26l-3.74,6.46a.71.71,0,0,0,.26,1l1.22.7a.72.72,0,0,0,1-.26l3.74-6.46Z"/></svg>