<svg id="Layer_1" data-name="Layer 1" xmlns="http://www.w3.org/2000/svg" viewBox="0 0 64 64"><defs><style>.cls-1{fill:#231f20;}.cls-2{fill:#ffd200;}</style></defs><title>Artboard 1 copy 39</title><path class="cls-1" d="M2.86,30.42a2.23,2.23,0,0,0,0,3.2L30.39,61.16a2.21,2.21,0,0,0,3.19,0L61.11,33.62a2.22,2.22,0,0,0,0-3.2L33.58,2.88a2.2,2.2,0,0,0-3.19,0L2.86,30.42Z"/><path class="cls-2" d="M5,30.42a2.22,2.22,0,0,0,0,3.2L30.39,59a2.21,2.21,0,0,0,3.19,0L59,33.62a2.22,2.22,0,0,0,0-3.2L33.58,5a2.2,2.2,0,0,0-3.19,0L5,30.42Z"/><path class="cls-1" d="M35.4,22.29c-3.78,1.35-5.07.44-8.45-.61s-5.26-.27-7.7.7a8.72,8.72,0,0,1-4.95.29,1.9,1.9,0,0,0,1.83,2c1.93.15,5.21-1.41,6.9-1.67a8.54,8.54,0,0,1,4.07.65A17,17,0,0,0,32,24.82a10.3,10.3,0,0,0,1.18-.06,16.1,16.1,0,0,0,2.23-2.47"/><path class="cls-1" d="M39.39,21.32c1.61-.25,3,0,5.5.86a8.42,8.42,0,0,0,5.24.49c.08.64,0,2.29-2.4,2S42.35,22.82,41,23a14.4,14.4,0,0,0-2.58.4,17.65,17.65,0,0,0,1-2"/><path class="cls-1" d="M51.82,39.38H41.39l-.3,2.23s0,1.2-.7,1.11A4.18,4.18,0,0,1,40.3,42a.7.7,0,0,0-.77-.15,6.11,6.11,0,0,1-.71.24.36.36,0,0,0-.12.34c.06.19.34.77.34.77v.71l-1-.56-1.26.25a2.09,2.09,0,0,0,.46,1.94l-.36,0-.83,1.19a1.79,1.79,0,0,1-.62.4,10.38,10.38,0,0,1-1.13.22l-.62.27c-.34.16-1,.4-1,.4H31.65l-1.51-.55a4.84,4.84,0,0,0-.71-1.17c-.27-.33-.82-.89-.95-1.1,0,0-.37-.25-.64,0,0-.53-.13-1.79-.13-1.79L26.36,44l-.09-1-.83-.53a1.69,1.69,0,0,1-.28-1.13,14.57,14.57,0,0,0-.09-2.15s-.15-.92-1-.22c-.37.31-1.1,1.11-1.35,1.26s-.56.33-.61-.19c.18,0,.87-.16.44-1.44,0,0-.65-1-1.32-1.1,0,.33-.19,1.16-.19,1.16s-.86-1.33-1.55-1.37H10.07L31.21,58.41a1.12,1.12,0,0,0,1.57,0l19-19Z"/><path class="cls-1" d="M23.89,38l.2.61a.33.33,0,0,1-.51,0c-.14-.2.31-.58.31-.58"/><path class="cls-1" d="M30.33,43.38h1a1.2,1.2,0,0,1,.25-.28c0-.14-.14-.57-.52-.42a5.92,5.92,0,0,0-.72.7"/><path class="cls-1" d="M31.27,43.61l0,.82-.86.61,1.58.13a3.76,3.76,0,0,0,.55-1.05c0-.29-.23-.79-1.29-.51"/><polygon class="cls-1" points="30.5 41.89 30.66 42.34 34.48 39.71 30.5 41.89 30.5 41.89"/><polygon class="cls-1" points="20.51 36.37 23.68 36.87 23.59 37.29 20.51 36.37 20.51 36.37"/><path class="cls-1" d="M27,29.92l.12-.47s-.7-.24-.79,0,.67.47.67.47"/><polygon class="cls-1" points="22.26 33.42 23.84 35.12 24.05 34.98 22.26 33.42 22.26 33.42"/><polygon class="cls-1" points="25.95 29.67 25.53 33.15 26.13 33.14 25.95 29.67 25.95 29.67"/><path class="cls-1" d="M27.71,36.62a1.78,1.78,0,1,1-1.78-1.78,1.77,1.77,0,0,1,1.78,1.78"/><path class="cls-1" d="M29.6,43.08a.9.9,0,0,1-1.12.64.91.91,0,0,1-.64-1.11l1.05-4.22s-1.24-3.08-1.57-4a1.79,1.79,0,0,1,.22-1.64l3.06-5.21a1.42,1.42,0,0,1,1.06-.68l3.77-3.7L37.8,18a1.1,1.1,0,0,1,1.44-.56,1.08,1.08,0,0,1,.56,1.44l-2.11,4.58a8.39,8.39,0,0,1-.93,1.35s-2.22,2.24-3,3c.27,1.2-.22,1.68-.22,1.68s-2,3.24-2.66,4.46-1.15,1.37-1.15,1.37.44,1.17.84,2.19a3,3,0,0,1,.11,1.42l-1,4.16Z"/></svg>