<svg id="Layer_1" data-name="Layer 1" xmlns="http://www.w3.org/2000/svg" viewBox="0 0 64 64"><defs><style>.cls-1{fill:#fff;}.cls-2{fill:#231f20;}</style></defs><title>Artboard 1 copy 12</title><path class="cls-1" d="M32,60.08A28.11,28.11,0,1,0,3.88,32,28.1,28.1,0,0,0,32,60.08Z"/><path class="cls-2" d="M32,2.16A29.84,29.84,0,1,0,61.82,32,29.87,29.87,0,0,0,32,2.16Zm0,55.57A25.73,25.73,0,1,1,57.72,32,25.77,25.77,0,0,1,32,57.73Z"/><path class="cls-2" d="M47.82,29.24l-6.74-3-.09,0a1.63,1.63,0,0,0-1.4.12L35.14,29l-1-6.46,6.38-3.74a1.32,1.32,0,0,0,.65-.79,1.33,1.33,0,0,0-.9-1.64,1.38,1.38,0,0,0-1.07.14L30.06,21.9a2.79,2.79,0,0,0-.84.68l-3.85,5.16-5.29-.64a1.41,1.41,0,0,0-.77.73A1.33,1.33,0,0,0,20,29.56a1.35,1.35,0,0,0,.86.07l5.39.61a1.22,1.22,0,0,0,.51-.36l2.19-2.73,1,5.92a2.87,2.87,0,0,0,1.54,2l4.69,1.4.68,5.38a1.72,1.72,0,0,0,3.32.33,1.81,1.81,0,0,0,.07-.83l-.84-6.6a1.63,1.63,0,0,0-.86-1.15l-2.92-.89,4.84-2.92,5.91,2.6.11,0a1.7,1.7,0,0,0,2.18-1,1.72,1.72,0,0,0-.89-2.12ZM30,20.55a2.78,2.78,0,0,0-1.85-3.44,2.76,2.76,0,0,0-1.6,5.28A2.78,2.78,0,0,0,30,20.55ZM42.61,47.61,15.2,38l0,9.63,27.44,0Z"/></svg>