<svg id="Layer_1" data-name="Layer 1" xmlns="http://www.w3.org/2000/svg" viewBox="0 0 64 64"><defs><style>.cls-1{fill:#231f20;}.cls-2{fill:#fff;}</style></defs><title>Artboard 1 copy 13</title><path class="cls-1" d="M61.82,32A29.84,29.84,0,1,0,32,61.83,29.83,29.83,0,0,0,61.82,32Z"/><path class="cls-2" d="M49.58,28.93,42.09,25.6l-.1,0a1.84,1.84,0,0,0-1.56.13l-5,3-1.16-7.17,7.1-4.16a1.48,1.48,0,0,0,.72-.88,1.5,1.5,0,0,0-1-1.82,1.47,1.47,0,0,0-1.18.16L29.84,20.78a3.11,3.11,0,0,0-.93.76l-4.27,5.73-5.88-.71a1.5,1.5,0,0,0-.85.81,1.47,1.47,0,0,0,.75,1.93,1.51,1.51,0,0,0,1,.07l6,.68a1.41,1.41,0,0,0,.57-.4l2.43-3,1.17,6.58a3.23,3.23,0,0,0,1.7,2.18l5.22,1.56.76,6a1.9,1.9,0,1,0,3.76-.56L40.27,35a1.79,1.79,0,0,0-.94-1.29l-3.25-1,5.38-3.25L48,32.4l.11.05a1.9,1.9,0,0,0,1.44-3.52ZM29.75,19.28a3.08,3.08,0,0,0-2-3.82,3.07,3.07,0,0,0-1.78,5.87,3.08,3.08,0,0,0,3.82-2Zm14,30.07L13.34,38.68l0,10.7,30.5,0Z"/></svg>