<svg id="Layer_1" data-name="Layer 1" xmlns="http://www.w3.org/2000/svg" viewBox="0 0 64 64"><defs><style>.cls-1{fill:#fff;}.cls-2{fill:#231f20;}</style></defs><title>Artboard 1 copy 15</title><path class="cls-1" d="M31.65,60.08A28.11,28.11,0,1,0,3.54,32a28.1,28.1,0,0,0,28.11,28.1Z"/><path class="cls-2" d="M32,61.83A29.83,29.83,0,1,0,2.15,32,29.86,29.86,0,0,0,32,61.83Z"/><path class="cls-1" d="M32,57.73A25.73,25.73,0,1,1,57.72,32,25.76,25.76,0,0,1,32,57.73Z"/><path class="cls-2" d="M44.4,45.21V43.12l-1.85-1.4L41.28,43v2.21ZM39.82,39.8l.45-3.61-3.53-.47-.35,1.92.93,1.81,2.5.35ZM38.94,34l1.3-2.16v0l-1.9-1.15-1.1.2L35.94,33V33l1.9,1.16,1.1-.2Zm-7.76-4.51L35.12,29l-.46-5.21-5.47.51.39,3.05,1.6,2.12ZM30,21.53l1.81-.84-.85-1.81-1.8.84L30,21.53Zm-.8,1.53-3-1-1,3,3,1,1-3Zm1.49,9h1.15l.83-.62-1.18-1.57-.8.6V32Zm2.55,4L23.66,24.49,21.59,19.4l-2-.61V43.91a1.27,1.27,0,0,0,1.26,1.26l17.17,0-1.4-5L33.21,36Z"/></svg>