<svg id="Layer_1" data-name="Layer 1" xmlns="http://www.w3.org/2000/svg" viewBox="0 0 64 64"><defs><style>.cls-1{fill:#ffd200;}.cls-2{fill:#231f20;}</style></defs><title>Artboard 1 copy 38</title><polyline class="cls-1" points="8.61 56.24 33.55 10.23 55.38 56.24 8.61 56.24"/><path class="cls-2" d="M61.47,56.91,36.45,4a2.94,2.94,0,0,0-5.35-.16L2.59,56.75c-1.21,2.24.26,5.08,2.63,5.08H58.76c2.29,0,3.77-2.68,2.71-4.92ZM8.9,56.16,33.61,10.28,55.3,56.16Z"/><path class="cls-2" d="M23.92,40.19l3.46-3.95,6.7-3.43s.28-3.29.34-4.11.07-1.19,1-1.19a.85.85,0,0,1,1,.82s-.34,3.73-.41,4.85a1.37,1.37,0,0,1-.81,1.34l-2.78,1.72,1.9,4.47s2.57-.89,3.59-1.27,1.08,0,1.08,0l3.73,2.69c.41.3,1.43,1,.54,2.16-.61.82-1.62,0-1.62,0L38.22,42l-4.41,1.86s1.7.82,2.78,1.27,1,.75,1,.75l1.76,4.77S40,51.9,39,52.42c-1.37.71-1.69-.6-1.69-.6l-1.56-4.47s-4.61-1.94-5-2.16-2.85-6.57-2.85-6.57l-2.37,2.76.95,4.18A1,1,0,0,1,26,46.83a.88.88,0,0,1-1.28-.45s-.75-3.35-1.09-4.55a1.82,1.82,0,0,1,.34-1.64Zm2-7.42a2.21,2.21,0,1,1,2.2,2.42,2.32,2.32,0,0,1-2.2-2.42Z"/></svg>