<svg id="Layer_1" data-name="Layer 1" xmlns="http://www.w3.org/2000/svg" viewBox="0 0 64 64"><defs><style>.cls-1{fill:#ed1c24;}.cls-2{fill:#231f20;}</style></defs><title>Artboard 1 copy 66</title><path class="cls-1" d="M32,2.17A29.83,29.83,0,1,0,61.82,32,29.86,29.86,0,0,0,32,2.17ZM51.4,47.39l-7.07-6.84c0,.11,0,.24,0,.35v5.65a3.68,3.68,0,0,1-.12.89L47.88,51A24.77,24.77,0,0,1,12.47,16.75l4,3.87a2.84,2.84,0,0,1,1.3-.05,2.79,2.79,0,0,1,1.76,1.2l2.35,3.54L28,24.78,16,13.11A24.77,24.77,0,0,1,51.4,47.39Z"/><path class="cls-2" d="M51.86,21.4,40.43,17,37.83,13,35.38,23.28h0c-.07.11-.15.27-.25.45l9,3.61-.08-1.42h0l6.06,0,1.71-4.5Zm-7.75,8.29-10-4.37-12.74,1.1-2.7-4.07a1.72,1.72,0,0,0-2.89,1.86L18.21,28l-.06,1.42V46.56a2.61,2.61,0,1,0,5.21,0V39.84l4.72,8a2.62,2.62,0,1,0,4.49-2.69l-4.4-7.4H38v8.81a2.62,2.62,0,1,0,5.23,0V40.9c0-3.59.81-10,.85-11.21Z"/></svg>