<svg id="Layer_1" data-name="Layer 1" xmlns="http://www.w3.org/2000/svg" viewBox="0 0 64 64"><defs><style>.cls-1{fill:#231f20;}.cls-2{fill:#fff;}</style></defs><title>Artboard 1 copy 10</title><path class="cls-1" d="M32,61.83A29.82,29.82,0,1,0,2.18,32,29.82,29.82,0,0,0,32,61.83Z"/><path class="cls-2" d="M26.68,33.94a1,1,0,0,0-.34-.84L23.52,31l-2-4.25a2.24,2.24,0,0,0-1.64-1.1,2.28,2.28,0,0,0-1.48.39L14.1,29.36a.89.89,0,0,0-.3.44l-1.05,4.11,0,.13a.94.94,0,0,0,.84,1,1,1,0,0,0,1-.75l.88-3.53L17,29.66l-2.54,9.88L11.61,44a1.92,1.92,0,0,0-.21.6,1.42,1.42,0,0,0,1.26,1.56A1.44,1.44,0,0,0,14,45.5l3-4.79a3.64,3.64,0,0,0,.3-.59l.8-3.2,2.92,3.39.8,5a1.46,1.46,0,0,0,1.24,1.16,1.42,1.42,0,0,0,1.56-1.26,2.62,2.62,0,0,0,0-.29l-.85-5.33a1.46,1.46,0,0,0-.15-.46l-3.59-4.49,1.07-4.15.75,1.59a.77.77,0,0,0,.23.28l3.08,2.26a1.14,1.14,0,0,0,.42.16.94.94,0,0,0,1-.84ZM22.54,23.38a2.11,2.11,0,1,0-2.33,1.87,2.11,2.11,0,0,0,2.33-1.87Z"/><path class="cls-1" d="M28.83,32.22l.18-.31L27.1,30.77l-1.46,2.41,2.22,1.33,1.47-2.41L29,31.91l-.18.31L28.52,32l-.9,1.49-1-.59.71-1.18,1.3.77.19-.31L28.52,32l.31.18Zm-.16-.63.18-.31-.8-.48-.31-.19-.3.51-.19.31,1.11.66.31.19.31-.51.18-.31-.31-.18-.18.31-.31-.19-.12.2.31.19.18-.31-.8-.48-.19.31.31.18.12-.2-.31-.18-.18.31.8.47.19-.3-.31-.19.31.19Zm-2.1,2.55-.18.31a.6.6,0,0,0,.81-.21h0a.6.6,0,0,0-.21-.81h0l-.17.31.18-.31a.59.59,0,0,0-.81.2h0a.61.61,0,0,0,.21.82l.15-.25-.16.24h0l.15-.25-.16.24h0l.18-.31.19-.31h0l-.07.11.11.06,0-.17-.07.11.11.06-.25-.14.25.15h0l-.25-.14.25.15h0l-.1-.06-.07.11.17,0-.1-.06-.07.11h0l.16-.28-.17.28h0l.16-.28-.17.28.07-.11-.11-.07,0,.18.07-.11-.11-.07h0l.1.07.07-.11-.17,0,.1.07.07-.11-.19.31.19-.31-.19.31Zm.49.56.18-.31L26,33.67h0l0-.14-.25-.15.24.15h0l-.25-.15.24.15h0l1.45-2.4h0l.15,0,1.21.72h0l0-.08,0,.08h0l0-.08,0,.08,0,.14h0l.31.18L28.84,32l-1.45,2.39-.15,0-.18.31-.19.31A.84.84,0,0,0,28,34.72l1.45-2.39h0l-.11-.07.11.07h0l-.11-.07.11.07a.83.83,0,0,0-.28-1.13h0L28,30.48a.84.84,0,0,0-1.14.28l-1.45,2.39.31.19-.3-.19h0a.83.83,0,0,0,.28,1.13h0l1.2.72.19-.31Z"/><polygon class="cls-1" points="27.45 30.9 25.79 33.66 27.4 34.62 29.06 31.87 27.45 30.9 27.45 30.9"/><path class="cls-2" d="M28.73,32.26l-1.5-.9-1,1.68,1.49.9,1-1.68Zm-.15-.6-.75-.45-.11.19.74.45.12-.19Zm-1.94,2.39a.22.22,0,0,0,.22-.38.23.23,0,0,0-.3.08.22.22,0,0,0,.08.3Zm.44.52L26,33.9a.44.44,0,0,1-.14-.6l1.34-2.24a.43.43,0,0,1,.6-.14l1.11.67a.42.42,0,0,1,.15.59l-1.34,2.24a.45.45,0,0,1-.6.15Z"/><path class="cls-2" d="M52.06,32.44,50,27a2.85,2.85,0,0,0-2.87-1.91h-11A2.84,2.84,0,0,0,33.23,27l-2.1,5.41a3,3,0,0,0-2.3,2.94v6.88h2v2.2a1.92,1.92,0,1,0,3.83,0v-2.2H48.49v2.2a1.92,1.92,0,1,0,3.83,0v-2.2h2V35.38a3,3,0,0,0-2.3-2.94ZM32.84,38.11a1.83,1.83,0,1,1,1.77-1.82,1.8,1.8,0,0,1-1.77,1.82Zm8.75-5.72H33.3l1.58-4.26c.2-.6.49-1,1.18-1H47.12c.69,0,1,.44,1.18,1l1.58,4.26Zm8.75,5.72a1.83,1.83,0,1,1,1.77-1.82,1.8,1.8,0,0,1-1.77,1.82Z"/><polygon class="cls-2" points="37.96 23.25 36.03 18.8 34.83 22.25 31.89 19.21 32.33 23.03 29.32 21.56 30.69 25.39 26.89 25.17 29.92 28.21 30.25 27.88 28.09 25.71 31.37 25.9 30.15 22.49 32.89 23.83 32.51 20.53 35.02 23.12 36.08 20.09 37.53 23.44 37.96 23.25 37.96 23.25"/></svg>