<svg id="Layer_1" data-name="Layer 1" xmlns="http://www.w3.org/2000/svg" viewBox="0 0 64 64"><defs><style>.cls-1{fill:#fff;}.cls-2{fill:#231f20;}</style></defs><title>Artboard 1</title><path class="cls-1" d="M32,60.08A28.11,28.11,0,1,0,3.9,32,28.1,28.1,0,0,0,32,60.08Z"/><path class="cls-2" d="M32,2.16A29.82,29.82,0,1,0,61.82,32,29.85,29.85,0,0,0,32,2.16Zm0,55.53A25.72,25.72,0,1,1,57.72,32,25.75,25.75,0,0,1,32,57.69Z"/><path class="cls-2" d="M52.41,37.21a.78.78,0,0,0-1.55,0v.9H50l-.43,1.6v.06H38.88a1.94,1.94,0,0,0-1.72-1.14,34.17,34.17,0,0,1-1.2-3.3,7.7,7.7,0,0,1,.39-2.63c.18-.57,2.41-1.36,4.23-2a4.56,4.56,0,0,0,2.29-1.45s1.45-1.88,2.3-3.08.36-1.81.36-1.81S44.32,21.23,44,20s-1.75-.52-1.75-.52L11.59,31l7.67-.18s0-.31.42.84a4.53,4.53,0,0,0,1,1.69s2.9,1.33,4.53,2,2.35.3,2.35.3a33.59,33.59,0,0,1,4.26-1.48c.6,0,2.39.75,2.69,1.54.21.55.93,2.36,1.34,3.37a2,2,0,1,0,3,2.34H49.61L50,43.06h.81V44a.78.78,0,0,0,1.55,0l0-6.75ZM14,33.74l1.37,3.73a.77.77,0,0,0,1.44-.54L15.44,33.2a.77.77,0,1,0-1.44.54Zm2.14-.57a21.85,21.85,0,0,0,.95,2.94c.22.54.6.33,1,.33s.43.82.85,1.53a1,1,0,0,0,1.15.44l5.64-2.09S20.8,34,20.11,33.57,19,31.37,19,31.37h-2.3s.12,1-.06,1.12c-.49.24-.47.37-.46.68Z"/></svg>